<svg xmlns="http://www.w3.org/2000/svg" xmlns:xlink="http://www.w3.org/1999/xlink" x="0px" y="0px"
	 width="512px" height="512px" viewBox="0 0 512 512" style="enable-background:new 0 0 512 512;" xml:space="preserve">
<style type="text/css">
	.st0{fill:#58C1CC;}
	.st1{fill:#60CCD7;}
	.st2{fill:#48ACBC;}
	.st3{clip-path:url(#SVGID_2_);}
	.st4{fill:#71E4EA;}
	.st5{fill:#DAEBEF;}
	.st6{fill:#C7DADD;}
	.st7{fill:#FFFFFF;}
	.st8{fill:#D83F7D;}
	.st9{fill:#E94982;}
	.st10{fill:#CD3A77;}
	.st11{fill:#FF559A;}
	.st12{fill:#F2DAE2;}
	.st13{fill:#D8BFC9;}
	.st14{fill:#3CB5E5;}
	.st15{fill:#45C6F3;}
	.st16{fill:#36A9D7;}
	.st17{fill:#5ADBFF;}
	.st18{fill:#D9EEF4;}
	.st19{fill:#BDD5DB;}
	.st20{fill:#E8EAEF;}
	.st21{fill:#BAC0CC;}
	.st22{fill:#5B3E60;}
	.st23{fill:#7D5D83;}
	.st24{fill:#4A314F;}
</style>
<rect id="Rectangle_11775" x="317.6" y="378.3" transform="matrix(0.9898 -0.1427 0.1427 0.9898 -51.2051 56.1679)" class="st0" width="97.1" height="13.7"/>
<rect id="Rectangle_11776" x="387.1" y="373.3" transform="matrix(0.9897 -0.143 0.143 0.9897 -50.2347 61.1912)" class="st0" width="27.1" height="13.7"/>
<rect id="Rectangle_11777" x="387.2" y="373.7" transform="matrix(0.9898 -0.1427 0.1427 0.9898 -50.2173 60.6976)" class="st1" width="22" height="13.7"/>
<rect id="Rectangle_11778" x="318" y="384.8" transform="matrix(0.9898 -0.1425 0.1425 0.9898 -52.5308 49.6821)" class="st2" width="5.4" height="13.7"/>
<g id="Group_18080" transform="translate(0 0)">
	<g>
		<defs>
			<rect id="SVGID_1_" x="123.2" y="124.6" width="368.4" height="355.1"/>
		</defs>
		<clipPath id="SVGID_2_">
			<use xlink:href="#SVGID_1_"  style="overflow:visible;"/>
		</clipPath>
		<g id="Group_18079" class="st3">
			<path id="Path_21855" class="st1" d="M432.4,294.2l-193.3,27.9c19.6,31.7,49.6,54.4,83.3,62.4l63.9-9.2
				C410.7,354.5,427,325.8,432.4,294.2"/>
			<path id="Path_21856" class="st1" d="M434.9,270.5c0.1-4.4,0.1-8.9-0.2-13.4l-211.5,30.5c1.4,4.3,3,8.6,4.7,12.7L434.9,270.5z"/>
			<path id="Path_21857" class="st2" d="M239.1,322.1l-14.3,2.1c21.6,31.7,54.8,53.6,92.4,61.1l5.3-0.8
				C288.6,376.5,258.7,353.8,239.1,322.1"/>
			<path id="Path_21858" class="st2" d="M223.1,287.6l-15.7,2.3c1.5,4.3,3.2,8.6,5.1,12.7l15.3-2.2
				C226.1,296.2,224.6,291.9,223.1,287.6"/>
			<path id="Path_21859" class="st1" d="M490.3,262.5c0.6-4.5,1.1-9,1.3-13.6l-15.7,2.3c-0.1,4.6-0.4,9.1-0.9,13.6L490.3,262.5z"/>
			<path id="Path_21860" class="st1" d="M408.1,372.2l5.3-0.8c33.9-17.8,59.5-48.2,71.3-84.7l-14.3,2.1
				C460.5,324.7,438.2,354.9,408.1,372.2"/>
			<path id="Path_21861" class="st4" d="M475,264.7c0.5-4.5,0.8-9,0.9-13.6l-41.2,5.9c0.3,4.5,0.3,9,0.2,13.4L475,264.7z"/>
			<path id="Path_21862" class="st4" d="M470.4,288.8l-38,5.5c-5.4,31.6-21.7,60.3-46.1,81.1l21.8-3.1
				C438.2,354.9,460.5,324.7,470.4,288.8"/>
			<path id="Path_21863" class="st5" d="M227.9,300.3c3.2,7.5,6.9,14.8,11.2,21.8l193.3-27.9c1.4-7.8,2.3-15.8,2.5-23.8L227.9,300.3
				z"/>
			<path id="Path_21864" class="st6" d="M227.9,300.3l-15.3,2.2c3.4,7.6,7.5,14.8,12.2,21.7l14.3-2.1
				C234.8,315.1,231,307.8,227.9,300.3"/>
			<path id="Path_21865" class="st5" d="M475,264.7c-0.9,8.1-2.4,16.2-4.6,24.1l14.3-2.1c2.5-7.9,4.4-16,5.6-24.2L475,264.7z"/>
			<path id="Path_21866" class="st7" d="M432.4,294.2l38-5.5c2.2-7.9,3.7-15.9,4.6-24.1l-40.1,5.8
				C434.6,278.5,433.8,286.4,432.4,294.2"/>
			
				<rect id="Rectangle_11779" x="308.3" y="370.2" transform="matrix(0.1852 -0.9827 0.9827 0.1852 -154.6589 650.8631)" class="st8" width="13.7" height="97.1"/>
			
				<rect id="Rectangle_11780" x="342.7" y="411.6" transform="matrix(0.1852 -0.9827 0.9827 0.1852 -133.0153 689.9277)" class="st8" width="13.7" height="27.1"/>
			
				<rect id="Rectangle_11781" x="340.1" y="413.7" transform="matrix(0.1851 -0.9827 0.9827 0.1851 -134.5876 687.0898)" class="st9" width="13.7" height="22"/>
			
				<rect id="Rectangle_11782" x="263.2" y="407.5" transform="matrix(0.185 -0.9827 0.9827 0.185 -182.9763 599.7792)" class="st10" width="13.7" height="5.4"/>
			<path id="Path_21867" class="st9" d="M407.3,354.1l-191.9-36.2c8.3,36.4,29.3,67.5,58.6,86l63.5,12
				C367.3,404.1,392,382.3,407.3,354.1"/>
			<path id="Path_21868" class="st9" d="M417.3,332.4c1.5-4.1,2.9-8.4,4.1-12.7l-210-39.6c-0.1,4.6,0,9.1,0.4,13.6L417.3,332.4z"/>
			<path id="Path_21869" class="st10" d="M215.4,317.9l-14.2-2.7c10.2,37,34.5,68.4,67.6,87.7l5.3,1
				C244.7,385.4,223.7,354.3,215.4,317.9"/>
			<path id="Path_21870" class="st10" d="M211.5,280.1l-15.5-2.9c0,4.6,0.3,9.1,0.7,13.6l15.2,2.9
				C211.5,289.2,211.4,284.7,211.5,280.1"/>
			<path id="Path_21871" class="st9" d="M472.4,342.8c2.1-4,3.9-8.2,5.6-12.5l-15.5-2.9c-1.6,4.3-3.4,8.5-5.3,12.5L472.4,342.8z"/>
			<path id="Path_21872" class="st9" d="M359.1,420l5.3,1c37.9-5.9,71.9-26.4,94.9-57.1l-14.2-2.7C424.1,392,393.2,413.4,359.1,420"
				/>
			<path id="Path_21873" class="st11" d="M457.2,339.9c1.9-4.1,3.7-8.2,5.3-12.5l-41-7.7c-1.2,4.3-2.6,8.6-4.1,12.7L457.2,339.9z"/>
			<path id="Path_21874" class="st11" d="M445,361.2l-37.7-7.1c-15.3,28.2-40,50.1-69.8,61.8l21.6,4.1
				C393.2,413.4,424.1,392,445,361.2"/>
			<path id="Path_21875" class="st12" d="M211.8,293.7c0.5,8.2,1.7,16.3,3.5,24.2l191.9,36.2c3.9-7,7.3-14.2,10-21.7L211.8,293.7z"
				/>
			<path id="Path_21876" class="st13" d="M211.8,293.7l-15.2-2.9c0.8,8.3,2.3,16.4,4.5,24.4l14.2,2.7
				C213.6,309.9,212.4,301.8,211.8,293.7"/>
			<path id="Path_21877" class="st12" d="M457.2,339.9c-3.5,7.4-7.5,14.5-12.1,21.3l14.2,2.7c5-6.6,9.3-13.7,13.1-21.1L457.2,339.9z
				"/>
			<path id="Path_21878" class="st7" d="M407.3,354.1l37.7,7.1c4.6-6.8,8.6-13.9,12.1-21.3l-39.8-7.5
				C414.6,339.9,411.2,347.1,407.3,354.1"/>
			<rect id="Rectangle_11783" x="288.4" y="465.9" class="st14" width="97.1" height="13.7"/>
			<rect id="Rectangle_11784" x="358.4" y="465.9" class="st14" width="27.1" height="13.7"/>
			<rect id="Rectangle_11785" x="358.4" y="465.9" class="st15" width="22" height="13.7"/>
			<rect id="Rectangle_11786" x="288.4" y="465.9" class="st16" width="5.4" height="13.7"/>
			<path id="Path_21879" class="st15" d="M415.5,392.2H220.2c14.9,34.2,41.3,60.9,73.6,73.7h64.6
				C385.5,448.8,405.7,422.8,415.5,392.2"/>
			<path id="Path_21880" class="st15" d="M421.4,369.1c0.8-4.4,1.3-8.8,1.7-13.3H209.4c0.8,4.5,1.7,8.9,2.9,13.3H421.4z"/>
			<path id="Path_21881" class="st16" d="M220.2,392.2h-14.5c16.9,34.4,46.5,60.9,82.7,73.7h5.4
				C261.5,453.1,235.1,426.4,220.2,392.2"/>
			<path id="Path_21882" class="st16" d="M209.4,355.8h-15.8c0.9,4.5,1.9,8.9,3.2,13.3h15.5C211.1,364.7,210.2,360.3,209.4,355.8"/>
			<path id="Path_21883" class="st15" d="M477.4,369.1c1.3-4.3,2.3-8.8,3.2-13.3h-15.8c-0.8,4.5-1.7,8.9-2.9,13.3H477.4z"/>
			<path id="Path_21884" class="st15" d="M380.4,465.9h5.4c36.1-12.8,65.8-39.3,82.7-73.7h-14.5
				C439.1,426.4,412.6,453.1,380.4,465.9"/>
			<path id="Path_21885" class="st17" d="M461.9,369.1c1.1-4.3,2.1-8.8,2.9-13.3h-41.7c-0.4,4.5-1,8.9-1.7,13.3H461.9z"/>
			<path id="Path_21886" class="st17" d="M453.9,392.2h-38.4c-9.8,30.5-30.1,56.6-57.2,73.7h22C412.6,453.1,439.1,426.4,453.9,392.2
				"/>
			<path id="Path_21887" class="st18" d="M212.3,369.1c2,7.9,4.7,15.7,8,23.2h195.3c2.5-7.6,4.5-15.3,5.8-23.2H212.3z"/>
			<path id="Path_21888" class="st19" d="M212.3,369.1h-15.5c2.3,8,5.3,15.7,9,23.2h14.5C217,384.7,214.3,377,212.3,369.1"/>
			<path id="Path_21889" class="st18" d="M461.9,369.1c-2,7.9-4.7,15.7-8,23.2h14.5c3.6-7.5,6.6-15.2,9-23.2H461.9z"/>
			<path id="Path_21890" class="st7" d="M415.5,392.2h38.4c3.3-7.5,5.9-15.2,8-23.2h-40.5C420,376.9,418.1,384.7,415.5,392.2"/>
			<path id="Path_21891" class="st20" d="M219.9,242.9c19.5-3.9,30.1-24,31.4-51.5c1.4-31.1-15.5-60.3-34.5-61.7
				c-19-0.3-38.6,27.1-40.1,58.2c-1.3,27.5,7.4,48.5,26.5,54.2c0,0,0,0,0,0c6.4,5.5-2.5,48.6-2.5,48.6l7.2,0.3l2.7,0.1l7.2,0.3
				C217.9,291.4,213,247.8,219.9,242.9C219.9,242.9,219.9,242.9,219.9,242.9"/>
			<path id="Path_21892" class="st21" d="M206.6,242.3c-2.3-0.7-4.5-1.7-6.5-2.9c-2.4-1.4-4.6-3-6.5-4.9c-2-2-3.8-4.2-5.2-6.6
				c-1.6-2.6-2.9-5.3-3.9-8.1c-1.1-3-2-6.2-2.7-9.4c-0.7-3.5-1.2-7-1.4-10.5c-0.3-3.8-0.3-7.7-0.1-11.5l0-0.4
				c1.4-30.2,19.9-56.9,38.4-58.2c-0.6-0.1-1.1-0.2-1.7-0.2c-19-0.3-38.6,27.1-40.1,58.2c-1.3,27.5,7.4,48.5,26.5,54.2
				c6.4,5.5-2.5,48.6-2.5,48.6l4.3,0.2c0,0,1.2-45.6,7.4-48c-0.4,0.1-0.8,0.1-1.2,0.1C209.7,243,208.1,242.7,206.6,242.3"/>
			<path id="Path_21893" class="st21" d="M201.4,287.3c-0.4,2.1-0.6,3.3-0.6,3.3l17.1,0.8c0,0-0.1-1.3-0.3-3.4L201.4,287.3z"/>
			<path id="Path_21894" class="st9" d="M214.2,380.9l-18.2-0.8c-1.4-0.1-8.3-1.6-8.2-3l9.7-85.2c0.1-1.4,1.3-2.6,2.8-2.5l18.2,0.8
				c1.4,0.1,2.6,1.3,2.5,2.7l2.9,85.7C223.7,380.1,215.7,381,214.2,380.9"/>
			<path id="Path_21895" class="st10" d="M195.8,377.4l9.7-85.2c0.1-1.4,1.3-2.6,2.7-2.5l-8-0.4c-1.4-0.1-2.7,1.1-2.8,2.5l-9.7,85.2
				c-0.1,1.4,6.7,3,8.2,3l8,0.4C202.6,380.4,195.8,378.9,195.8,377.4"/>
			<path id="Path_21896" class="st20" d="M163.6,243.1c1.8-2.8,3.5-5.6,4.9-8.6c8.1-18.3,1.2-39.5-2.9-57.9
				c-3-13.8-13.5-51.9-13.5-51.9l-1.4,0.2c0.1,0.6,0.2,1.2,0.3,1.7c0.2,1.6,0.5,3.2,0.7,4.8l1.1,7.1l1.3,8.8l1.5,9.8l1.5,10.1
				l1.5,9.8c0.4,2.9,0.9,5.9,1.3,8.8c0.4,2.4,0.7,4.9,1.1,7.3c0.5,2.4,0.8,4.9,0.8,7.4c0,0.5-0.1,1-0.3,1.5c-0.4,0.7-1.1,1-1.9,0.8
				c-0.8-0.3-1.4-1-1.6-1.9c-0.2-0.7-3.7-18-4.3-20.8c-0.7-3.2-1.3-6.4-2-9.6l-2.1-10.2c-0.7-3.3-1.4-6.7-2.1-10
				c-0.6-3-1.3-6.1-1.9-9.1l-1.6-7.5l-1.1-5.2c-0.2-0.7-0.3-1.5-0.5-2.3l-2.2,0.3c0,0.2,0,0.3,0.1,0.5l0.2,1.5
				c0.1,0.8,0.2,1.5,0.3,2.3l0.4,3.1l0.5,3.7l0.6,4.3l0.7,4.7l0.7,5.1c0.2,1.8,0.5,3.5,0.7,5.3c0.3,1.8,0.5,3.6,0.8,5.4
				s0.5,3.6,0.8,5.5l0.8,5.4c0.2,1.8,0.5,3.5,0.7,5.3c0.2,1.7,0.5,3.3,0.7,5l0.6,4.6c0.2,1.4,0.4,2.8,0.6,4.2l0.5,3.6l0.4,2.9
				c0.1,0.7,0.2,1.4,0.3,2.2l0.2,1.3c0.3,1.1-0.4,2.3-1.5,2.6c-1.2,0-2.1-0.9-2.2-2.1l-0.2-1.3c-0.1-0.7-0.2-1.4-0.3-2.2l-0.5-2.9
				c-0.2-1.2-0.4-2.4-0.6-3.6l-0.7-4.2l-0.7-4.6c-0.3-1.7-0.5-3.3-0.8-5c-0.3-1.8-0.6-3.5-0.8-5.3c-0.3-1.8-0.6-3.6-0.9-5.4
				c-0.3-1.8-0.6-3.6-0.9-5.5l-0.9-5.4c-0.3-1.8-0.6-3.5-0.8-5.3c-0.3-1.7-0.5-3.4-0.8-5c-0.3-1.6-0.5-3.1-0.8-4.7l-0.7-4.3
				c-0.2-1.2-0.4-2.5-0.6-3.7c-0.2-1-0.3-2-0.5-3.1c-0.1-0.8-0.2-1.5-0.4-2.3c-0.1-0.5-0.2-1-0.2-1.5c0-0.2,0-0.3-0.1-0.5l-2.2,0.3
				c0.1,0.8,0.1,1.6,0.2,2.3l0.5,5.3l0.7,7.7c0.3,3.1,0.6,6.2,0.8,9.3c0.3,3.4,0.6,6.8,0.9,10.2c0.3,3.5,0.6,6.9,0.9,10.3
				c0.3,3.3,0.6,6.5,0.9,9.8c0.3,2.8,2,20.4,2,21.2c0.2,0.9-0.2,1.7-0.9,2.2c-0.7,0.4-1.5,0.3-2-0.3c-0.3-0.4-0.6-0.8-0.7-1.3
				c-0.7-2.4-1.2-4.8-1.4-7.3c-0.3-2.4-0.7-4.9-1.1-7.3c-0.4-2.9-0.9-5.9-1.3-8.8l-1.5-9.8l-1.5-10.1l-1.5-9.8l-1.3-8.8l-1.1-7.1
				c-0.2-1.6-0.5-3.2-0.7-4.8c-0.1-0.6-0.2-1.2-0.3-1.7l-1.4,0.2c0,0,1.2,39.6,2.4,53.6c1.5,18.8,1.1,41.2,14.3,56.2
				c2.3,2.4,4.7,4.6,7.2,6.8c1.6,2,3,4.2,4.3,6.4c0.2,0.4,0.3,0.8,0.4,1.2l0,0l0,0c3.9,11.7,3.3,46.9,3.3,46.9l17-2.5
				c0,0-11-33.3-10.7-45.8h0c0,0,0,0,0,0c0-0.3,0-0.5,0-0.8C161.9,248.3,162.7,245.6,163.6,243.1"/>
			<path id="Path_21897" class="st20" d="M163.9,243.2c2.5-4.4,4.7-9,6.6-13.8c1.4-4.9,2-10.1,1.9-15.2c-0.6-10.5-2.3-20.8-5.1-30.9
				c-0.5-2.3-1.1-4.5-1.6-6.8c-3-13.8-13.5-51.9-13.5-51.9l-1.4,0.2c0.1,0.6,0.2,1.2,0.3,1.7c0.2,1.6,0.5,3.2,0.7,4.8l1.1,7.1
				l1.3,8.8l1.5,9.8l1.5,10.1l1.5,9.8c0.4,2.9,0.9,5.9,1.3,8.8c0.4,2.4,0.7,4.9,1.1,7.3c0.5,2.4,0.8,4.9,0.8,7.4
				c0,0.5-0.1,1-0.3,1.5c-0.4,0.7-1.1,1-1.9,0.8c-0.8-0.3-1.4-1-1.6-1.9c-0.2-0.7-3.7-18-4.3-20.8c-0.7-3.2-1.4-6.4-2-9.6
				c-0.7-3.4-1.4-6.8-2.1-10.2l-2.1-10l-1.9-9.1c-0.5-2.5-1.1-5-1.6-7.5l-1.1-5.2c-0.2-0.7-0.3-1.5-0.5-2.3l-2.2,0.3
				c0,0.2,0,0.3,0.1,0.5l0.2,1.5l0.3,2.3l0.4,3.1l0.5,3.7l0.6,4.3l0.7,4.7l0.7,5.1l0.7,5.3l0.8,5.4l0.8,5.5c0.3,1.8,0.5,3.6,0.8,5.4
				c0.2,1.8,0.5,3.5,0.7,5.3l0.7,5c0.2,1.5,0.4,3.1,0.6,4.6c0.2,1.4,0.4,2.8,0.6,4.2l0.5,3.6l0.4,2.9c0.1,0.7,0.2,1.4,0.3,2.2
				l0.2,1.3c0.3,1.1-0.4,2.3-1.5,2.6c-1.2,0-2.1-0.9-2.2-2.1c-0.1-0.4-0.1-0.9-0.2-1.3c-0.1-0.7-0.2-1.4-0.3-2.2
				c-0.2-1-0.3-2-0.5-2.9c-0.2-1.2-0.4-2.4-0.6-3.6l-0.7-4.2l-0.7-4.6c-0.3-1.7-0.5-3.3-0.8-5c-0.3-1.8-0.6-3.5-0.8-5.3
				c-0.3-1.8-0.6-3.6-0.9-5.4c-0.3-1.8-0.6-3.6-0.9-5.5l-0.9-5.4c-0.3-1.8-0.6-3.5-0.8-5.3c-0.3-1.7-0.5-3.4-0.8-5
				c-0.3-1.6-0.5-3.1-0.8-4.7l-0.7-4.3c-0.2-1.2-0.4-2.5-0.6-3.7c-0.2-1-0.3-2-0.5-3.1c-0.1-0.8-0.2-1.5-0.4-2.3
				c-0.1-0.5-0.2-1-0.2-1.5c0-0.2,0-0.3-0.1-0.5l-2.2,0.3c0.1,0.8,0.1,1.6,0.2,2.3l0.5,5.3l0.7,7.7c0.3,3.1,0.6,6.2,0.8,9.3
				c0.3,3.4,0.6,6.8,0.9,10.2c0.3,3.5,0.6,6.9,0.9,10.3c0.3,3.3,0.6,6.5,0.9,9.8c0.3,2.8,2,20.4,2,21.2c0.2,0.9-0.2,1.7-0.9,2.2
				c-0.7,0.4-1.5,0.3-2-0.3c-0.3-0.4-0.6-0.8-0.7-1.3c-0.7-2.4-1.2-4.8-1.4-7.3c-0.3-2.4-0.7-4.9-1.1-7.3c-0.4-2.9-0.9-5.9-1.3-8.8
				l-1.5-9.8c-0.5-3.4-1-6.8-1.5-10.1c-0.5-3.3-1-6.5-1.5-9.8l-1.3-8.8c-0.4-2.4-0.7-4.7-1.1-7.1c-0.2-1.6-0.5-3.2-0.7-4.8
				c-0.1-0.6-0.2-1.2-0.3-1.7l-1.4,0.2c0,0,1.2,39.6,2.4,53.6c1.5,18.8,1.1,41.2,14.3,56.2c2.6,3,6,5.1,8.4,8.2
				c5.6,7.4,5.8,17.3,6.3,26.2c0.4,7.6,0.6,15.2,0.6,22.8c0,1.3,0,2.7,0,4l17-2.5c-3.3-9.7-6-19.5-8.3-29.4
				c-1.8-6.5-2.3-13.2-1.4-19.9C162.6,246.5,163.2,244.8,163.9,243.2"/>
			<path id="Path_21898" class="st21" d="M161.7,202.4c0.7,0.2,1.5-0.2,1.9-0.8c0.2-0.5,0.3-1,0.3-1.5c0-2.5-0.3-5-0.8-7.4
				c-0.4-2.4-0.7-4.9-1.1-7.3c-0.4-2.9-0.9-5.9-1.3-8.8l-1.5-9.8l-1.5-10.1l-1.5-9.8c-0.4-2.9-0.9-5.9-1.3-8.8l-1.1-7.1
				c-0.1-0.4-0.1-0.9-0.2-1.3c-0.9-3.2-1.4-5.1-1.4-5.1l-1.4,0.2c0.1,0.6,0.2,1.2,0.3,1.7c0.2,1.6,0.5,3.2,0.7,4.8l1.1,7.1l1.3,8.8
				l1.5,9.8l1.5,10.1l1.5,9.8l1.3,8.8c0.4,2.4,0.7,4.9,1.1,7.3c0.5,2.4,0.8,4.9,0.8,7.4c0,0.5-0.1,1-0.3,1.5
				c-0.1,0.1-0.2,0.3-0.3,0.4C161.4,202.3,161.5,202.4,161.7,202.4"/>
			<path id="Path_21899" class="st21" d="M151.4,204.6c1.1-0.4,1.7-1.5,1.5-2.6c-0.1-0.4-0.1-0.9-0.2-1.3c-0.1-0.7-0.2-1.4-0.3-2.2
				l-0.4-2.9l-0.5-3.6c-0.2-1.4-0.4-2.8-0.6-4.2l-0.6-4.6l-0.7-5l-0.7-5.3l-0.8-5.4c-0.3-1.8-0.5-3.7-0.8-5.5s-0.5-3.6-0.8-5.4
				c-0.2-1.8-0.5-3.5-0.7-5.3l-0.7-5.1c-0.2-1.6-0.4-3.1-0.7-4.7c-0.2-1.4-0.4-2.8-0.6-4.3l-0.5-3.7c-0.1-1-0.3-2-0.4-3.1l-0.3-2.3
				l-0.2-1.5c0-0.2,0-0.3-0.1-0.5l-2,0.3c0,0.2,0,0.3,0.1,0.5l0.2,1.5l0.3,2.3c0.1,1,0.3,2,0.4,3.1c0.2,1.2,0.3,2.5,0.5,3.7l0.6,4.3
				c0.2,1.6,0.4,3.1,0.7,4.7c0.2,1.7,0.5,3.4,0.7,5.1l0.7,5.3l0.8,5.4l0.8,5.5c0.3,1.8,0.5,3.6,0.8,5.4c0.2,1.8,0.5,3.5,0.7,5.3
				l0.7,5l0.6,4.6c0.2,1.4,0.4,2.8,0.6,4.2c0.2,1.2,0.3,2.4,0.5,3.6c0.1,1,0.3,2,0.4,2.9c0.1,0.7,0.2,1.4,0.3,2.2l0.2,1.3
				c0.2,0.7,0,1.5-0.6,2C150.7,204.5,151,204.6,151.4,204.6"/>
			<path id="Path_21900" class="st21" d="M140.9,205.6c0.7-0.5,1.1-1.4,0.9-2.2c0-0.8-1.7-18.3-2-21.2c-0.3-3.3-0.6-6.5-0.9-9.8
				c-0.3-3.4-0.6-6.9-0.9-10.4l-0.9-10.2l-0.9-9.3c-0.2-2.6-0.5-5.1-0.7-7.7l-0.5-5.3c-0.1-0.8-0.1-1.5-0.2-2.3l-2,0.3
				c0.1,0.8,0.1,1.6,0.2,2.3l0.5,5.3l0.7,7.7c0.3,3.1,0.6,6.2,0.8,9.3l0.9,10.2c0.3,3.5,0.6,6.9,0.9,10.3c0.3,3.3,0.6,6.5,0.9,9.8
				c0.3,2.8,2,20.4,2,21.2c0.1,0.7-0.1,1.4-0.6,2C139.8,205.9,140.4,205.9,140.9,205.6"/>
			<path id="Path_21901" class="st21" d="M156.5,272.9c-0.5-8.9-0.7-18.8-6.3-26.2c-2.4-3.2-5.8-5.3-8.4-8.2
				c-13.1-15.1-12.7-37.4-14.3-56.2c-0.9-10.9-1.8-37.1-2.2-48.3l-0.5-3.5c-0.1-0.6-0.2-1.2-0.3-1.7l-1.4,0.2c0,0,1.2,39.6,2.4,53.6
				c1.5,18.8,1.1,41.2,14.3,56.2c2.6,3,6,5.1,8.4,8.2c5.6,7.4,5.8,17.3,6.3,26.2c0.4,7.6,0.6,15.2,0.6,22.8c0,1.3,0,2.7,0,4l2-0.3
				c0-1.3,0-2.7,0-4C157.1,288.1,156.9,280.5,156.5,272.9"/>
			<path id="Path_21902" class="st21" d="M155,296.7c0,2.1,0,3.4,0,3.4l17-2.5c0,0-0.4-1.2-1-3.2L155,296.7z"/>
			<path id="Path_21903" class="st9" d="M185.8,386l-18,2.7c-1.4,0.2-8.4,0.1-8.6-1.4l-7.1-85.4c-0.2-1.4,0.8-2.8,2.2-3l18-2.7
				c1.4-0.2,2.8,0.8,3,2.2l19.5,83.5C195,383.4,187.3,385.8,185.8,386"/>
			<path id="Path_21904" class="st10" d="M164.4,386.6l-7.1-85.4c-0.2-1.4,0.8-2.8,2.2-3l-5.2,0.8c-1.4,0.2-2.4,1.6-2.2,3l7.1,85.4
				c0.2,1.4,7.2,1.6,8.6,1.4l5.2-0.8C171.6,388.1,164.6,388,164.4,386.6"/>
			<path id="Path_21905" class="st20" d="M259.6,256.2c2.6-2.1,5.1-4.2,7.4-6.6c13.5-14.7,13.7-37.1,15.7-55.9
				c1.5-14,3.7-53.5,3.7-53.5l-1.4-0.2c-0.1,0.6-0.2,1.2-0.3,1.7l-0.8,4.8c-0.4,2.4-0.8,4.7-1.3,7.1c-0.5,2.9-1,5.8-1.5,8.8
				c-0.6,3.2-1.2,6.5-1.7,9.8l-1.8,10.1c-0.6,3.2-1.1,6.5-1.7,9.7c-0.5,2.9-1,5.8-1.5,8.8c-0.4,2.4-0.9,4.9-1.3,7.3
				c-0.3,2.5-0.8,4.9-1.6,7.3c-0.1,0.5-0.4,0.9-0.7,1.3c-0.5,0.5-1.4,0.6-2,0.2c-0.7-0.5-1.1-1.4-0.9-2.3c0.1-0.8,2.2-18.3,2.5-21.1
				l1.1-9.8c0.4-3.4,0.8-6.9,1.2-10.3c0.4-3.4,0.8-6.8,1.2-10.2c0.4-3.1,0.7-6.2,1.1-9.3l0.9-7.7l0.6-5.3c0.1-0.8,0.2-1.5,0.3-2.3
				l-2.2-0.4l-0.1,0.5l-0.3,1.5c-0.1,0.8-0.3,1.5-0.4,2.3c-0.2,1-0.4,2-0.6,3c-0.2,1.2-0.5,2.5-0.7,3.7c-0.3,1.4-0.5,2.8-0.8,4.2
				c-0.3,1.6-0.6,3.1-0.9,4.7c-0.3,1.7-0.6,3.3-0.9,5c-0.3,1.8-0.7,3.5-1,5.3c-0.3,1.8-0.7,3.6-1,5.4c-0.3,1.8-0.7,3.6-1,5.4
				c-0.3,1.8-0.7,3.6-1,5.4c-0.3,1.7-0.7,3.5-1,5.2c-0.3,1.7-0.6,3.3-0.9,5c-0.3,1.5-0.6,3.1-0.9,4.6c-0.3,1.4-0.5,2.8-0.8,4.1
				c-0.2,1.2-0.4,2.4-0.7,3.6c-0.2,1-0.4,1.9-0.5,2.9l-0.4,2.1c-0.1,0.4-0.2,0.9-0.2,1.3c0.1,1.1-0.7,2-1.8,2.1
				c-1.1,0.1-2-0.7-2.1-1.8c0-0.3,0-0.6,0.2-0.9l0.2-1.3l0.4-2.2l0.5-2.9c0.2-1.2,0.4-2.4,0.6-3.6l0.7-4.2c0.3-1.5,0.5-3.1,0.8-4.6
				l0.8-5l0.9-5.2c0.3-1.8,0.6-3.6,0.9-5.4c0.3-1.8,0.6-3.6,0.9-5.5c0.3-1.8,0.6-3.6,0.9-5.4l0.9-5.3l0.8-5c0.3-1.6,0.5-3.1,0.8-4.7
				c0.2-1.4,0.5-2.8,0.7-4.3l0.6-3.7c0.2-1,0.3-2,0.5-3.1c0.1-0.8,0.3-1.5,0.4-2.3c0.1-0.5,0.2-1,0.2-1.5c0-0.2,0.1-0.3,0.1-0.5
				l-2.2-0.4c-0.2,0.8-0.4,1.5-0.5,2.3c-0.4,1.7-0.8,3.5-1.2,5.2l-1.8,7.5c-0.7,3-1.4,6-2.2,9.1c-0.8,3.3-1.6,6.6-2.4,9.9
				c-0.8,3.4-1.6,6.7-2.4,10.1l-2.3,9.6c-0.7,2.8-4.6,20-4.8,20.7c-0.1,0.9-0.8,1.6-1.6,1.8c-0.7,0.2-1.5-0.2-1.8-0.9
				c-0.2-0.5-0.3-1-0.2-1.5c0.1-2.5,0.4-5,1-7.4c0.5-2.4,0.8-4.9,1.3-7.3c0.5-2.9,1-5.8,1.5-8.8c0.6-3.2,1.1-6.5,1.7-9.7
				c0.6-3.4,1.2-6.7,1.8-10.1c0.6-3.2,1.2-6.5,1.7-9.8c0.5-2.9,1-5.8,1.5-8.8c0.4-2.4,0.8-4.7,1.3-7.1c0.3-1.6,0.6-3.2,0.8-4.7
				l0.3-1.7l-1.4-0.2c0,0-11.5,37.9-14.8,51.6c-4.5,18.3-12,39.4-4.4,57.8c1.4,3,3,5.9,4.7,8.7c0.8,2.4,1.5,4.9,2,7.4
				c0,0.4,0,0.8,0,1.3l0,0l0,0c0,12.4-11.8,45.5-11.8,45.5l16.9,3c0,0,0.2-35.1,4.5-46.8h0c0,0,0,0,0-0.1c0.1-0.2,0.2-0.5,0.3-0.7
				C256.4,260.5,257.9,258.3,259.6,256.2"/>
			<path id="Path_21906" class="st20" d="M259.8,256.4c3.8-3.4,7.3-7.1,10.6-11c2.9-4.2,5.1-8.9,6.6-13.8c2.8-10.1,4.5-20.5,5-30.9
				c0.2-2.3,0.4-4.6,0.7-6.9c1.5-14,3.7-53.5,3.7-53.5l-1.4-0.2c-0.1,0.6-0.2,1.2-0.3,1.7l-0.9,4.7l-1.3,7.1l-1.5,8.8
				c-0.6,3.2-1.1,6.5-1.7,9.8c-0.6,3.4-1.2,6.7-1.8,10.1c-0.6,3.2-1.1,6.5-1.7,9.7c-0.5,2.9-1,5.8-1.5,8.8c-0.4,2.4-0.9,4.9-1.3,7.3
				c-0.3,2.5-0.9,4.9-1.6,7.3c-0.1,0.5-0.4,0.9-0.7,1.3c-0.5,0.5-1.4,0.6-2,0.2c-0.7-0.5-1.1-1.4-0.9-2.3c0.1-0.8,2.2-18.3,2.5-21.1
				l1.1-9.8c0.4-3.4,0.8-6.9,1.2-10.3c0.4-3.4,0.8-6.8,1.2-10.2l1.1-9.3l0.9-7.7c0.2-1.8,0.4-3.6,0.6-5.3c0.1-0.8,0.2-1.5,0.3-2.3
				l-2.2-0.4l-0.1,0.5l-0.3,1.5c-0.1,0.8-0.3,1.5-0.4,2.3c-0.2,1-0.4,2-0.6,3c-0.2,1.2-0.5,2.5-0.7,3.7c-0.3,1.4-0.5,2.8-0.8,4.2
				c-0.3,1.6-0.6,3.1-0.9,4.7l-0.9,5c-0.3,1.8-0.7,3.5-1,5.3l-1,5.4c-0.3,1.8-0.7,3.6-1,5.4l-1,5.4c-0.3,1.7-0.7,3.5-1,5.2
				c-0.3,1.7-0.6,3.3-0.9,5c-0.3,1.5-0.6,3.1-0.9,4.6c-0.3,1.4-0.5,2.8-0.8,4.1c-0.2,1.2-0.4,2.4-0.7,3.6c-0.2,1-0.4,1.9-0.5,2.9
				l-0.4,2.1l-0.2,1.3c0.1,1.1-0.7,2-1.8,2.1c-1.1,0.1-2-0.7-2.1-1.8c0-0.3,0-0.6,0.2-0.9l0.2-1.3l0.4-2.2c0.2-1,0.3-2,0.5-2.9
				l0.6-3.6c0.2-1.4,0.5-2.8,0.7-4.2l0.8-4.6l0.8-5l0.9-5.2l0.9-5.4c0.3-1.8,0.6-3.6,0.9-5.5s0.6-3.6,0.9-5.4
				c0.3-1.8,0.6-3.5,0.9-5.3l0.8-5c0.3-1.6,0.5-3.1,0.8-4.7c0.2-1.4,0.5-2.8,0.7-4.3c0.2-1.2,0.4-2.5,0.6-3.7c0.2-1,0.3-2,0.5-3.1
				l0.4-2.3c0.1-0.5,0.2-1,0.2-1.5l0.1-0.5l-2.2-0.4l-0.5,2.3c-0.4,1.7-0.8,3.5-1.2,5.2c-0.6,2.5-1.2,5-1.8,7.5
				c-0.7,3-1.4,6-2.2,9.1l-2.4,9.9c-0.8,3.4-1.6,6.7-2.4,10.1l-2.3,9.6c-0.7,2.8-4.6,20-4.8,20.7c-0.1,0.9-0.8,1.6-1.6,1.8
				c-0.7,0.2-1.5-0.2-1.8-0.9c-0.2-0.5-0.3-1-0.2-1.5c0.1-2.5,0.4-5,1-7.4c0.5-2.4,0.8-4.9,1.3-7.3c0.5-2.9,1-5.8,1.5-8.8
				c0.6-3.2,1.1-6.5,1.7-9.7c0.6-3.4,1.2-6.7,1.8-10.1c0.6-3.2,1.1-6.5,1.7-9.8c0.5-2.9,1-5.8,1.5-8.8c0.4-2.4,0.8-4.7,1.3-7.1
				l0.8-4.7c0.1-0.6,0.2-1.2,0.3-1.7l-1.4-0.2c0,0-11.5,37.9-14.8,51.6c-4.5,18.3-12,39.4-4.4,57.8c1.5,3.7,4,6.7,5.3,10.5
				c3,8.8,0,18.2-2.3,26.8c-2,7.4-4.3,14.6-6.7,21.8c-0.4,1.3-0.9,2.6-1.3,3.8l16.9,3c0-10.2,0.5-20.4,1.5-30.6
				c0.3-6.7,2-13.3,5-19.3C257.6,259.1,258.6,257.7,259.8,256.4"/>
			<path id="Path_21907" class="st21" d="M270.7,217.1c0.6,0.4,1.5,0.3,2-0.2c0.3-0.4,0.6-0.8,0.7-1.3c0.7-2.4,1.3-4.8,1.6-7.3
				c0.4-2.4,0.9-4.9,1.3-7.3c0.5-2.9,1-5.8,1.5-8.8c0.6-3.2,1.1-6.5,1.7-9.7c0.6-3.4,1.2-6.7,1.8-10.1c0.6-3.3,1.2-6.5,1.7-9.8
				c0.5-2.9,1-5.8,1.5-8.8c0.4-2.4,0.8-4.7,1.3-7.1c0.1-0.4,0.1-0.8,0.2-1.3c0.2-3.3,0.3-5.3,0.3-5.3l-1.4-0.2
				c-0.1,0.6-0.2,1.2-0.3,1.7l-0.8,4.7l-1.3,7.1l-1.5,8.8c-0.6,3.3-1.1,6.5-1.7,9.8c-0.6,3.4-1.2,6.7-1.8,10.1
				c-0.6,3.2-1.1,6.5-1.7,9.7c-0.5,2.9-1,5.8-1.5,8.8c-0.4,2.4-0.9,4.9-1.3,7.3c-0.3,2.5-0.9,4.9-1.6,7.3c-0.1,0.5-0.4,0.9-0.7,1.3
				c-0.1,0.1-0.2,0.2-0.4,0.3C270.5,216.9,270.6,217,270.7,217.1"/>
			<path id="Path_21908" class="st21" d="M260.3,215.8c1.2,0,2.1-0.9,2.3-2c0.1-0.4,0.2-0.9,0.2-1.3l0.4-2.1c0.2-1,0.4-1.9,0.5-2.9
				c0.2-1.2,0.4-2.4,0.7-3.6c0.3-1.4,0.5-2.8,0.8-4.1l0.9-4.6c0.3-1.7,0.6-3.3,0.9-5c0.3-1.7,0.7-3.5,1-5.2c0.3-1.8,0.7-3.6,1-5.4
				c0.3-1.8,0.7-3.6,1-5.4c0.3-1.8,0.7-3.6,1-5.4c0.3-1.8,0.7-3.5,1-5.3c0.3-1.7,0.6-3.4,0.9-5c0.3-1.6,0.6-3.1,0.9-4.7l0.8-4.2
				c0.2-1.2,0.5-2.5,0.7-3.7c0.2-1,0.4-2,0.6-3c0.1-0.8,0.3-1.5,0.4-2.3l0.3-1.5l0.1-0.5l-2-0.4l-0.1,0.5c-0.1,0.5-0.2,1-0.3,1.5
				c-0.1,0.8-0.3,1.5-0.4,2.3c-0.2,1-0.4,2-0.6,3c-0.2,1.2-0.5,2.5-0.7,3.7c-0.3,1.4-0.5,2.8-0.8,4.2c-0.3,1.6-0.6,3.1-0.9,4.7
				l-0.9,5c-0.3,1.8-0.7,3.5-1,5.3l-1,5.4c-0.3,1.8-0.7,3.6-1,5.4l-1,5.4c-0.3,1.7-0.7,3.5-1,5.2c-0.3,1.7-0.6,3.3-0.9,5
				c-0.3,1.5-0.6,3.1-0.9,4.6c-0.3,1.4-0.5,2.8-0.8,4.1c-0.2,1.2-0.4,2.4-0.7,3.6c-0.2,1-0.4,1.9-0.5,2.9l-0.4,2.2l-0.2,1.3
				c-0.1,0.7-0.5,1.4-1.2,1.8C259.6,215.5,259.9,215.7,260.3,215.8"/>
			<path id="Path_21909" class="st21" d="M250,213.4c0.8-0.2,1.5-1,1.6-1.8c0.2-0.7,4.2-17.9,4.8-20.7c0.8-3.2,1.5-6.4,2.3-9.6
				c0.8-3.4,1.6-6.7,2.4-10.1c0.8-3.3,1.6-6.6,2.4-9.9c0.7-3,1.4-6,2.2-9.1l1.8-7.5c0.4-1.7,0.8-3.5,1.2-5.2
				c0.2-0.7,0.4-1.5,0.5-2.3l-2-0.4l-0.5,2.3c-0.4,1.7-0.8,3.5-1.2,5.2l-1.8,7.5c-0.7,3-1.4,6-2.2,9.1c-0.8,3.3-1.6,6.6-2.4,9.9
				c-0.8,3.4-1.6,6.7-2.4,10.1l-2.3,9.6c-0.7,2.8-4.6,20-4.8,20.7c-0.1,0.7-0.6,1.3-1.2,1.7C248.9,213.3,249.5,213.5,250,213.4"/>
			<path id="Path_21910" class="st21" d="M243.4,282.2c2.3-8.6,5.3-18,2.3-26.8c-1.3-3.8-3.8-6.8-5.3-10.5
				c-7.6-18.5-0.1-39.5,4.4-57.8c2.6-10.6,10.1-35.7,13.3-46.5c0.2-1.2,0.4-2.3,0.6-3.5c0.1-0.6,0.2-1.2,0.3-1.7l-1.4-0.2
				c0,0-11.5,37.9-14.8,51.6c-4.5,18.3-12,39.4-4.4,57.8c1.5,3.7,4,6.7,5.3,10.5c3,8.8,0,18.2-2.3,26.8c-2,7.4-4.3,14.6-6.7,21.8
				c-0.4,1.3-0.9,2.6-1.3,3.8l2,0.4c0.4-1.3,0.9-2.5,1.3-3.8C239.1,296.8,241.4,289.5,243.4,282.2"/>
			<path id="Path_21911" class="st21" d="M234.4,304.3c-0.7,2-1.1,3.2-1.1,3.2l16.9,3c0,0,0-1.3,0.1-3.4L234.4,304.3z"/>
			<path id="Path_21912" class="st9" d="M235.2,398.7l-17.9-3.2c-1.4-0.3-8-2.6-7.7-4l20.5-83.2c0.3-1.4,1.6-2.4,3-2.1l17.9,3.2
				c1.4,0.3,2.4,1.6,2.1,3l-8.1,85.4C244.7,399.2,236.6,399,235.2,398.7"/>
			<path id="Path_21913" class="st10" d="M214.7,392.5l20.5-83.2c0.3-1.4,1.6-2.4,3-2.1l-5.2-0.9c-1.4-0.2-2.8,0.7-3,2.1l-20.5,83.2
				c-0.3,1.4,6.3,3.8,7.7,4l5.2,0.9C221,396.2,214.5,393.9,214.7,392.5"/>
			<path id="Path_21914" class="st22" d="M139.9,315.6v157c0.4,4.3,4.2,7.4,8.4,7.1h108.3c4.3,0.3,8-2.8,8.4-7.1v-157H139.9z"/>
			<path id="Path_21915" class="st23" d="M254.4,315.6v157c-0.4,4.3-4.2,7.4-8.4,7.1h10.6c4.3,0.3,8-2.8,8.4-7.1v-157H254.4z"/>
			<path id="Path_21916" class="st24" d="M171.7,472.6v-157h-31.9v157c0.4,4.3,4.2,7.4,8.4,7.1h31.9
				C175.9,480,172.2,476.8,171.7,472.6"/>
		</g>
	</g>
</g>
</svg>
