<svg xmlns="http://www.w3.org/2000/svg" viewBox="0 0 20 20" fill="currentColor">
	<path d="M10,4.4c-1.2,0-2.2-1-2.2-2.2S8.8,0,10,0s2.2,1,2.2,2.2C12.2,3.4,11.2,4.4,10,4.4z"/>
	<path d="M16.9,4.4L16.9,4.4L16.9,4.4L16.9,4.4c-0.1,0-0.1,0-0.2,0C16,4.7,12.5,5.7,10,5.7c-2.3,0-5.5-0.9-6.5-1.2
		c-0.1,0-0.2-0.1-0.3-0.1C2.4,4.2,1.9,5,1.9,5.7c0,0.7,0.6,1,1.2,1.2v0l3.7,1.2c0.4,0.1,0.5,0.3,0.5,0.4c0.2,0.4,0,1.2,0,1.5
		l-0.2,1.8l-1.3,6.9c0,0,0,0,0,0.1l0,0l0,0C5.8,19.4,6.2,20,7.1,20c0.8,0,1.1-0.5,1.2-1.2l0,0c0,0,1.1-6.2,1.6-6.2
		c0.5,0,1.7,6.2,1.7,6.2l0,0c0.1,0.7,0.5,1.2,1.2,1.2c0.9,0,1.3-0.6,1.2-1.2c0-0.1,0-0.1,0-0.2l-1.3-6.8L12.6,10c-0.2-1,0-1.4,0-1.4
		c0,0,0,0,0,0c0-0.1,0.2-0.3,0.7-0.4l3.5-1.2c0,0,0,0,0.1,0c0.6-0.2,1.2-0.6,1.2-1.2S17.6,4.2,16.9,4.4z"/>
</svg>
