<svg xmlns="http://www.w3.org/2000/svg" viewBox="0 0 20 20">
	<path d="M10,2.7c0.4,0,0.7-0.3,0.7-0.7V0.7C10.7,0.3,10.4,0,10,0S9.3,0.3,9.3,0.7V2C9.3,2.4,9.6,2.7,10,2.7z"/>
	<path d="M5.1,3.5c0.1,0.2,0.3,0.3,0.6,0.3c0.1,0,0.2,0,0.3-0.1c0.3-0.2,0.4-0.6,0.3-0.9L5.6,1.7C5.4,1.3,5,1.3,4.7,1.4
		C4.3,1.6,4.3,2,4.4,2.3L5.1,3.5z"/>
	<path d="M2.5,7c0.2,0,0.5-0.1,0.6-0.3c0.2-0.3,0.1-0.7-0.3-0.9L1.7,5.1C1.3,4.9,0.9,5,0.7,5.3C0.6,5.7,0.7,6.1,1,6.3l1.1,0.7
		C2.3,7,2.4,7,2.5,7z"/>
	<path d="M19.3,5.3c-0.2-0.3-0.6-0.4-0.9-0.3l-1.1,0.7c-0.3,0.2-0.4,0.6-0.3,0.9C17.1,6.9,17.3,7,17.5,7c0.1,0,0.2,0,0.3-0.1L19,6.3
		C19.3,6.1,19.4,5.7,19.3,5.3z"/>
	<path d="M14,3.7c0.1,0.1,0.2,0.1,0.3,0.1c0.2,0,0.5-0.1,0.6-0.3l0.7-1.1c0.1-0.3,0.1-0.7-0.3-0.9c-0.3-0.2-0.7-0.1-0.9,0.3l-0.7,1.1
		C13.6,3.1,13.7,3.5,14,3.7z"/>
	<path d="M17.5,15.3h-0.8H3.3H2.5c-0.2,0-0.4,0.1-0.5,0.3c-0.9,1.3-0.9,2.9,0,4.1C2.1,19.9,2.3,20,2.5,20h14.9
		c0.2,0,0.4-0.1,0.5-0.3c0.9-1.3,0.9-2.9,0-4.1C17.9,15.5,17.7,15.3,17.5,15.3z"/>
	<path d="M16.7,14v-3.2c0-3.7-3-6.8-6.7-6.8s-6.7,3.1-6.7,6.8V14H16.7z M10.7,7.2c0.1-0.3,0.5-0.5,0.9-0.3c1,0.4,1.8,1.2,2.3,2.2
		c0.1,0.3,0,0.7-0.3,0.9C13.5,10,13.3,10,13.3,10c-0.3,0-0.5-0.1-0.6-0.4c-0.3-0.7-0.9-1.3-1.6-1.5C10.7,7.9,10.6,7.5,10.7,7.2z"/>
</svg>
