<svg xmlns="http://www.w3.org/2000/svg" viewBox="0 0 20 20" fill="currentColor">
    <path d="M10,0C4.5,0,0,4.5,0,10c0,5.5,4.5,10,10,10s10-4.5,10-10C20,4.5,15.5,0,10,0z M15,11.5c0.3,0.2,0.5,0.4,0.6,0.7
        c0.1,0.3,0,0.6-0.1,0.9c-0.2,0.4-0.6,0.6-1,0.6c-0.2,0-0.4-0.1-0.6-0.2l-2.6-1.5v3c0,0.7-0.5,1.2-1.2,1.2s-1.2-0.5-1.2-1.2v-3
        l-2.6,1.5c-0.2,0.1-0.4,0.2-0.6,0.2c-0.4,0-0.8-0.2-1-0.6c-0.2-0.3-0.2-0.6-0.1-0.9c0.1-0.3,0.3-0.6,0.6-0.7L7.6,10L5,8.5
        C4.7,8.3,4.5,8.1,4.4,7.8s0-0.6,0.1-0.9C4.7,6.6,5,6.4,5.3,6.3c0.3-0.1,0.6,0,0.9,0.1l2.6,1.5v-3c0-0.7,0.5-1.2,1.2-1.2
        s1.2,0.5,1.2,1.2v3l2.6-1.5c0.3-0.2,0.6-0.2,0.9-0.1c0.3,0.1,0.6,0.3,0.7,0.6c0.2,0.3,0.2,0.6,0.1,0.9c-0.1,0.3-0.3,0.6-0.6,0.7
        L12.4,10L15,11.5z"/>
</svg>
