<svg xmlns="http://www.w3.org/2000/svg" viewBox="0 0 20 20" fill="currentColor">
    <path fill-rule="evenodd" clip-rule="evenodd" d="M1.8,7.3H0v11.8C0,19.6,0.4,20,0.9,20h10v-1.8v-1.3v-5.1c0-0.5,0.4-0.9,0.9-0.9h5.1h1.3H20V7.3h-1.8H1.8z"></path>
    <polygon fill-rule="evenodd" clip-rule="evenodd" points="16.9,12.7 12.7,12.7 12.7,16.9 12.7,19.5 19.5,12.7"></polygon>
    <path fill-rule="evenodd" clip-rule="evenodd" d="M19.1,1.8h-5.2V0.9C13.9,0.4,13.5,0,13,0c-0.5,0-0.9,0.4-0.9,0.9v0.9H7.9V0.9C7.9,0.4,7.5,0,7,0 S6.1,0.4,6.1,0.9v0.9H0.9C0.4,1.8,0,2.2,0,2.7v2.7h1.8h16.4H20V2.7C20,2.2,19.6,1.8,19.1,1.8z"></path>
</svg>