<svg xmlns="http://www.w3.org/2000/svg" viewBox="0 0 20 20" fill="currentColor">
    <path fill-rule="evenodd" clip-rule="evenodd" d="M18.6,5.7H14l-0.5-1.4c0-0.8-0.6-1.4-1.4-1.4H7.9c-0.8,0-1.4,0.6-1.4,1.4L5.9,5.7H1.4C0.6,5.7,0,6.4,0,7.1v8.6c0,0.8,0.6,1.4,1.4,1.4h17.1c0.8,0,1.4-0.6,1.4-1.4V7.1C20,6.4,19.4,5.7,18.6,5.7z M10,15.7c-2.4,0-4.3-1.9-4.3-4.3S7.6,7.1,10,7.1s4.3,1.9,4.3,4.3C14.3,13.8,12.4,15.7,10,15.7z M18.6,8.6c0,0.4-0.3,0.7-0.7,0.7h-0.7c-0.4,0-0.7-0.3-0.7-0.7V7.9c0-0.4,0.3-0.7,0.7-0.7h0.7c0.4,0,0.7,0.3,0.7,0.7V8.6z"></path>
</svg>