<svg xmlns="http://www.w3.org/2000/svg" viewBox="0 0 20 20" fill="currentColor">
<path d="M20,12c-0.1-2.2-1.9-4.1-4.1-4.2c-1.7-0.1-3.4,0.8-4.2,2.4c-0.1,0.2-0.3,0.4-0.6,0.5c0,0-0.1,0-0.1,0
	c0.1-0.6,0.2-1.3,0.4-1.9c0.1-0.2,0.3-0.4,0.5-0.6c1.6-0.8,2.5-2.4,2.4-4.2c-0.1-2.2-2-4-4.2-4.1C9,0,7.8,0.4,7,1.2
	c-0.9,0.8-1.3,2-1.3,3.2C5.6,6,6.5,7.5,8,8.3c0.2,0.1,0.4,0.3,0.5,0.5c0.2,0.6,0.4,1.3,0.5,1.9c0,0-0.1,0-0.1,0
	c-0.2-0.1-0.4-0.3-0.6-0.5C7.5,8.7,5.9,7.7,4.1,7.8c-2.2,0.1-4,2-4.1,4.2c0,1.2,0.4,2.3,1.2,3.2c0.8,0.9,2,1.3,3.2,1.3
	c1.6,0,3.1-0.9,3.9-2.4c0.1-0.2,0.3-0.4,0.6-0.5c0,0,0.1,0,0.1,0c-0.3,2.2-1.3,4.2-2.8,5.8c-0.1,0.1-0.1,0.2-0.1,0.3
	c0,0.1,0.2,0.2,0.3,0.2h1.1h5h1.1c0.1,0,0.2-0.1,0.3-0.2c0-0.1,0-0.2-0.1-0.3c-1.5-1.6-2.5-3.7-2.8-5.8c0,0,0.1,0,0.1,0
	c0.2,0.1,0.4,0.3,0.6,0.5c0.8,1.5,2.2,2.4,3.9,2.4c1.2,0,2.3-0.5,3.2-1.3C19.6,14.4,20,13.2,20,12z"/>
</svg>
