<svg xmlns="http://www.w3.org/2000/svg" viewBox="0 0 20 20" fill="currentColor">
    <path d="M10,0C4.5,0,0,4.5,0,10s4.5,10,10,10s10-4.5,10-10S15.5,0,10,0z M10,16.1c-3.4,0-6.1-2.8-6.1-6.1S6.6,3.9,10,3.9
        s6.1,2.8,6.1,6.1S13.4,16.1,10,16.1z M12.3,11.4l1.2,1.2l-0.6,0.5c-0.8,0.7-1.8,1.1-2.8,1.1c-2.3,0-4.2-1.9-4.2-4.1
        c0-2.3,1.9-4.1,4.2-4.1c1,0,2,0.4,2.8,1.1l0.6,0.5l-1.2,1.2l-0.5-0.5c-0.5-0.4-1.1-0.6-1.7-0.6c-1.4,0-2.5,1.1-2.5,2.4
        c0,1.4,1.1,2.5,2.5,2.5c0.6,0,1.2-0.2,1.7-0.6L12.3,11.4z"/>
</svg>
