<svg xmlns="http://www.w3.org/2000/svg" viewBox="0 0 20 20" fill="currentColor">
    <path fill-rule="evenodd" clip-rule="evenodd" d="M19.9,6.2l0-0.2l0,0c-0.5-2.4-2.9-4-5.3-3.4c-2.4,0.5-4,2.9-3.4,5.3c0.4,2.1,2.3,3.5,4.4,3.5c0.2,0,0.4,0,0.6-0.1c-0.1,0.2-0.1,0.5-0.3,0.7c-0.1,0.3-0.3,0.6-0.5,0.8c-0.1,0.3-0.4,0.5-0.6,0.7c-0.2,0.2-0.5,0.4-0.7,0.6c-0.2,0.2-0.5,0.3-0.7,0.5c-0.2,0.1-0.4,0.3-0.6,0.3l-0.5,0.2l-0.5,0.2l0.5,1.9l0.6-0.1c0.2,0,0.4-0.1,0.7-0.2c0.3,0,0.6-0.2,0.9-0.3c0.3-0.1,0.7-0.2,1-0.5c0.3-0.2,0.7-0.4,1.1-0.7c0.3-0.3,0.7-0.6,1-0.9c0.3-0.4,0.7-0.7,0.9-1.2c0.3-0.4,0.5-0.9,0.7-1.3c0.2-0.4,0.3-0.9,0.5-1.3c0.2-0.9,0.3-1.7,0.4-2.4c0-0.7,0-1.3,0-1.7C19.9,6.6,19.9,6.4,19.9,6.2z M8.9,6.2l0-0.2l0,0C8.4,3.7,6,2.1,3.5,2.6C1.1,3.2-0.4,5.5,0.1,8c0.4,2.1,2.3,3.5,4.4,3.5c0.2,0,0.4,0,0.6-0.1c-0.1,0.2-0.1,0.5-0.3,0.7c-0.1,0.3-0.3,0.6-0.5,0.8c-0.1,0.3-0.4,0.5-0.6,0.7c-0.2,0.2-0.5,0.4-0.7,0.6c-0.2,0.2-0.5,0.3-0.7,0.5C2.2,14.9,2,15,1.8,15.1l-0.5,0.2c-0.3,0.1-0.5,0.2-0.5,0.2l0.5,1.9l0.6-0.1c0.2,0,0.4-0.1,0.7-0.2c0.3,0,0.6-0.2,0.9-0.3c0.3-0.1,0.7-0.2,1-0.5c0.3-0.2,0.7-0.4,1.1-0.7c0.3-0.3,0.7-0.6,1-0.9c0.3-0.4,0.7-0.7,0.9-1.2c0.3-0.4,0.5-0.9,0.7-1.3c0.2-0.4,0.3-0.9,0.5-1.3C8.9,10.1,9,9.2,9,8.5c0-0.7,0-1.3,0-1.7C9,6.6,9,6.4,8.9,6.2z"></path>
</svg>