<svg xmlns="http://www.w3.org/2000/svg" viewBox="0 0 20 20" fill="currentColor">
    <path fill-rule="evenodd" clip-rule="evenodd" d="M7.5,8.8c1.4-1.8,3.5-2.9,5.9-2.9c0.4,0,0.7,0,1.1,0.1V4.4c-1.1,1-3.9,1.7-7.2,1.7C4,6.1,1.2,5.4,0.1,4.4v2.1C0.6,8.7,7.4,8.8,7.5,8.8z"></path>
    <path fill-rule="evenodd" clip-rule="evenodd" d="M0.1,8.1l0,2.1c0.3,1.2,2.7,2.1,5.9,2.3c0.1-1,0.4-1.9,0.9-2.8C3.7,9.7,1.1,9,0.1,8.1z"></path>
    <path fill-rule="evenodd" clip-rule="evenodd" d="M0,11.8l0,2c0,0,0,0,0,0c0.1,1.3,2.8,2.3,6.4,2.5c-0.4-0.9-0.5-1.8-0.5-2.8v0C3.2,13.3,1,12.7,0,11.8z"></path>
    <path fill-rule="evenodd" clip-rule="evenodd" d="M6.9,17.3C3.7,17.2,1,16.5,0,15.5l0,1.9C0,18.8,3.3,20,7.3,20c0.8,0,1.5,0,2.2-0.1C8.4,19.2,7.5,18.3,6.9,17.3z"></path>
    <ellipse cx="7.3" cy="2.6" rx="7.2" ry="2.6"></ellipse>
    <path fill-rule="evenodd" clip-rule="evenodd" d="M13.4,6.9c-3.6,0-6.5,2.9-6.5,6.5S9.8,20,13.4,20s6.5-2.9,6.5-6.5S17,6.9,13.4,6.9z M14,17v0.4c0,0.3-0.3,0.6-0.6,0.6s-0.6-0.3-0.6-0.6V17c-0.3-0.1-0.7-0.3-0.9-0.6c-0.2-0.2-0.2-0.6,0-0.8c0.2-0.2,0.6-0.2,0.8,0c0.3,0.2,0.7,0.3,0.7,0.3c0.5,0,0.8-0.4,0.8-0.9c0-0.5-0.4-0.9-0.9-0.9c-1.1,0-2.1-0.9-2.1-2.1c0-0.9,0.6-1.7,1.5-2V9.6c0-0.3,0.3-0.6,0.6-0.6S14,9.2,14,9.6V10c0.3,0.1,0.7,0.3,0.9,0.6c0.2,0.2,0.2,0.6,0,0.8c-0.2,0.2-0.6,0.2-0.8,0c-0.2-0.3-0.7-0.3-0.7-0.3c-0.5,0-0.8,0.4-0.8,0.9c0,0.5,0.4,0.9,0.9,0.9c1.1,0,2.1,0.9,2.1,2.1C15.5,15.9,14.9,16.7,14,17z"></path>
</svg>