<svg xmlns="http://www.w3.org/2000/svg" viewBox="0 0 20 20" fill="currentColor">
	<path d="M18.5,4.4c-0.8,0-1.5,0.7-1.5,1.5c0,0.4,0.2,0.8,0.4,1.1l-3.1,3L11,4.8c0.5-0.3,0.9-0.9,0.9-1.6c0-1-0.8-1.8-1.8-1.8
		c-1,0-1.8,0.8-1.8,1.8c0,0.7,0.3,1.2,0.9,1.6L5.8,10L2.6,7c0.3-0.3,0.4-0.6,0.4-1.1c0-0.8-0.7-1.5-1.5-1.5S0,5.1,0,5.9
		c0,0.8,0.7,1.5,1.5,1.5c0.1,0,0.2,0,0.3,0l1.5,7h13.5l1.5-7c0.1,0,0.2,0,0.3,0c0.8,0,1.5-0.7,1.5-1.5C20,5.1,19.3,4.4,18.5,4.4z"/>
	<polygon points="16.6,15.3 3.4,15.3 2.6,18.6 17.4,18.6"/>
</svg>
