<svg xmlns="http://www.w3.org/2000/svg" viewBox="0 0 20 20" fill="currentColor">
    <path fill-rule="evenodd" clip-rule="evenodd" d="M3.1,0.6C3.1,0.3,3.4,0,3.8,0h12.5c0.3,0,0.6,0.3,0.6,0.6c0,0.7,0,1.3,0,1.9c2,0.3,3.4,2.3,3.1,4.3c-0.3,2-2.3,3.4-4.3,3.1c-0.1,0-0.1,0-0.2,0c-1,2.3-2.3,3.5-3.5,3.8v2.7l1.8,0.4c0.2,0.1,0.5,0.2,0.7,0.3l2.3,1.7c0.3,0.2,0.3,0.6,0.1,0.9c-0.1,0.2-0.3,0.2-0.5,0.2H3.8c-0.3,0-0.6-0.3-0.6-0.6c0-0.2,0.1-0.4,0.2-0.5l2.3-1.7c0.2-0.1,0.4-0.3,0.7-0.3l1.8-0.4v-2.7c-1.2-0.3-2.6-1.4-3.5-3.8c-2,0.4-4-0.8-4.5-2.9S0.9,3,3,2.6c0.1,0,0.1,0,0.2,0C3.1,1.9,3.1,1.3,3.1,0.6z M3.3,3.8C1.9,4,1,5.4,1.2,6.7s1.6,2.3,2.9,2C3.7,7.4,3.4,5.8,3.3,3.8z M15.9,8.7c1.4,0.2,2.7-0.7,2.9-2s-0.7-2.7-2-2.9C16.6,5.8,16.3,7.4,15.9,8.7z"></path>
</svg>