<svg xmlns="http://www.w3.org/2000/svg" viewBox="0 0 20 20" fill="currentColor">
<path d="M10,6.7H3.3C1.5,6.7,0,8.1,0,10v6.7C0,18.5,1.5,20,3.3,20H10c1.9,0,3.3-1.5,3.3-3.3V10C13.3,8.1,11.9,6.7,10,6.7z M4,9.3
	c0.7,0,1.3,0.6,1.3,1.3S4.7,12,4,12s-1.3-0.6-1.3-1.3S3.3,9.3,4,9.3z M4,17.3c-0.7,0-1.3-0.6-1.3-1.3s0.6-1.3,1.3-1.3
	s1.3,0.6,1.3,1.3S4.7,17.3,4,17.3z M6.7,14.7c-0.7,0-1.3-0.6-1.3-1.3S5.9,12,6.7,12S8,12.6,8,13.3S7.4,14.7,6.7,14.7z M9.3,17.3
	C8.6,17.3,8,16.7,8,16s0.6-1.3,1.3-1.3s1.3,0.6,1.3,1.3S10.1,17.3,9.3,17.3z M9.3,12C8.6,12,8,11.4,8,10.7s0.6-1.3,1.3-1.3
	s1.3,0.6,1.3,1.3S10.1,12,9.3,12z"/>
<path d="M16.7,0H10C8.1,0,6.7,1.5,6.7,3.3v2H10c2.6,0,4.7,2.1,4.7,4.7v3.3h2c1.9,0,3.3-1.5,3.3-3.3V3.3C20,1.5,18.5,0,16.7,0z
	 M16,5.3c-0.7,0-1.3-0.6-1.3-1.3s0.6-1.3,1.3-1.3s1.3,0.6,1.3,1.3S16.7,5.3,16,5.3z"/>
</svg>
