<svg xmlns="http://www.w3.org/2000/svg" viewBox="0 0 20 20" fill="currentColor">
	<path d="M19.1,17.2c-0.6-0.2-1.1-0.6-1.4-1.1c1.4-1,2.3-2.3,2.3-3.9c0-1.7-1.1-3.2-2.7-4.1c-0.2,4-4.5,6.9-9.3,6.9
				c-0.4,0-0.8,0-1.2-0.1c1.3,1.5,3.5,2.5,6.1,2.5c0.9,0,1.8-0.1,2.7-0.4c0.7,0.7,1.8,1,2.8,0.8c0.3-0.1,0.6-0.2,0.8-0.3
				c0.1,0,0.1-0.1,0.1-0.2C19.3,17.3,19.2,17.3,19.1,17.2z"/>
	<path d="M8,2C3.6,2,0,4.6,0,7.9c0,1.7,1,3.2,2.6,4.3c-0.4,0.6-1,1-1.7,1.3c-0.1,0-0.1,0.1-0.1,0.2s0,0.2,0.1,0.2
		c0.5,0.3,1.1,0.4,1.7,0.4c0.9,0,1.8-0.4,2.5-1c0.9,0.3,1.9,0.4,3,0.4c4.4,0,8-2.6,8-5.9C16,4.6,12.4,2,8,2z M8.5,11.4v0.3
		c0,0.3-0.3,0.5-0.6,0.5c-0.3,0-0.6-0.2-0.6-0.5v-0.2c-0.4,0-0.8-0.2-1.1-0.3c-0.5-0.3-0.8-0.7-0.8-1c0-0.1,0-0.1,0-0.2
		c0.1-0.3,0.3-0.6,0.6-0.6c0.1,0,0.2,0,0.2,0.1c0,0,0.1,0.1,0.1,0.1c0.1,0,0.1,0.1,0.1,0.1c0.2,0.2,0.4,0.4,0.8,0.5V8
		C6.6,7.8,5.9,7.4,5.7,6.5c0-0.2-0.1-0.4-0.1-0.6c0-0.7,0.3-1.3,0.8-1.6C6.7,4.2,7,4.1,7.3,4V3.9c0-0.3,0.3-0.5,0.6-0.5
		c0.3,0,0.6,0.3,0.6,0.5V4c0.6,0.1,1.4,0.3,1.4,0.9c0,0.3-0.2,0.7-0.6,0.7C9.1,5.6,9,5.5,8.9,5.5C8.8,5.4,8.6,5.4,8.5,5.3V7
		c0.7,0.3,1.6,0.8,1.6,2.2C10.1,10.4,9.5,11.1,8.5,11.4z"/>
	<path d="M6.8,5.9c0,0.3,0.1,0.5,0.4,0.7V5.4C6.8,5.5,6.8,5.8,6.8,5.9z"/>
	<path d="M8.3,8.5V10c0.2-0.1,0.3-0.4,0.3-0.7C8.7,8.9,8.6,8.7,8.3,8.5z"/>
</svg>
