<svg xmlns="http://www.w3.org/2000/svg" viewBox="0 0 20 20" fill="currentColor">
    <path fill-rule="evenodd" clip-rule="evenodd" d="M6.7,19.5c-0.4,0-0.9-0.2-1.2-0.5l-5-5c-0.7-0.7-0.7-1.7,0-2.4c0.7-0.7,1.7-0.7,2.4,0l3.8,3.8L17.2,5c0.7-0.7,1.7-0.7,2.4,0c0.7,0.7,0.7,1.7,0,2.4L7.8,19.1C7.5,19.4,7.1,19.5,6.7,19.5z"></path>
    <path fill-rule="evenodd" clip-rule="evenodd" d="M6.6,11.3c-0.3,0-0.6-0.1-0.9-0.4L1.9,7.2c-0.5-0.5-0.5-1.3,0-1.8c0.5-0.5,1.3-0.5,1.8,0l2.9,2.9l7.9-7.9c0.5-0.5,1.3-0.5,1.8,0c0.5,0.5,0.5,1.3,0,1.8l-8.8,8.8C7.2,11.2,6.9,11.3,6.6,11.3z"></path>
</svg>