<svg xmlns="http://www.w3.org/2000/svg" viewBox="0 0 20 20" fill="currentColor">
<path d="M10,0C4.5,0,0,4.5,0,10c0,5.5,4.5,10,10,10s10-4.5,10-10C20,4.5,15.5,0,10,0z M18.6,12c0,0.1-0.1,0.2-0.2,0.3
	c-0.1,0-0.2,0-0.3,0l-0.8-0.5C16,10.9,15.4,9.4,15.9,8L17,4.7c1.1,1.5,1.8,3.3,1.8,5.3C18.8,10.7,18.7,11.4,18.6,12z M13.4,1.9
	c0.3,0.1,0.4,0.4,0.3,0.7l-0.4,0.9c-0.1,0.1-0.2,0.2-0.3,0.2c-0.1,0-0.3-0.1-0.3-0.2l-1.2-2.2C12.2,1.5,12.8,1.6,13.4,1.9z M10,1.2
	c0.2,0,0.4,0.1,0.5,0.3l1.6,2.9c0.3,0.6,0.1,1.4-0.5,1.7L7.8,8.2C7.6,8.3,7.5,8.4,7.5,8.6c0,0.2,0.1,0.4,0.2,0.5l1.7,1.5
	c0.2,0.2,0.5,0.3,0.8,0.3h1.4c0.3,0,0.5,0.1,0.7,0.3l2.1,1.6c0.3,0.2,0.4,0.5,0.5,0.9c0,0.3-0.1,0.7-0.3,0.9l-3.4,3.4
	c-0.1,0.1-0.3,0.2-0.5,0.1c-0.2-0.1-0.3-0.2-0.3-0.4v-2.1c0-0.3-0.1-0.7-0.3-0.9L9.6,14c-0.1-0.1-0.2-0.3-0.2-0.5v-0.8
	c0-0.2-0.1-0.4-0.2-0.5L4.3,7.7C4,7.4,3.8,6.9,3.8,6.4V4.3c0-0.3,0.1-0.6,0.4-0.8C5.7,2.1,7.7,1.2,10,1.2z"/>
</svg>
