<svg xmlns="http://www.w3.org/2000/svg" viewBox="0 0 20 20" fill="currentColor">
<path class="st0" d="M9,0v6c0,1.1,0.9,2,2,2h4.9c-0.6,0.2-1.1,0.6-1.6,1l-6.1,6.1c-0.4,0.4-0.6,0.8-0.7,1.3l-0.5,2
	C6.9,19,7,19.5,7.3,20H2.5C1.7,20,1,19.3,1,18.5v-17C1,0.7,1.7,0,2.5,0H9z"/>
<path class="st0" d="M10.5,0.5V6c0,0.3,0.2,0.5,0.5,0.5h5.5L10.5,0.5z"/>
<path class="st0" d="M9.2,15.6l5.9-5.9c0.9-0.9,2.3-0.9,3.2,0c0.9,0.9,0.9,2.3,0,3.2l-5.9,5.9c-0.3,0.3-0.8,0.6-1.2,0.7L9.3,20
	c-0.8,0.2-1.5-0.5-1.3-1.3l0.5-1.8C8.6,16.3,8.9,15.9,9.2,15.6z M16.2,10.7l-5.9,5.9c-0.2,0.2-0.3,0.3-0.3,0.6l-0.3,1.2l1.2-0.3
	c0.2-0.1,0.4-0.2,0.6-0.3l5.9-5.9c0.3-0.3,0.3-0.8,0-1.1C17,10.4,16.5,10.4,16.2,10.7z"/>
</svg>
