<svg xmlns="http://www.w3.org/2000/svg" viewBox="0 0 20 20" fill="currentColor">
    <path fill-rule="evenodd" clip-rule="evenodd" d="M6.7,4.8c1-0.5,2.2-0.7,3.3-0.7c2.5,0,4.5,1.1,5.9,2.4c1.5,1.3,2.4,2.8,2.8,3.4c0,0,0,0,0,0c0,0,0,0,0,0.1c-0.4,0.7-0.8,1.3-1.3,1.9c-0.2,0.3-0.2,0.7,0.1,0.9c0.3,0.2,0.7,0.2,0.9-0.1c0,0,0,0,0,0c0.5-0.6,1-1.3,1.4-2c0.2-0.4,0.2-0.9,0-1.3c-0.4-0.7-1.4-2.3-3-3.8c-1.6-1.4-3.9-2.7-6.8-2.7c-1.4,0-2.7,0.3-3.8,0.8C5.9,3.8,5.7,4.2,5.8,4.5C6,4.8,6.4,5,6.7,4.8L6.7,4.8z"></path>
    <path fill-rule="evenodd" clip-rule="evenodd" d="M16,15c-1.5,1.2-3.6,2.1-6,2.1c-2.9,0-5.2-1.3-6.8-2.7c-1.6-1.4-2.6-3-3-3.8c-0.2-0.4-0.2-0.9,0-1.3C0.9,8,1.9,6.8,3,5.8L1,4.4C0.7,4.2,0.6,3.8,0.8,3.5s0.6-0.4,0.9-0.2c0,0,0,0,0,0L19,15.6c0.3,0.2,0.4,0.6,0.2,0.9c-0.2,0.3-0.6,0.4-0.9,0.2c0,0,0,0,0,0L16,15z M4,6.5C2.6,7.8,1.6,9.3,1.3,10c0,0,0,0,0,0c0,0,0,0,0,0c0.4,0.7,1.3,2.1,2.8,3.4c1.5,1.3,3.5,2.4,5.9,2.4c2,0,3.6-0.7,4.9-1.6l-3-2.1c-1.2,1.1-3.1,1-4.2-0.2c-0.8-0.8-1-2.1-0.5-3.1L4,6.5L4,6.5z"></path>
</svg>