<svg xmlns="http://www.w3.org/2000/svg" viewBox="0 0 20 20" fill="currentColor">
    <path fill-rule="evenodd" clip-rule="evenodd" d="M12.9,10c0,1.6-1.3,2.9-2.9,2.9S7.1,11.6,7.1,10S8.4,7.1,10,7.1S12.9,8.4,12.9,10z"></path>
    <path fill-rule="evenodd" clip-rule="evenodd" d="M10,2.8c-2.9,0-5.2,1.3-6.8,2.7c-1.6,1.4-2.6,3-3,3.8c-0.2,0.4-0.2,0.9,0,1.3c0.4,0.7,1.4,2.3,3,3.8c1.6,1.4,3.9,2.7,6.8,2.7s5.2-1.3,6.8-2.7c1.6-1.4,2.6-3,3-3.8c0.2-0.4,0.2-0.9,0-1.3c-0.4-0.7-1.4-2.3-3-3.8C15.2,4.1,12.9,2.8,10,2.8z M1.3,10c0.4-0.7,1.3-2.1,2.8-3.4C5.5,5.2,7.5,4.1,10,4.1s4.5,1.1,5.9,2.4c1.5,1.3,2.4,2.8,2.8,3.4c0,0,0,0,0,0c0,0,0,0,0,0c-0.4,0.7-1.3,2.1-2.8,3.4c-1.5,1.3-3.5,2.4-5.9,2.4s-4.5-1.1-5.9-2.4C2.6,12.2,1.6,10.7,1.3,10C1.3,10,1.3,10,1.3,10C1.3,10,1.3,10,1.3,10z"></path>
</svg>