<svg xmlns="http://www.w3.org/2000/svg" viewBox="0 0 20 20" fill="currentColor">
	<path d="M9.6,10C9.4,9.4,9.4,8.2,9.5,8.2C9.9,8.2,9.8,9.6,9.6,10z M9.5,11.8c-0.3,0.8-0.7,1.7-1.1,2.4c0.7-0.3,1.5-0.7,2.5-0.9
		C10.4,13.1,9.9,12.5,9.5,11.8L9.5,11.8z M5.9,16.7c0,0,0.5-0.2,1.4-1.6C7,15.4,6.1,16.1,5.9,16.7z M12.2,6.2h5.3v12.8
		c0,0.5-0.4,0.9-0.9,0.9H3.4c-0.5,0-0.9-0.4-0.9-0.9V0.9C2.5,0.4,2.9,0,3.4,0h7.8v5.3C11.2,5.8,11.7,6.2,12.2,6.2z M11.9,13
		c-0.8-0.5-1.3-1.1-1.7-2.1c0.2-0.7,0.5-1.8,0.2-2.5c-0.2-1.1-1.7-1-1.9-0.3c-0.2,0.7,0,1.7,0.3,3c-0.5,1.1-1.1,2.5-1.6,3.4
		c0,0,0,0,0,0c-1.1,0.5-2.9,1.7-2.1,2.7c0.2,0.3,0.6,0.4,0.8,0.4c0.7,0,1.4-0.7,2.4-2.4c1-0.3,2.1-0.7,3.1-0.9
		c0.8,0.5,1.8,0.8,2.5,0.8c1.1,0,1.2-1.2,0.8-1.7C14.2,12.7,12.6,12.9,11.9,13z M17.2,4.1l-3.8-3.8C13.2,0.1,13,0,12.7,0h-0.2v5h5
		V4.8C17.5,4.5,17.4,4.3,17.2,4.1z M14.3,14.1c0.2-0.1-0.1-0.5-1.7-0.4C14.1,14.3,14.3,14.1,14.3,14.1z"/>
</svg>
