<svg xmlns="http://www.w3.org/2000/svg" viewBox="0 0 20 20" fill="currentColor">
	<path d="M12.2,5.5h3.4c0.2,0,0.5-0.2,0.5-0.5l0,0c0-0.1,0-0.2-0.1-0.3l-4.2-4.2c-0.1-0.1-0.2-0.1-0.3-0.1l0,0
		c-0.2,0-0.5,0.2-0.5,0.5v3.4C11,5,11.5,5.5,12.2,5.5z"/>
	<path d="M19.8,9.9l-0.4-0.4c-0.2-0.2-0.6-0.2-0.9,0l-5,5c0,0,0,0.1,0,0.1v1c0,0.1,0,0.2,0.1,0.2h1.1c0,0,0.1,0,0.1,0l5-4.9
		C20.1,10.5,20.1,10.1,19.8,9.9z"/>
	<path d="M15.8,17.7H15h-1.5h-0.7c-0.7,0-1.2-0.5-1.2-1.2v-2.2c0-0.3,0.1-0.7,0.4-0.9l4-4c0.1-0.1,0.2-0.3,0.2-0.5V8.1
		c0-0.3-0.3-0.6-0.6-0.6H11C9.9,7.5,9,6.6,9,5.5V1c0-0.3-0.3-0.6-0.7-0.6H1.9C0.9,0.4,0,1.3,0,2.3v15.3c0,1,0.9,1.9,1.9,1.9h12.2
		c0.9,0,1.7-0.7,1.9-1.5C16.1,17.9,16,17.7,15.8,17.7z M2.6,6.2c0-0.3,0.3-0.6,0.6-0.6h2.6c0.4,0,0.6,0.3,0.6,0.6v0.6
		c0,0.3-0.3,0.6-0.6,0.6H3.2c-0.4,0-0.6-0.3-0.6-0.6V6.2z M9,14.5c0,0.3-0.3,0.6-0.6,0.6H3.2c-0.4,0-0.6-0.3-0.6-0.6v-0.6
		c0-0.3,0.3-0.6,0.6-0.6h5.2c0.4,0,0.6,0.3,0.6,0.6L9,14.5L9,14.5z M10.3,10.6c0,0.3-0.3,0.6-0.6,0.6H3.2c-0.4,0-0.6-0.3-0.6-0.6V10
		c0-0.3,0.3-0.6,0.6-0.6h6.5c0.4,0,0.6,0.3,0.6,0.6L10.3,10.6L10.3,10.6z"/>
</svg>
