<svg xmlns="http://www.w3.org/2000/svg" viewBox="0 0 20 20" fill="currentColor">
<path d="M13.6,6.1C13,2.5,11.6,0,10,0S7,2.5,6.4,6.1H13.6z M6.1,10c0,0.9,0,1.8,0.1,2.6h7.5c0.1-0.8,0.1-1.7,0.1-2.6s0-1.8-0.1-2.6
	H6.3C6.2,8.2,6.1,9.1,6.1,10z M19.2,6.1c-1.2-2.7-3.5-4.9-6.4-5.7c1,1.4,1.7,3.4,2,5.7H19.2z M7.1,0.4c-2.9,0.9-5.2,3-6.4,5.7h4.4
	C5.5,3.8,6.2,1.8,7.1,0.4L7.1,0.4z M19.7,7.4H15c0.1,0.8,0.1,1.7,0.1,2.6s0,1.7-0.1,2.6h4.6c0.2-0.8,0.3-1.7,0.3-2.6
	S19.9,8.2,19.7,7.4L19.7,7.4z M4.8,10c0-0.9,0-1.7,0.1-2.6H0.3C0.1,8.2,0,9.1,0,10s0.1,1.8,0.3,2.6H5C4.9,11.7,4.8,10.9,4.8,10z
	 M6.4,13.9C7,17.5,8.4,20,10,20s3-2.5,3.6-6.1H6.4z M12.9,19.6c2.9-0.9,5.2-3,6.4-5.7h-4.4C14.5,16.2,13.8,18.2,12.9,19.6z
	 M0.8,13.9c1.2,2.7,3.5,4.9,6.4,5.7c-1-1.4-1.7-3.4-2-5.7C5.1,13.9,0.8,13.9,0.8,13.9z"/>
</svg>
