<svg xmlns="http://www.w3.org/2000/svg" viewBox="0 0 20 20" fill="currentColor">
	<path d="M18.7,7.3h-1.1c-0.7,0-1.3,0.6-1.3,1.3v7.3c0,0.7,0.6,1.3,1.3,1.3h1.1c0.7,0,1.3-0.6,1.3-1.3V8.6
		C20,7.9,19.4,7.3,18.7,7.3z"/>
	<path d="M14.9,7c-0.6-0.5-1.7-1.4-2.4-2.5c-0.2-0.2-0.4-0.7-0.6-0.9c-0.7-0.8-1.8-0.8-2.5-0.7C9.2,2.9,9,3.2,9.1,3.5l1.2,3.3
		c0.1,0.3-0.1,0.5-0.3,0.5h-3H5.8H1.5C0.7,7.3,0,8,0,8.9c0,0.9,0.7,1.7,1.5,1.7h3l0.7,4.7c0,0.3,0.2,0.7,0.4,0.9l0.5,0.5
		C6.3,17,6.7,17.2,7,17.2h7.8c0.3,0,0.5-0.2,0.5-0.5V7.8C15.3,7.5,15.2,7.2,14.9,7z"/>
</svg>
