<svg xmlns="http://www.w3.org/2000/svg" viewBox="0 0 20 20" fill="currentColor">
    <path fill-rule="evenodd" clip-rule="evenodd" d="M10,0C4.5,0,0,4.5,0,10s4.5,10,10,10s10-4.5,10-10S15.5,0,10,0z M9.7,15.8c-0.6,0-1-0.5-1-1c0-0.6,0.5-1,1-1s1,0.5,1,1C10.7,15.4,10.3,15.8,9.7,15.8z M11.4,10.5c-0.8,0.6-1,1.1-1,1.6c0,0.4-0.3,0.7-0.7,0.7c-0.4,0-0.7-0.3-0.7-0.7c0-1.1,0.5-2,1.6-2.8c1-0.7,1.6-1.1,1.6-2c0-0.6-0.4-1.1-1.1-1.5c-0.2-0.1-0.6-0.2-1.1-0.2c-0.6,0-1.1,0.2-1.4,0.4C7.9,6.6,7.8,7.2,7.8,7.2C7.8,7.6,7.5,8,7,7.9c-0.4,0-0.7-0.4-0.7-0.8c0-0.1,0.1-1.3,1.3-2.2C8.3,4.4,9.1,4.2,10,4.2c0.7,0,1.3,0.1,1.7,0.3c1.3,0.6,2,1.6,2,2.8C13.6,9,12.5,9.8,11.4,10.5z"></path>
</svg>