<svg xmlns="http://www.w3.org/2000/svg" viewBox="0 0 20 20" fill="currentColor">
    <path fill-rule="evenodd" clip-rule="evenodd" d="M18.6,18.4c-0.2-3.6-3.4-5.1-3.4-5.1c-0.8-0.4-2.2-1.1-3.1-1.5c1.2-1.3,1.5-3.4,1.6-3.7c0.2-1.3,0.1-3,0.1-3 c-0.2-3.2-3.5-3.3-3.8-3.3c0,0,0,0,0,0s0,0,0,0c-0.3,0-3.6,0-3.8,3.3c0,0-0.1,1.7,0.1,3c0,0.1,0.1,0.3,0.1,0.7C7,9.6,8,10,8.7,10.2C8.8,10.1,9,10,9.1,10h1.4c0.3,0,0.5,0.2,0.5,0.5c0,0.3-0.2,0.5-0.5,0.5H9.1c-0.2,0-0.4-0.1-0.5-0.3C8,10.7,7.4,10.4,6.8,10c0.2,0.6,0.6,1.3,1.1,1.8c-0.9,0.5-2.3,1.2-3.1,1.5c0,0-3.2,1.5-3.4,5.1c0,0-0.1,0.6,1.1,0.8c0,0,3.5,0.8,7.6,0.8c4.1,0,7.6-0.8,7.6-0.8C18.7,19,18.6,18.4,18.6,18.4z"></path>
    <path fill-rule="evenodd" clip-rule="evenodd" d="M5,9.3h0.3v-4c0,0,0,0,0,0V4.7c0-1.1,0.3-1.9,1-2.6C7.7,0.8,10,0.8,10,0.8c0,0,2.3,0,3.6,1.3c0.6,0.6,1,1.5,1,2.6v0.6c0,0,0,0,0,0v4H15c0.8,0,1.5-0.7,1.5-1.5V6.3c0-0.7-0.4-1.3-1.1-1.5V4.7c0-1.3-0.4-2.4-1.2-3.1C12.6,0,10.1,0,10,0C9.9,0,7.4,0,5.8,1.5C5,2.3,4.6,3.4,4.6,4.7v0.2C4,5.1,3.5,5.6,3.5,6.3v1.5C3.5,8.6,4.2,9.3,5,9.3z"></path>
</svg>