<svg xmlns="http://www.w3.org/2000/svg" viewBox="0 0 20 20" fill="currentColor">
	<path d="M7.7,7C7.4,7,7.2,7.2,7.2,7.5V9c0,0.3,0.2,0.5,0.5,0.5S8.2,9.3,8.2,9V7.5C8.2,7.2,8,7,7.7,7z"/>
	<path d="M12.5,10.4c-0.3,0-0.5,0.2-0.5,0.5v1.5c0,0.3,0.2,0.5,0.5,0.5s0.5-0.2,0.5-0.5v-1.5C13.1,10.6,12.9,10.4,12.5,10.4z"/>
	<path d="M19.7,10.8c0.4-0.4,0.4-1.2,0-1.6l-0.9-1c-0.3-0.3-0.4-0.7-0.3-1.1l0.3-1.3c0.1-0.6-0.2-1.2-0.8-1.4l-1.3-0.4
		C16.3,4,16,3.7,15.9,3.3L15.5,2c-0.1-0.5-0.6-0.8-1.1-0.8c-0.2,0-0.2,0-1.6,0.4c-0.4,0.1-0.8,0-1.1-0.3l-1-0.9
		c-0.4-0.4-1.2-0.4-1.6,0l-1,0.9C7.9,1.5,7.5,1.6,7.2,1.5L5.9,1.2C5.3,1.1,4.6,1.4,4.5,2L4.1,3.3C4,3.7,3.7,4,3.3,4.1L2,4.5
		c-0.6,0.2-1,0.8-0.8,1.4l0.3,1.3c0.1,0.4,0,0.8-0.3,1.1l-0.9,1c-0.4,0.4-0.4,1.2,0,1.6l0.9,1c0.3,0.3,0.4,0.7,0.3,1.1l-0.3,1.3
		c-0.1,0.6,0.2,1.2,0.8,1.4l1.3,0.4C3.7,16,4,16.3,4.1,16.7L4.5,18c0.2,0.6,0.8,1,1.4,0.8l1.3-0.3c0.4-0.1,0.8,0,1.1,0.3l1,0.9
		c0.4,0.4,1.2,0.4,1.6,0l1-0.9c0.3-0.3,0.7-0.4,1.1-0.3l1.3,0.3c0.6,0.1,1.2-0.2,1.4-0.8l0.4-1.3c0.1-0.4,0.4-0.7,0.8-0.8l1.3-0.4
		c0.6-0.2,1-0.8,0.8-1.4l-0.3-1.3c-0.1-0.4,0-0.8,0.3-1.1L19.7,10.8z M6.1,9V7.5c0-1,0.7-1.4,1.6-1.4c0.9,0,1.6,0.4,1.6,1.4V9
		c0,1-0.7,1.4-1.6,1.4C6.8,10.4,6.1,10,6.1,9z M8.8,14c-0.1,0.2-0.3,0.3-0.5,0.3c-0.4,0-0.6-0.3-0.6-0.6c0-0.1,0-0.1,0.1-0.2
		l3.7-7.6c0.1-0.2,0.3-0.3,0.4-0.3c0.3,0,0.6,0.2,0.6,0.6c0,0.1,0,0.1,0,0.2L8.8,14z M14.1,12.4c0,1-0.7,1.4-1.6,1.4
		c-0.9,0-1.6-0.4-1.6-1.4v-1.5c0-1,0.7-1.4,1.6-1.4c0.9,0,1.6,0.4,1.6,1.4V12.4z"/>
</svg>
