<svg xmlns="http://www.w3.org/2000/svg" viewBox="0 0 20 20" fill="currentColor">
    <path fill-rule="evenodd" clip-rule="evenodd" d="M1.1,8.9h17.9c0.6,0,1.1,0.5,1.1,1.1v0.1c0,0.6-0.5,1.1-1.1,1.1H1.1c-0.6,0-1.1-0.5-1.1-1.1V9.9C0,9.4,0.5,8.9,1.1,8.9z"></path>
    <path fill-rule="evenodd" clip-rule="evenodd" d="M1.1,14.4h17.9c0.6,0,1.1,0.5,1.1,1.1v0.1c0,0.6-0.5,1.1-1.1,1.1H1.1c-0.6,0-1.1-0.5-1.1-1.1v-0.1C0,14.9,0.5,14.4,1.1,14.4z"></path>
    <path fill-rule="evenodd" clip-rule="evenodd" d="M1.1,3.3h17.9c0.6,0,1.1,0.5,1.1,1.1v0.1c0,0.6-0.5,1.1-1.1,1.1H1.1C0.5,5.6,0,5.1,0,4.5V4.4C0,3.8,0.5,3.3,1.1,3.3z"></path>
</svg>