<svg xmlns="http://www.w3.org/2000/svg" viewBox="0 0 20 20" fill="currentColor">
    <path fill-rule="evenodd" clip-rule="evenodd" d="M0.1,13.8l0,0.2l0,0c0.5,2.4,2.9,4,5.3,3.4s4-2.9,3.4-5.3C8.5,10,6.7,8.5,4.5,8.5c-0.2,0-0.4,0-0.6,0.1C4,8.3,4,8.1,4.1,7.9C4.3,7.6,4.4,7.3,4.6,7C4.8,6.7,5,6.5,5.2,6.3c0.2-0.2,0.5-0.4,0.7-0.6c0.2-0.2,0.5-0.3,0.7-0.5C6.8,5.1,7.1,5,7.3,4.9l0.5-0.2l0.5-0.2L7.8,2.5L7.2,2.7C7,2.7,6.8,2.8,6.5,2.9C6.2,2.9,6,3,5.6,3.2c-0.3,0.1-0.7,0.2-1,0.5C4.3,3.8,3.9,4,3.5,4.3c-0.3,0.3-0.7,0.6-1,0.9C2.1,5.6,1.8,6,1.6,6.4C1.3,6.8,1.1,7.3,0.9,7.7C0.7,8.2,0.5,8.6,0.4,9C0.2,9.9,0.1,10.8,0,11.5c0,0.7,0,1.3,0,1.7C0.1,13.4,0.1,13.6,0.1,13.8z M11.1,13.8l0,0.2l0,0c0.5,2.4,2.9,4,5.3,3.4s4-2.9,3.4-5.3c-0.4-2.1-2.3-3.5-4.4-3.5c-0.2,0-0.4,0-0.6,0.1c0.1-0.2,0.1-0.5,0.3-0.7c0.1-0.3,0.3-0.6,0.5-0.8c0.1-0.3,0.4-0.5,0.6-0.7c0.2-0.2,0.5-0.4,0.7-0.6c0.2-0.2,0.5-0.3,0.7-0.5C17.8,5.1,18,5,18.2,4.9l0.5-0.2c0.3-0.1,0.5-0.2,0.5-0.2l-0.5-1.9l-0.6,0.1c-0.2,0-0.4,0.1-0.7,0.2c-0.3,0-0.6,0.2-0.9,0.3c-0.3,0.1-0.7,0.2-1,0.5c-0.3,0.2-0.7,0.4-1.1,0.7c-0.3,0.3-0.7,0.6-1,0.9c-0.3,0.4-0.7,0.7-0.9,1.2c-0.3,0.4-0.5,0.9-0.7,1.3c-0.2,0.4-0.3,0.9-0.5,1.3c-0.2,0.9-0.3,1.7-0.4,2.4c0,0.7,0,1.3,0,1.7C11,13.4,11,13.6,11.1,13.8z"></path>
</svg>