<svg xmlns="http://www.w3.org/2000/svg" viewBox="0 0 20 20" fill="currentColor">
	<path d="M13.5,15.5c-0.4,0.4-1.2,0.4-1.7,0c-0.3-0.3-0.4-0.5-0.4-0.8c0-0.3,0.1-0.6,0.4-0.8l2.5-2.5H7.1
		C6.5,11.3,6,10.7,6,10.1S6.5,9,7.1,9h7.2l-2.5-2.7c-0.4-0.4-0.4-1.2,0-1.7c0.4-0.4,1.2-0.4,1.7,0L18,9.2c0.3,0.3,0.4,0.5,0.4,0.9
		c0,0.4-0.1,0.6-0.4,0.8L13.5,15.5z"/>
	<path d="M10.6,17.8H6.3H4H3.8V2.2H4h2.3h4.3c0.6,0,1.1-0.5,1.1-1.1S11.2,0.1,10.6,0H6.3C5.2,0,4.5,0,4,0
		c0,0-0.1,0-0.1,0C2.6,0,1.6,1,1.6,2.2c0,0,0,5.1,0,15.6c0,1.2,1,2.2,2.2,2.2c0,0,0.1,0,0.1,0c0.5,0,1.3,0,2.3,0h4.3
		c0.6,0,1.1-0.5,1.1-1.1C11.7,18.4,11.2,17.9,10.6,17.8z"/>
</svg>
