<svg xmlns="http://www.w3.org/2000/svg" viewBox="0 0 20 20" fill="currentColor">
	<path d="M11,6c1.7,0,3,1.3,3,3c0,0.6,0.4,1,1,1s1-0.4,1-1c0-2.8-2.2-5-5-5c-0.6,0-1,0.4-1,1S10.4,6,11,6z"/>
	<path d="M11,2c3.9,0,7,3.1,7,7c0,0.6,0.4,1,1,1s1-0.4,1-1c0-5-4-9-9-9c-0.6,0-1,0.4-1,1S10.4,2,11,2z"/>
	<path d="M19.7,13.9c-0.1-0.3-0.4-0.6-0.7-0.6l-6-1.4c-0.3-0.1-0.7,0-0.9,0.3c-0.1,0.1-0.1,0.1-0.8,1.4c-2.2-1-3.9-2.7-4.9-4.9
		C7.7,8,7.7,8,7.8,7.9c0.2-0.2,0.3-0.6,0.3-0.9L6.7,1C6.7,0.7,6.4,0.4,6.1,0.3C5.9,0.2,5.6,0.1,5.4,0.1C5.1,0,4.9,0,4.6,0
		C2.1,0,0,2.1,0,4.6C0,13.1,6.9,20,15.4,20c2.5,0,4.6-2.1,4.6-4.6l0,0c0-0.3,0-0.5-0.1-0.8C19.9,14.4,19.8,14.1,19.7,13.9z"/>
</svg>
