<svg xmlns="http://www.w3.org/2000/svg" viewBox="0 0 20 20" fill="currentColor">
    <path fill-rule="evenodd" clip-rule="evenodd" d="M5.2,0.2C5.3,0.1,5.5,0,5.6,0h8.8C14.7,0,15,0.3,15,0.6c0,0.9-0.4,1.5-0.8,1.8c-0.2,0.2-0.3,0.3-0.4,0.4v5.5l0.1,0.1c0.3,0.2,0.6,0.4,0.9,0.7c0.7,0.6,1.5,1.5,1.5,2.7c0,0.3-0.3,0.6-0.6,0.6h-5v5.6c0,0.3-0.3,1.9-0.6,1.9s-0.6-1.5-0.6-1.9v-5.6h-5c-0.3,0-0.6-0.3-0.6-0.6c0-1.2,0.8-2.2,1.5-2.7c0.3-0.3,0.7-0.5,1-0.8V2.8C6.1,2.7,5.9,2.6,5.8,2.5C5.4,2.1,5,1.5,5,0.6C5,0.5,5.1,0.3,5.2,0.2z"></path>
</svg>