<svg xmlns="http://www.w3.org/2000/svg" viewBox="0 0 20 20" fill="currentColor">
    <path fill-rule="evenodd" clip-rule="evenodd" d="M13.8,0c-0.4,0-0.8,0.2-1.3,0.8L12,1.3l-0.5-0.5C10.8,0.2,10.4,0,9.9,0.1c-0.5,0-1,0.3-1.6,0.8L7.8,1.2L7.3,0.8C6.6,0.2,6,0,5.4,0C5,0,4.5,0.2,4.1,0.5l3.3,5.9c1.2,0.8,3.7,1,5.5,0.2L16,0.7c-0.6-0.2-1.1-0.5-1.6-0.6C14.2,0,14.1,0,13.8,0C13.9,0,13.9,0,13.8,0L13.8,0z"></path>
    <path fill-rule="evenodd" clip-rule="evenodd" d="M6.7,7.7c-1.4,1-2.6,2.8-3,5.3c-0.4,2.5,0.2,4.2,1.5,5.3c1.2,1.1,3,1.7,4.9,1.7c1.8,0,3.7-0.7,4.9-1.8c1.2-1.2,1.9-2.8,1.5-5.2c-0.4-2.4-1.5-4.1-2.8-5.2C11.3,9,8.5,8.7,6.7,7.7L6.7,7.7z"></path>
</svg>