<svg xmlns="http://www.w3.org/2000/svg" viewBox="0 0 20 20" fill="currentColor">
	<path d="M18.4,12.7c0,0,0-0.1,0-0.1c0-2.8-2.3-5-5.2-5c-0.1,0-1,0-2.3,0c-0.1,0.1-0.2,0.1-0.4,0.2c-1,0.6-2.1,1.1-3.1,1.4
		C7.4,9,7.4,8.9,7.3,8.7c0.9-0.3,2-0.7,3.1-1.4c2.8-1.6,4.6-3.6,4-4.6c-0.5-0.9-3.2-0.4-6,1.2C6.6,5.1,5.1,6.4,4.6,7.4
		c-0.2,0-0.5,0.1-0.7,0.1C3.5,7.7,3,7.9,2.6,8.1C0.5,9.2-0.6,11.4,0.3,13c0.6,1.2,2.2,1.7,3.8,1.4l0,0.1c-0.1,0.1-0.2,0.3-0.2,0.5
		c-1.3,0.1-2.4,1.3-2.4,2.7l0.1-0.1l-0.2,0.2l2.1,0h4.6c0-1.6,1.3-2.9,2.9-2.9v0.4c-1.4,0-2.5,1.1-2.5,2.5H9h4.4l0,0
		c1.5-0.1,2.9-0.7,3.8-1.8c0.3,0.2,0.7,0.4,1.1,0.4c1,0,1.8-0.8,1.8-1.8C20,13.5,19.3,12.8,18.4,12.7z M4.1,10.5
		c-0.4,0-0.8-0.3-0.8-0.8S3.6,9,4.1,9s0.8,0.3,0.8,0.8S4.5,10.5,4.1,10.5z"/>
</svg>
