<svg xmlns="http://www.w3.org/2000/svg" viewBox="0 0 20 20" fill="currentColor">
    <path fill-rule="evenodd" clip-rule="evenodd" d="M19.3,9.1H7.7h0C7.2,7.9,6.1,7,4.8,7C3.5,7,2.3,7.9,1.9,9.1H0.6C0.3,9.1,0,9.4,0,9.7v0.5c0,0.4,0.3,0.6,0.6,0.6H2 C2.3,12.1,3.5,13,4.8,13l0,0c1.3,0,2.5-0.9,2.8-2.1h0h11.7c0.4,0,0.6-0.3,0.6-0.6V9.7C20,9.4,19.7,9.1,19.3,9.1z M4.8,11.8 L4.8,11.8C3.8,11.8,3,11,3,10s0.8-1.8,1.8-1.8S6.5,9,6.5,10S5.8,11.8,4.8,11.8z"></path>
    <path fill-rule="evenodd" clip-rule="evenodd" d="M19.3,2.1h-4.7h0C14.2,0.9,13.1,0,11.8,0c-1.3,0-2.5,0.9-2.8,2.1H0.6C0.3,2.1,0,2.4,0,2.7v0.5c0,0.4,0.3,0.6,0.6,0.6H9 c0.4,1.2,1.5,2.1,2.8,2.1l0,0c1.3,0,2.5-0.9,2.8-2.1h0h4.7c0.4,0,0.6-0.3,0.6-0.6V2.7C20,2.4,19.7,2.1,19.3,2.1z M11.8,4.7 L11.8,4.7c-1,0-1.8-0.8-1.8-1.8s0.8-1.8,1.8-1.8S13.5,2,13.5,3S12.8,4.7,11.8,4.7z"></path>
    <path fill-rule="evenodd" clip-rule="evenodd" d="M0.7,17.9h11.7h0c0.4,1.2,1.5,2.1,2.9,2.1c1.3,0,2.5-0.9,2.8-2.1h1.3c0.4,0,0.6-0.3,0.6-0.6v-0.5c0-0.4-0.3-0.6-0.6-0.6H18 c-0.4-1.2-1.5-2.1-2.8-2.1l0,0c-1.3,0-2.5,0.9-2.8,2.1h0H0.6c-0.4,0-0.6,0.3-0.6,0.6v0.5C0,17.6,0.3,17.9,0.7,17.9z M15.2,15.3 L15.2,15.3c1,0,1.8,0.8,1.8,1.8c0,1-0.8,1.8-1.8,1.8S13.5,18,13.5,17C13.5,16.1,14.2,15.3,15.2,15.3z"></path>
</svg>