<svg xmlns="http://www.w3.org/2000/svg" viewBox="0 0 20 20" fill="currentColor">
<path d="M17.7,13.1l2.1,1.1c0.3,0.1,0.3,0.5,0,0.7l-9.5,4.7c-0.2,0.1-0.5,0.1-0.7,0l-9.5-4.7C0,14.7-0.1,14.5,0,14.3
	c0-0.1,0.1-0.1,0.2-0.2l2.1-1.1L9,16.4c0.6,0.3,1.4,0.3,2,0L17.7,13.1L17.7,13.1z M9.7,0.5c0.2-0.1,0.5-0.1,0.7,0l9.5,4.7
	C20,5.3,20.1,5.5,20,5.7c0,0.1-0.1,0.1-0.2,0.2l-9.5,4.7c-0.2,0.1-0.5,0.1-0.7,0L0.2,5.9C0,5.8-0.1,5.5,0,5.3c0-0.1,0.1-0.1,0.2-0.2
	L9.7,0.5z"/>
<path d="M17.7,8.6l2.1,1.1c0.3,0.1,0.3,0.5,0,0.7l-9.5,4.7c-0.2,0.1-0.5,0.1-0.7,0l-9.5-4.7C0,10.2-0.1,10,0,9.8
	c0-0.1,0.1-0.1,0.2-0.2l2.1-1.1L9,11.9c0.6,0.3,1.4,0.3,2,0L17.7,8.6L17.7,8.6z"/>
</svg>
