<svg xmlns="http://www.w3.org/2000/svg" viewBox="0 0 20 20" fill="currentColor">
	<path d="M10,0.5c-5.5,0-10,4-10,9c0,1.7,0.5,3.4,1.6,4.9c-0.2,2.2-0.7,3.8-1.5,4.6C0,19,0,19.2,0,19.3c0.1,0.1,0.2,0.2,0.3,0.2
		c0,0,0,0,0,0c0.1,0,3.3-0.5,5.5-1.8c1.3,0.5,2.7,0.8,4.1,0.8c5.5,0,10-4,10-9S15.5,0.5,10,0.5z M5.3,10.8C4.6,10.8,4,10.2,4,9.5
		c0-0.7,0.6-1.3,1.3-1.3s1.3,0.6,1.3,1.3C6.7,10.2,6.1,10.8,5.3,10.8z M10,10.8c-0.7,0-1.3-0.6-1.3-1.3c0-0.7,0.6-1.3,1.3-1.3
		s1.3,0.6,1.3,1.3C11.3,10.2,10.7,10.8,10,10.8z M14.7,10.8c-0.7,0-1.3-0.6-1.3-1.3c0-0.7,0.6-1.3,1.3-1.3S16,8.8,16,9.5
		C16,10.2,15.4,10.8,14.7,10.8z"/>
</svg>
