<svg xmlns="http://www.w3.org/2000/svg" viewBox="0 0 20 20" fill="currentColor">
	<path d="M19.4,8.6c0.4,0,0.6-0.3,0.6-0.7V4.7c0-0.4-0.3-0.7-0.7-0.7H0.7C0.3,4.1,0,4.4,0,4.7v3.2c0,0.2,0.1,0.3,0.2,0.5
		c0.1,0.1,0.3,0.2,0.5,0.2c0,0,0,0,0,0c0.8,0,1.4,0.6,1.4,1.4c0,0.8-0.6,1.4-1.4,1.4c0,0,0,0,0,0c0,0,0,0,0,0
		c-0.2,0-0.3,0.1-0.5,0.2C0.1,11.7,0,11.9,0,12.1v3.2c0,0.4,0.3,0.7,0.7,0.7h18.7c0.4,0,0.7-0.3,0.7-0.7v-3.2
		c0-0.4-0.3-0.6-0.6-0.7c-0.8,0-1.4-0.6-1.4-1.4C18,9.2,18.6,8.6,19.4,8.6z M16.7,13.1c0,0.4-0.3,0.7-0.7,0.7H4
		c-0.4,0-0.7-0.3-0.7-0.7V6.9c0-0.4,0.3-0.7,0.7-0.7H16c0.4,0,0.7,0.3,0.7,0.7V13.1z"/>
	<rect x="4.6" y="7.5" width="7" height="5"/>
	<rect x="12.9" y="7.5" width="2.5" height="5"/>
</svg>
