<svg xmlns="http://www.w3.org/2000/svg" viewBox="0 0 20 20">
<path d="M10.4,8.3c0.4-0.1,0.9-0.1,1.3-0.1c3.2,0,5.5,2.3,5.5,5.4c0,1.8-0.7,3.4-1.9,4.7c-1.1,1.2-2.7,1.8-4.5,1.8
	c-3.2,0-5.4-2.3-5.4-5.4c0-0.5,0-0.9,0.1-1.4L8.2,0.1c0,0,0,0,0-0.1c0,0,0.1,0,0.1,0c1.9,0.4,3.2,2.1,3.2,4.1c0,0.5-0.1,1-0.3,1.5
	L10.4,8.3z M8.8,14.5c0,1.4,1,2.4,2.3,2.4c1.6,0,2.9-1.3,2.9-3.2c0-1.5-1-2.5-2.4-2.5C10,11.3,8.8,12.5,8.8,14.5z M4.6,3.6
	C4.6,3.5,4.6,3.5,4.6,3.6L4.6,3.6C3.9,3.3,3.3,3.3,2.8,3.3l0,0c-0.1,0-0.1,0.1-0.1,0.1l1.9,9.6L4.6,3.6C4.6,3.6,4.6,3.6,4.6,3.6
	L4.6,3.6z M7.1,1.6C7.1,1.6,7.1,1.7,7.1,1.6L7.1,1.6l-1.7,9.6l0-10c0-0.1,0.1-0.1,0.1-0.1h0C5.9,1.2,6.4,1.3,7.1,1.6L7.1,1.6z"/>
</svg>
