<?xml version="1.0" standalone="no"?>
<!DOCTYPE svg PUBLIC "-//W3C//DTD SVG 20010904//EN"
 "http://www.w3.org/TR/2001/REC-SVG-20010904/DTD/svg10.dtd">
<svg version="1.0" xmlns="http://www.w3.org/2000/svg"
 width="462.000000pt" height="462.000000pt" viewBox="0 0 462.000000 462.000000"
 preserveAspectRatio="xMidYMid meet">
<metadata>
Created by potrace 1.14, written by Peter Selinger 2001-2017
</metadata>
<g transform="translate(0.000000,462.000000) scale(0.100000,-0.100000)"
fill="#000000" stroke="none">
<path d="M368 4609 c-128 -30 -263 -145 -326 -276 l-37 -78 0 -1945 0 -1945
33 -69 c35 -76 104 -167 139 -187 12 -6 20 -16 17 -21 -3 -5 -2 -8 3 -6 12 3
83 -34 78 -42 -2 -3 4 -6 13 -7 9 -1 42 -9 72 -17 49 -14 256 -16 1947 -16
1932 0 1964 1 2020 37 12 8 28 11 35 7 7 -4 10 -4 6 1 -4 4 13 21 37 37 67 45
134 124 174 208 l36 75 0 1945 0 1945 -37 78 c-51 107 -138 194 -245 245 l-78
37 -1925 2 c-1093 0 -1941 -3 -1962 -8z"/>
</g>
</svg>
