<?xml version="1.0" encoding="utf-8"?>
<!-- Generator: Adobe Illustrator 23.0.1, SVG Export Plug-In . SVG Version: 6.00 Build 0)  -->
<svg version="1.1" id="Layer_1" xmlns="http://www.w3.org/2000/svg" xmlns:xlink="http://www.w3.org/1999/xlink" x="0px" y="0px"
	 viewBox="0 0 100 100" style="enable-background:new 0 0 100 100;" xml:space="preserve">
<style type="text/css">
	.st0{fill-rule:evenodd;clip-rule:evenodd;fill:#010101;}
</style>
<g id="Close">
	<path class="st0" d="M61.9,50l35.7-35.7c3.3-3.3,3.3-8.6,0-11.9c-3.3-3.3-8.6-3.3-11.9,0L50,38.1L14.3,2.5c-3.3-3.3-8.6-3.3-11.9,0
		c-3.3,3.3-3.3,8.6,0,11.9L38.1,50L2.5,85.7c-3.3,3.3-3.3,8.6,0,11.9c3.3,3.3,8.6,3.3,11.9,0L50,61.9l35.7,35.7
		c3.3,3.3,8.6,3.3,11.9,0s3.3-8.6,0-11.9L61.9,50z"/>
</g>
</svg>
