<svg xmlns="http://www.w3.org/2000/svg" viewBox="0 0 512 512">
      <path d="m256 205c-42 0-77 34-77 77 0 42 35 76 77 76 42 0 77-34 77-76 0-43-35-77-77-77z m205-77l-62 0c-8 0-17-7-20-15l-16-47c-2-8-12-15-20-15l-174 0c-8 0-18 7-20 15l-16 47c-3 8-12 15-20 15l-62 0c-28 0-51 23-51 51l0 231c0 28 23 51 51 51l410 0c28 0 51-23 51-51l0-231c0-28-23-51-51-51z m-205 282c-71 0-128-58-128-128 0-71 57-128 128-128 71 0 128 57 128 128 0 70-57 128-128 128z m187-195c-10 0-18-8-18-18 0-10 8-18 18-18 10 0 18 8 18 18 0 10-8 18-18 18z"/>
</svg>
