<svg xmlns="http://www.w3.org/2000/svg" viewBox="0 0 122 117.587">
  <defs>
    <clipPath id="clip-path">
      <rect id="Rectangle_11787" data-name="Rectangle 11787" width="122" height="117.587" fill="none"/>
    </clipPath>
  </defs>
  <rect id="Rectangle_11775" data-name="Rectangle 11775" width="32.143" height="4.547" transform="translate(64.218 86.338) rotate(-8.202)" fill="#58c1cc"/>
  <rect id="Rectangle_11776" data-name="Rectangle 11776" width="8.983" height="4.547" transform="matrix(0.99, -0.143, 0.143, 0.99, 87.142, 83.034)" fill="#58c1cc"/>
  <rect id="Rectangle_11777" data-name="Rectangle 11777" width="7.289" height="4.547" transform="translate(87.142 83.034) rotate(-8.202)" fill="#60ccd7"/>
  <rect id="Rectangle_11778" data-name="Rectangle 11778" width="1.776" height="4.546" transform="translate(64.218 86.338) rotate(-8.19)" fill="#48acbc"/>
  <g id="Group_18080" data-name="Group 18080" transform="translate(0 0)">
    <g id="Group_18079" data-name="Group 18079" clip-path="url(#clip-path)">
      <path id="Path_21855" data-name="Path 21855" d="M104.657,59.486,40.642,68.712c6.494,10.5,16.413,18,27.591,20.676L89.4,86.338a45.2,45.2,0,0,0,15.258-26.852" transform="translate(-2.257 -3.304)" fill="#60ccd7"/>
      <path id="Path_21856" data-name="Path 21856" d="M105.169,50.891q.059-2.2-.067-4.433l-70.043,10.1q.7,2.16,1.565,4.217Z" transform="translate(-1.947 -2.58)" fill="#60ccd7"/>
      <path id="Path_21857" data-name="Path 21857" d="M40.363,69.255l-4.745.684A48.544,48.544,0,0,0,66.2,90.184l1.759-.253c-11.178-2.672-21.1-10.173-27.592-20.676" transform="translate(-1.978 -3.846)" fill="#48acbc"/>
      <path id="Path_21858" data-name="Path 21858" d="M34.755,57.147l-5.185.747c.5,1.437,1.06,2.836,1.681,4.2l5.069-.73c-.575-1.372-1.1-2.778-1.565-4.218" transform="translate(-1.642 -3.174)" fill="#48acbc"/>
      <path id="Path_21859" data-name="Path 21859" d="M128.424,48.087c.211-1.485.356-2.987.427-4.505l-5.186.748c-.039,1.513-.145,3.009-.31,4.488Z" transform="translate(-6.851 -2.42)" fill="#60ccd7"/>
      <path id="Path_21860" data-name="Path 21860" d="M99.9,85.151l1.758-.253A48.546,48.546,0,0,0,125.28,56.841l-4.745.684c-3.264,11.91-10.661,21.907-20.63,27.626" transform="translate(-5.548 -3.157)" fill="#60ccd7"/>
      <path id="Path_21861" data-name="Path 21861" d="M122.57,48.862c.164-1.478.271-2.975.31-4.488l-13.659,1.968q.127,2.233.067,4.434Z" transform="translate(-6.066 -2.464)" fill="#71e4ea"/>
      <path id="Path_21862" data-name="Path 21862" d="M120.111,57.565l-12.587,1.814A45.2,45.2,0,0,1,92.266,86.231l7.215-1.04c9.969-5.72,17.366-15.717,20.63-27.626" transform="translate(-5.124 -3.197)" fill="#71e4ea"/>
      <path id="Path_21863" data-name="Path 21863" d="M36.717,61.032a51.928,51.928,0,0,0,3.707,7.218l64.016-9.226a51.221,51.221,0,0,0,.823-7.87Z" transform="translate(-2.039 -2.841)" fill="#daebef"/>
      <path id="Path_21864" data-name="Path 21864" d="M36.419,61.613l-5.069.73a48.01,48.01,0,0,0,4.031,7.171l4.745-.684a51.926,51.926,0,0,1-3.707-7.218" transform="translate(-1.741 -3.422)" fill="#c7dadd"/>
      <path id="Path_21865" data-name="Path 21865" d="M123.266,49.083a51.816,51.816,0,0,1-1.518,7.971l4.745-.685a48.018,48.018,0,0,0,1.842-8.018Z" transform="translate(-6.762 -2.685)" fill="#daebef"/>
      <path id="Path_21866" data-name="Path 21866" d="M108.421,58.911,121.008,57.1a51.8,51.8,0,0,0,1.518-7.97l-13.282,1.913a51.234,51.234,0,0,1-.823,7.871" transform="translate(-6.021 -2.728)" fill="#fff"/>
      <rect id="Rectangle_11779" data-name="Rectangle 11779" width="4.547" height="32.144" transform="translate(47.369 96.655) rotate(-79.327)" fill="#d83f7d"/>
      <rect id="Rectangle_11780" data-name="Rectangle 11780" width="4.547" height="8.983" transform="translate(70.129 100.945) rotate(-79.329)" fill="#d83f7d"/>
      <rect id="Rectangle_11781" data-name="Rectangle 11781" width="4.547" height="7.29" transform="translate(70.129 100.945) rotate(-79.331)" fill="#e94982"/>
      <rect id="Rectangle_11782" data-name="Rectangle 11782" width="4.547" height="1.777" transform="matrix(0.185, -0.983, 0.983, 0.185, 47.369, 96.655)" fill="#cd3a77"/>
      <path id="Path_21867" data-name="Path 21867" d="M95.892,79.769,32.334,67.79c2.747,12.039,9.706,22.346,19.419,28.49l21.014,3.961A45.2,45.2,0,0,0,95.892,79.769" transform="translate(-1.796 -3.765)" fill="#e94982"/>
      <path id="Path_21868" data-name="Path 21868" d="M99.14,71.851q.768-2.061,1.37-4.217L30.969,54.528c-.026,1.513.016,3.013.116,4.5Z" transform="translate(-1.719 -3.028)" fill="#e94982"/>
      <path id="Path_21869" data-name="Path 21869" d="M32.057,67.738l-4.711-.888A48.544,48.544,0,0,0,49.731,95.9l1.745.33C41.763,90.084,34.8,79.778,32.057,67.738" transform="translate(-1.519 -3.713)" fill="#cd3a77"/>
      <path id="Path_21870" data-name="Path 21870" d="M30.666,54.47l-5.149-.97c.006,1.519.086,3.026.231,4.518l5.033.949c-.1-1.485-.143-2.985-.115-4.5" transform="translate(-1.417 -2.971)" fill="#cd3a77"/>
      <path id="Path_21871" data-name="Path 21871" d="M122.144,76.206c.679-1.337,1.3-2.712,1.861-4.124l-5.148-.971c-.526,1.42-1.112,2.8-1.745,4.147Z" transform="translate(-6.504 -3.949)" fill="#e94982"/>
      <path id="Path_21872" data-name="Path 21872" d="M82.729,102.434l1.745.329A48.544,48.544,0,0,0,115.9,83.856l-4.711-.889c-6.942,10.213-17.175,17.28-28.458,19.467" transform="translate(-4.595 -4.608)" fill="#e94982"/>
      <path id="Path_21873" data-name="Path 21873" d="M116.336,75.107q.951-2.019,1.745-4.146L104.519,68.4q-.6,2.153-1.37,4.216Z" transform="translate(-5.729 -3.799)" fill="#ff559a"/>
      <path id="Path_21874" data-name="Path 21874" d="M110.765,82.828l-12.5-2.355a45.2,45.2,0,0,1-23.125,20.472l7.164,1.351c11.283-2.187,21.516-9.254,28.458-19.467" transform="translate(-4.173 -4.469)" fill="#ff559a"/>
      <path id="Path_21875" data-name="Path 21875" d="M31.092,59.289a51.764,51.764,0,0,0,1.173,8.029L95.823,79.3a51.314,51.314,0,0,0,3.325-7.181Z" transform="translate(-1.727 -3.293)" fill="#f2dae2"/>
      <path id="Path_21876" data-name="Path 21876" d="M30.8,59.233l-5.033-.948a48.168,48.168,0,0,0,1.494,8.089l4.712.888A51.766,51.766,0,0,1,30.8,59.233" transform="translate(-1.431 -3.237)" fill="#d8bfc9"/>
      <path id="Path_21877" data-name="Path 21877" d="M116.875,75.5a51.815,51.815,0,0,1-4.015,7.051l4.711.888a47.978,47.978,0,0,0,4.337-6.991Z" transform="translate(-6.268 -4.193)" fill="#f2dae2"/>
      <path id="Path_21878" data-name="Path 21878" d="M99.629,80.051l12.5,2.355a51.921,51.921,0,0,0,4.016-7.051l-13.188-2.486a51.325,51.325,0,0,1-3.325,7.182" transform="translate(-5.533 -4.047)" fill="#fff"/>
      <rect id="Rectangle_11783" data-name="Rectangle 11783" width="32.143" height="4.547" transform="translate(54.73 113.04)" fill="#3cb5e5"/>
      <rect id="Rectangle_11784" data-name="Rectangle 11784" width="8.983" height="4.547" transform="translate(77.89 113.04)" fill="#3cb5e5"/>
      <rect id="Rectangle_11785" data-name="Rectangle 11785" width="7.289" height="4.547" transform="translate(77.891 113.04)" fill="#45c6f3"/>
      <rect id="Rectangle_11786" data-name="Rectangle 11786" width="1.777" height="4.547" transform="translate(54.73 113.04)" fill="#36a9d7"/>
      <path id="Path_21879" data-name="Path 21879" d="M98.714,93.851H34.036c4.931,11.322,13.678,20.161,24.361,24.4H79.78a45.2,45.2,0,0,0,18.934-24.4" transform="translate(-1.89 -5.212)" fill="#45c6f3"/>
      <path id="Path_21880" data-name="Path 21880" d="M100.439,85.468q.373-2.169.566-4.4H30.238c.255,1.492.574,2.958.947,4.4Z" transform="translate(-1.679 -4.502)" fill="#45c6f3"/>
      <path id="Path_21881" data-name="Path 21881" d="M33.755,93.851H28.961a48.548,48.548,0,0,0,27.377,24.4h1.777c-10.683-4.24-19.43-13.079-24.36-24.4" transform="translate(-1.608 -5.212)" fill="#36a9d7"/>
      <path id="Path_21882" data-name="Path 21882" d="M29.931,81.071H24.692c.286,1.492.645,2.958,1.065,4.4h5.121q-.561-2.16-.947-4.4" transform="translate(-1.371 -4.502)" fill="#36a9d7"/>
      <path id="Path_21883" data-name="Path 21883" d="M123.9,85.468c.42-1.44.778-2.906,1.064-4.4h-5.239c-.254,1.492-.573,2.958-.946,4.4Z" transform="translate(-6.597 -4.502)" fill="#45c6f3"/>
      <path id="Path_21884" data-name="Path 21884" d="M90.189,118.252h1.777a48.542,48.542,0,0,0,27.377-24.4h-4.794c-4.929,11.323-13.677,20.162-24.36,24.4" transform="translate(-5.009 -5.212)" fill="#45c6f3"/>
      <path id="Path_21885" data-name="Path 21885" d="M117.987,85.468c.373-1.44.692-2.906.947-4.4h-13.8q-.191,2.228-.566,4.4Z" transform="translate(-5.807 -4.502)" fill="#5adbff"/>
      <path id="Path_21886" data-name="Path 21886" d="M114.12,93.851H101.4a45.2,45.2,0,0,1-18.933,24.4H89.76c10.683-4.24,19.43-13.079,24.36-24.4" transform="translate(-4.58 -5.212)" fill="#5adbff"/>
      <path id="Path_21887" data-name="Path 21887" d="M31.242,85.727a51.733,51.733,0,0,0,2.64,7.673H98.559a51.306,51.306,0,0,0,1.937-7.673Z" transform="translate(-1.735 -4.761)" fill="#d9eef4"/>
      <path id="Path_21888" data-name="Path 21888" d="M30.941,85.727H25.819A48.024,48.024,0,0,0,28.787,93.4h4.794a51.734,51.734,0,0,1-2.64-7.673" transform="translate(-1.434 -4.761)" fill="#bdd5db"/>
      <path id="Path_21889" data-name="Path 21889" d="M118.621,85.727a51.845,51.845,0,0,1-2.64,7.673h4.794a47.932,47.932,0,0,0,2.967-7.673Z" transform="translate(-6.441 -4.761)" fill="#d9eef4"/>
      <path id="Path_21890" data-name="Path 21890" d="M102.517,93.4h12.715a51.624,51.624,0,0,0,2.64-7.673H104.453a51.305,51.305,0,0,1-1.936,7.673" transform="translate(-5.694 -4.761)" fill="#fff"/>
      <path id="Path_21891" data-name="Path 21891" d="M33.081,39.265c6.455-1.279,9.967-7.952,10.392-17.057C43.953,11.9,38.347,2.256,32.061,1.772c-6.305-.1-12.783,8.974-13.264,19.286-.425,9.1,2.451,16.076,8.759,17.95,0,.011,0-.011,0,0,2.126,1.828-.825,16.079-.825,16.079l2.391.111.893.042,2.391.111s-1.623-14.434.665-16.055c0-.011.006-.021.009-.032" transform="translate(-1.042 -0.098)" fill="#e8eaef"/>
      <path id="Path_21892" data-name="Path 21892" d="M28.676,39.092a9.846,9.846,0,0,1-2.168-.953A10.361,10.361,0,0,1,24.342,36.5a11.893,11.893,0,0,1-1.735-2.18,15.133,15.133,0,0,1-1.307-2.67,20.106,20.106,0,0,1-.882-3.105,26.558,26.558,0,0,1-.459-3.486,34.481,34.481,0,0,1-.039-3.814l.006-.138c.467-10,6.577-18.845,12.7-19.27-.187-.031-.374-.055-.562-.069-6.305-.1-12.783,8.974-13.264,19.286-.425,9.1,2.451,16.076,8.759,17.95,2.126,1.827-.825,16.079-.825,16.079l1.439.067s.389-15.091,2.452-15.9a1.392,1.392,0,0,1-.411.035,5.023,5.023,0,0,1-1.535-.2" transform="translate(-1.042 -0.098)" fill="#bac0cc"/>
      <path id="Path_21893" data-name="Path 21893" d="M27.414,57.063c-.13.683-.215,1.095-.215,1.095l5.676.264s-.046-.418-.112-1.11Z" transform="translate(-1.511 -3.169)" fill="#bac0cc"/>
      <path id="Path_21894" data-name="Path 21894" d="M31.414,88.088,25.4,87.807c-.478-.023-2.734-.52-2.712-1l3.2-28.2a.874.874,0,0,1,.911-.829l6.016.281a.874.874,0,0,1,.83.91l.949,28.391c-.023.479-2.7.747-3.179.724" transform="translate(-1.26 -3.209)" fill="#e94982"/>
      <path id="Path_21895" data-name="Path 21895" d="M25.33,86.932l3.2-28.2a.874.874,0,0,1,.91-.83L26.8,57.781a.874.874,0,0,0-.911.829l-3.2,28.2c-.023.479,2.234.977,2.712,1l2.645.123c-.479-.022-2.735-.519-2.712-1" transform="translate(-1.26 -3.209)" fill="#cd3a77"/>
      <path id="Path_21896" data-name="Path 21896" d="M13.4,39.236a29.678,29.678,0,0,0,1.639-2.847c2.689-6.049.384-13.08-.961-19.188C13.073,12.644,9.6,0,9.6,0L9.146.069c.028.192.058.383.086.575q.119.789.237,1.577l.354,2.355.437,2.91.487,3.244.5,3.354.487,3.242q.218,1.454.437,2.907c.121.81.231,1.622.361,2.431a13.782,13.782,0,0,1,.265,2.45,1.167,1.167,0,0,1-.087.49.547.547,0,0,1-.613.279.744.744,0,0,1-.514-.621c-.06-.248-1.234-5.973-1.429-6.9q-.334-1.594-.67-3.188L8.783,11.81q-.347-1.656-.7-3.313-.317-1.512-.636-3.023l-.524-2.5L6.561,1.236C6.508.989,6.456.74,6.4.482L5.666.592c.008.057.015.113.024.169l.068.486c.036.256.071.512.108.768l.142,1.017L6.18,4.265l.2,1.414L6.6,7.242l.235,1.676q.123.878.246,1.758.126.9.253,1.8T7.584,14.3l.252,1.8q.122.871.245,1.744.116.829.231,1.658l.215,1.537q.1.691.194,1.383l.167,1.194.136.973c.034.239.067.478.1.717l.06.428a.749.749,0,0,1-.493.877.748.748,0,0,1-.729-.693l-.068-.427c-.039-.238-.077-.477-.115-.715l-.156-.97q-.095-.6-.191-1.19l-.221-1.378L6.965,19.7q-.133-.826-.265-1.652-.14-.87-.28-1.74-.145-.9-.288-1.794T5.842,12.7l-.289-1.8q-.14-.876-.281-1.752Q5.136,8.317,5,7.481q-.126-.779-.25-1.557l-.227-1.41q-.1-.615-.2-1.229-.081-.507-.162-1.014c-.042-.255-.082-.51-.124-.766-.026-.162-.052-.322-.077-.484C3.955.964,3.947.908,3.937.852L3.2.962c.025.264.047.517.071.769L3.433,3.5l.232,2.542q.14,1.537.281,3.076Q4.1,10.8,4.255,12.49q.157,1.714.314,3.427.149,1.622.3,3.244c.086.941.647,6.757.662,7.012a.746.746,0,0,1-.309.745.548.548,0,0,1-.668-.087,1.178,1.178,0,0,1-.228-.443,13.844,13.844,0,0,1-.467-2.42c-.113-.811-.247-1.619-.368-2.429q-.22-1.454-.437-2.908L2.563,15.39l-.5-3.355L1.572,8.792,1.134,5.881.78,3.527Q.663,2.739.544,1.95.5,1.663.457,1.375L0,1.443S.4,14.549.779,19.2c.508,6.233.372,13.631,4.72,18.623a29.873,29.873,0,0,0,2.4,2.239,19.213,19.213,0,0,1,1.408,2.13q.077.181.147.394v0h0c1.289,3.888,1.1,15.533,1.1,15.533l5.62-.844s-3.631-11.036-3.53-15.167l.014,0c-.007,0-.009-.008-.013-.015,0-.084,0-.172.008-.249a18.657,18.657,0,0,1,.749-2.607" transform="translate(0 0)" fill="#e8eaef"/>
      <path id="Path_21897" data-name="Path 21897" d="M13.483,39.273a40.21,40.21,0,0,0,2.171-4.558,16.93,16.93,0,0,0,.628-5.029A47.917,47.917,0,0,0,14.6,19.452c-.177-.75-.353-1.5-.519-2.252C13.073,12.643,9.6,0,9.6,0L9.146.069c.029.192.058.383.087.575q.118.789.236,1.576l.354,2.355.437,2.911.487,3.243.5,3.355.487,3.241q.218,1.455.437,2.908c.122.81.231,1.622.361,2.43a13.7,13.7,0,0,1,.265,2.45,1.186,1.186,0,0,1-.086.491.551.551,0,0,1-.614.279.744.744,0,0,1-.514-.621c-.06-.248-1.234-5.972-1.428-6.9q-.336-1.594-.671-3.189-.354-1.683-.707-3.368L8.086,8.5,7.452,5.473q-.264-1.25-.525-2.5L6.561,1.236C6.509.988,6.457.74,6.4.481L5.666.592c.008.056.015.112.024.169l.068.485.108.769.142,1.017L6.18,4.265l.2,1.414L6.6,7.241l.235,1.676.247,1.758.252,1.8L7.585,14.3q.125.9.251,1.8.122.873.245,1.745L8.313,19.5q.106.768.214,1.537.1.691.194,1.382l.167,1.195.136.972c.034.239.067.479.1.718l.06.428a.749.749,0,0,1-.493.877.75.75,0,0,1-.728-.694c-.024-.142-.046-.284-.069-.427-.039-.238-.077-.476-.115-.714-.052-.324-.1-.647-.155-.97q-.1-.6-.192-1.191l-.221-1.378L6.965,19.7q-.132-.826-.265-1.653-.139-.87-.28-1.74-.143-.9-.288-1.793T5.842,12.7l-.289-1.8q-.14-.876-.281-1.752Q5.136,8.317,5,7.481q-.125-.779-.25-1.558L4.526,4.514q-.1-.615-.2-1.229-.081-.507-.162-1.014c-.042-.255-.082-.511-.123-.766-.026-.162-.052-.323-.078-.485C3.956.964,3.947.908,3.937.851L3.2.962c.025.264.047.516.071.768L3.433,3.5l.232,2.542q.14,1.539.281,3.076Q4.1,10.8,4.255,12.49q.157,1.714.314,3.427.149,1.622.3,3.244c.086.941.647,6.757.662,7.012a.746.746,0,0,1-.308.745.549.549,0,0,1-.669-.087,1.159,1.159,0,0,1-.227-.444,13.749,13.749,0,0,1-.468-2.419c-.113-.811-.247-1.62-.368-2.429q-.218-1.455-.437-2.908l-.487-3.242q-.252-1.676-.5-3.354-.244-1.622-.488-3.243L1.134,5.881Q.957,4.7.781,3.527.662,2.738.544,1.95C.515,1.759.486,1.566.457,1.374L0,1.443S.4,14.548.779,19.2c.508,6.234.373,13.632,4.72,18.624.862.989,1.974,1.683,2.777,2.732,1.862,2.438,1.922,5.718,2.1,8.663.149,2.517.2,5.042.192,7.563,0,.446,0,.893-.009,1.339l5.62-.844a98.086,98.086,0,0,1-2.747-9.751,16.454,16.454,0,0,1-.477-6.593,7.881,7.881,0,0,1,.533-1.659" transform="translate(0 0)" fill="#e8eaef"/>
      <path id="Path_21898" data-name="Path 21898" d="M13.3,25.784a.55.55,0,0,0,.614-.28,1.178,1.178,0,0,0,.086-.49,13.7,13.7,0,0,0-.265-2.45c-.129-.808-.239-1.62-.361-2.43q-.218-1.454-.437-2.908l-.487-3.241-.5-3.355-.487-3.243q-.218-1.455-.437-2.911l-.354-2.355c-.021-.142-.043-.283-.063-.425C10.319.647,10.141,0,10.141,0L9.684.069c.028.192.058.383.086.575q.119.789.237,1.576l.354,2.355L10.8,7.486l.487,3.243.5,3.355.487,3.241.436,2.908c.122.81.232,1.622.362,2.43a13.88,13.88,0,0,1,.265,2.45,1.171,1.171,0,0,1-.087.491.474.474,0,0,1-.09.121.508.508,0,0,0,.137.059" transform="translate(-0.538 0)" fill="#bac0cc"/>
      <path id="Path_21899" data-name="Path 21899" d="M9.686,26.538a.747.747,0,0,0,.493-.876c-.02-.144-.04-.286-.06-.429q-.05-.358-.1-.717l-.136-.973-.167-1.194q-.1-.691-.194-1.383L9.307,19.43l-.232-1.658L8.83,16.028l-.252-1.8q-.128-.908-.254-1.818t-.253-1.8q-.123-.878-.246-1.758L7.59,7.172q-.109-.782-.219-1.563-.1-.707-.2-1.414L7,2.962q-.071-.509-.143-1.017l-.108-.768L6.683.691C6.675.635,6.668.579,6.659.522L6,.621c.008.057.016.113.024.17l.068.485.108.768q.071.509.143,1.017.086.616.172,1.233l.2,1.414q.109.782.219,1.563.116.837.234,1.676l.247,1.758.252,1.8.255,1.818q.126.9.251,1.8.123.871.245,1.744l.232,1.658.215,1.537q.1.691.194,1.383.084.6.166,1.194c.045.325.092.649.137.973.033.239.067.478.1.717l.06.429a.751.751,0,0,1-.185.677.965.965,0,0,0,.353.1" transform="translate(-0.333 -0.029)" fill="#bac0cc"/>
      <path id="Path_21900" data-name="Path 21900" d="M6.067,26.87a.745.745,0,0,0,.308-.745c-.014-.255-.575-6.071-.661-7.012q-.149-1.622-.3-3.244Q5.26,14.156,5.1,12.441L4.8,9.07,4.515,5.994Q4.4,4.722,4.282,3.452L4.12,1.683c-.023-.252-.046-.5-.07-.769l-.661.1c.025.264.047.517.071.769l.162,1.769.232,2.542q.14,1.537.281,3.076l.309,3.371q.156,1.714.313,3.427.149,1.622.3,3.244c.086.941.647,6.757.662,7.012a.834.834,0,0,1-.195.649.563.563,0,0,0,.547,0" transform="translate(-0.188 -0.051)" fill="#bac0cc"/>
      <path id="Path_21901" data-name="Path 21901" d="M11.033,49.2c-.175-2.945-.234-6.225-2.1-8.663-.8-1.049-1.914-1.743-2.777-2.732-4.347-4.991-4.212-12.389-4.72-18.623-.294-3.6-.6-12.27-.723-16L.544,2.031Q.5,1.744.457,1.456L0,1.524s.4,13.1.779,17.757c.508,6.233.372,13.631,4.72,18.623.862.989,1.974,1.683,2.777,2.732,1.862,2.438,1.922,5.719,2.1,8.663.149,2.517.2,5.042.193,7.563,0,.446,0,.893-.01,1.339l.661-.1c.008-.447.009-.893.009-1.339.006-2.522-.043-5.046-.192-7.563" transform="translate(0 -0.081)" fill="#bac0cc"/>
      <path id="Path_21902" data-name="Path 21902" d="M11.174,60.31c.006.7,0,1.115,0,1.115l5.62-.844s-.128-.4-.327-1.067Z" transform="translate(-0.621 -3.305)" fill="#bac0cc"/>
      <path id="Path_21903" data-name="Path 21903" d="M21.313,89.913l-5.957.9c-.473.071-2.783.022-2.855-.452L10.157,62.075a.875.875,0,0,1,.732-.992l5.957-.894a.872.872,0,0,1,.991.732L24.29,88.585c.072.474-2.5,1.258-2.977,1.329" transform="translate(-0.564 -3.342)" fill="#e94982"/>
      <path id="Path_21904" data-name="Path 21904" d="M14.23,90.135,11.886,61.853a.874.874,0,0,1,.732-.992l-1.728.26a.874.874,0,0,0-.732.992L12.5,90.394c.071.474,2.381.523,2.855.452l1.728-.26c-.474.071-2.784.022-2.855-.452" transform="translate(-0.564 -3.38)" fill="#cd3a77"/>
      <path id="Path_21905" data-name="Path 21905" d="M47.341,43.783a29.822,29.822,0,0,0,2.46-2.177c4.475-4.878,4.53-12.277,5.2-18.5.5-4.64,1.235-17.73,1.235-17.73l-.455-.08c-.034.191-.068.383-.1.573L55.4,7.443q-.207,1.173-.415,2.345-.256,1.449-.512,2.9-.286,1.614-.571,3.229l-.589,3.341q-.286,1.614-.57,3.228-.256,1.448-.512,2.9c-.143.807-.3,1.611-.432,2.419a13.765,13.765,0,0,1-.529,2.406,1.161,1.161,0,0,1-.238.437.55.55,0,0,1-.671.07.746.746,0,0,1-.289-.753c.022-.255.732-6.054.842-6.993l.38-3.236q.2-1.709.4-3.418.2-1.68.395-3.362.18-1.533.361-3.068l.3-2.535.207-1.765c.03-.251.06-.5.091-.766l-.734-.129-.031.168-.091.482c-.047.254-.1.508-.143.762q-.095.506-.189,1.01-.115.612-.229,1.224-.132.7-.263,1.4-.146.775-.291,1.551-.156.832-.311,1.664-.164.871-.327,1.744-.167.9-.335,1.792t-.338,1.8c-.111.6-.222,1.19-.333,1.786q-.163.866-.324,1.731-.154.823-.308,1.645-.143.762-.285,1.525-.129.686-.257,1.372-.112.592-.222,1.185-.091.482-.18.965l-.133.711c-.026.142-.053.283-.08.425a.637.637,0,1,1-1.216-.214L46.5,29l.119-.714.162-.969q.1-.6.2-1.189l.23-1.377q.128-.765.254-1.531l.275-1.651.289-1.738q.149-.9.3-1.792t.3-1.811q.149-.9.3-1.8l.292-1.751.278-1.67q.129-.779.259-1.556.118-.7.234-1.409l.2-1.227q.085-.507.169-1.013.064-.383.127-.765c.027-.162.054-.323.081-.485.009-.056.018-.112.027-.168l-.734-.13c-.06.258-.119.5-.178.752q-.205.864-.41,1.728l-.589,2.484q-.357,1.5-.713,3.005-.391,1.648-.781,3.294-.4,1.675-.794,3.348l-.752,3.17c-.218.92-1.539,6.611-1.606,6.858a.744.744,0,0,1-.53.608.549.549,0,0,1-.605-.295,1.175,1.175,0,0,1-.075-.493,13.754,13.754,0,0,1,.329-2.442c.15-.8.281-1.613.424-2.42q.255-1.448.511-2.9.286-1.614.57-3.228.3-1.67.59-3.341.286-1.614.571-3.229.255-1.449.512-2.9.207-1.173.415-2.345.137-.785.277-1.57l.1-.573-.456-.08s-3.794,12.55-4.915,17.08c-1.5,6.071-3.988,13.041-1.455,19.157a29.755,29.755,0,0,0,1.565,2.888,19.415,19.415,0,0,1,.656,2.467c.009.13.015.27.014.42l0,0h0c-.016,4.1-3.907,15.074-3.907,15.074l5.6.989s.073-11.618,1.483-15.5l.014,0c-.007,0-.007-.011-.008-.019.029-.078.058-.162.088-.234a18.74,18.74,0,0,1,1.539-2.232" transform="translate(-2.145 -0.205)" fill="#e8eaef"/>
      <path id="Path_21906" data-name="Path 21906" d="M47.407,43.845a40.069,40.069,0,0,0,3.51-3.63,16.9,16.9,0,0,0,2.2-4.566,47.889,47.889,0,0,0,1.661-10.238c.071-.767.143-1.534.225-2.3.5-4.64,1.235-17.73,1.235-17.73l-.455-.08c-.034.191-.067.383-.1.573L55.4,7.443l-.414,2.345-.513,2.9q-.285,1.614-.57,3.229-.295,1.67-.59,3.341-.285,1.614-.57,3.228-.256,1.448-.512,2.9c-.143.807-.3,1.611-.431,2.419a13.939,13.939,0,0,1-.529,2.406,1.169,1.169,0,0,1-.239.437.548.548,0,0,1-.67.07.743.743,0,0,1-.289-.753c.021-.255.731-6.054.842-6.993l.38-3.236q.2-1.709.4-3.418.2-1.68.4-3.362l.36-3.068.3-2.535q.1-.883.208-1.765c.029-.251.059-.5.09-.766l-.734-.129-.031.168-.091.482q-.071.381-.143.762-.094.506-.189,1.01-.113.612-.229,1.224-.132.7-.263,1.4-.145.775-.29,1.551l-.312,1.664q-.163.871-.327,1.744l-.334,1.792q-.17.9-.338,1.8l-.334,1.785q-.161.866-.324,1.731-.153.823-.308,1.645-.143.762-.285,1.525-.129.686-.257,1.372-.11.592-.222,1.185-.089.482-.18.965l-.133.711-.079.425a.637.637,0,1,1-1.216-.214L46.5,29l.119-.714q.079-.485.161-.969l.2-1.189q.115-.689.229-1.377l.255-1.531.275-1.651.289-1.738.3-1.792q.15-.905.3-1.811t.3-1.8q.146-.876.291-1.751l.278-1.67q.13-.779.259-1.556.118-.7.234-1.409.1-.613.2-1.227.084-.507.168-1.013l.128-.765c.026-.162.054-.323.08-.484l.028-.169-.734-.13-.179.752q-.2.864-.41,1.728-.295,1.241-.588,2.484-.357,1.5-.713,3.005l-.782,3.294q-.4,1.675-.794,3.348l-.752,3.171c-.218.919-1.539,6.61-1.606,6.857a.744.744,0,0,1-.529.608.55.55,0,0,1-.606-.295,1.174,1.174,0,0,1-.074-.493,13.841,13.841,0,0,1,.328-2.442c.15-.8.281-1.613.424-2.42q.256-1.448.512-2.9.285-1.614.57-3.228.295-1.67.59-3.341.285-1.614.57-3.229.256-1.449.512-2.9.207-1.173.415-2.345l.278-1.57q.05-.286.1-.573l-.455-.08s-3.795,12.55-4.916,17.08c-1.5,6.071-3.988,13.041-1.455,19.157.5,1.213,1.335,2.224,1.761,3.475.99,2.9,0,6.032-.771,8.879-.66,2.434-1.419,4.842-2.226,7.231-.143.422-.287.845-.436,1.267l5.6.989a98.061,98.061,0,0,1,.5-10.117,16.435,16.435,0,0,1,1.647-6.4,7.845,7.845,0,0,1,1.033-1.4" transform="translate(-2.145 -0.205)" fill="#e8eaef"/>
      <path id="Path_21907" data-name="Path 21907" d="M51.743,30.924a.549.549,0,0,0,.671-.069,1.168,1.168,0,0,0,.238-.437,13.775,13.775,0,0,0,.529-2.407c.135-.808.289-1.612.432-2.419q.255-1.448.511-2.9.286-1.614.57-3.228.3-1.67.59-3.34.286-1.615.571-3.23.255-1.449.512-2.9.207-1.172.415-2.345c.025-.141.049-.281.075-.423.063-1.085.1-1.755.1-1.755L56.5,5.395c-.034.192-.067.383-.1.573l-.278,1.57-.414,2.345-.513,2.9q-.285,1.615-.57,3.23-.295,1.669-.59,3.34-.285,1.614-.57,3.228-.256,1.448-.512,2.9c-.143.807-.3,1.611-.431,2.419a13.969,13.969,0,0,1-.529,2.407,1.184,1.184,0,0,1-.239.437.473.473,0,0,1-.123.086.485.485,0,0,0,.111.1" transform="translate(-2.868 -0.3)" fill="#bac0cc"/>
      <path id="Path_21908" data-name="Path 21908" d="M48.063,30.488a.747.747,0,0,0,.746-.674c.026-.142.053-.283.08-.425l.133-.711q.089-.483.18-.966.111-.592.222-1.184.128-.687.256-1.372l.286-1.525q.153-.823.308-1.645.161-.866.324-1.732.167-.893.333-1.785t.338-1.8q.167-.9.335-1.791.163-.873.327-1.744.154-.833.311-1.665.146-.775.29-1.55l.264-1.4q.113-.611.229-1.223.095-.5.189-1.01c.047-.254.1-.508.143-.762l.091-.482.031-.169-.658-.116-.031.168c-.03.162-.06.322-.09.483-.048.254-.1.508-.144.762q-.094.506-.189,1.01-.113.612-.229,1.223-.132.7-.263,1.4-.145.776-.29,1.551l-.312,1.664q-.163.873-.327,1.744l-.334,1.792q-.17.9-.338,1.8l-.334,1.785q-.161.866-.324,1.732-.153.823-.308,1.645-.143.762-.285,1.525-.129.686-.257,1.371-.11.594-.222,1.185-.089.483-.18.965l-.133.712-.079.425a.75.75,0,0,1-.391.583.941.941,0,0,0,.3.208" transform="translate(-2.653 -0.264)" fill="#bac0cc"/>
      <path id="Path_21909" data-name="Path 21909" d="M44.459,29.651a.743.743,0,0,0,.529-.608c.067-.247,1.388-5.938,1.606-6.858q.377-1.584.753-3.17.4-1.675.794-3.348.39-1.648.781-3.294.356-1.5.713-3.006l.589-2.483q.2-.866.41-1.729c.059-.247.117-.493.178-.751l-.657-.116-.179.751q-.2.864-.41,1.728L48.977,9.25q-.356,1.5-.713,3.006-.39,1.646-.781,3.294-.4,1.675-.794,3.348l-.752,3.17c-.218.92-1.539,6.611-1.606,6.858a.837.837,0,0,1-.391.553.565.565,0,0,0,.519.171" transform="translate(-2.44 -0.238)" fill="#bac0cc"/>
      <path id="Path_21910" data-name="Path 21910" d="M41.95,52.4c.772-2.847,1.76-5.975.77-8.879-.426-1.25-1.26-2.262-1.761-3.475-2.532-6.116-.048-13.086,1.455-19.157.869-3.508,3.339-11.821,4.411-15.4q.1-.574.2-1.147.051-.286.1-.573l-.454-.08s-3.795,12.55-4.917,17.08c-1.5,6.071-3.987,13.041-1.454,19.157.5,1.212,1.335,2.224,1.761,3.475.99,2.9,0,6.032-.772,8.879-.66,2.434-1.418,4.841-2.226,7.231-.143.422-.286.845-.435,1.267l.658.116q.222-.632.435-1.267c.808-2.389,1.566-4.8,2.227-7.231" transform="translate(-2.145 -0.205)" fill="#bac0cc"/>
      <path id="Path_21911" data-name="Path 21911" d="M38.983,63.015c-.216.66-.353,1.058-.353,1.058l5.6.989s.007-.42.03-1.114Z" transform="translate(-2.145 -3.5)" fill="#bac0cc"/>
      <path id="Path_21912" data-name="Path 21912" d="M38.769,94.325l-5.931-1.048c-.472-.083-2.646-.865-2.562-1.337l6.783-27.557a.874.874,0,0,1,1.01-.706L44,64.725a.874.874,0,0,1,.706,1.01L42.015,94.013c-.083.472-2.773.395-3.245.312" transform="translate(-1.681 -3.536)" fill="#e94982"/>
      <path id="Path_21913" data-name="Path 21913" d="M32,92.243,38.78,64.687a.875.875,0,0,1,1.01-.706l-1.721-.3a.874.874,0,0,0-1.01.706L30.276,91.939c-.084.472,2.09,1.254,2.562,1.337l1.721.3c-.472-.083-2.645-.865-2.562-1.337" transform="translate(-1.681 -3.536)" fill="#cd3a77"/>
      <path id="Path_21914" data-name="Path 21914" d="M5.87,66.981v51.981a2.6,2.6,0,0,0,2.789,2.344H44.53a2.6,2.6,0,0,0,2.789-2.344V66.981Z" transform="translate(-0.326 -3.72)" fill="#5b3e60"/>
      <path id="Path_21915" data-name="Path 21915" d="M45.869,66.981v51.981a2.6,2.6,0,0,1-2.789,2.344H46.6a2.6,2.6,0,0,0,2.789-2.344V66.981Z" transform="translate(-2.393 -3.72)" fill="#7d5d83"/>
      <path id="Path_21916" data-name="Path 21916" d="M16.418,118.962V66.981H5.87v51.981a2.6,2.6,0,0,0,2.789,2.344H19.207a2.6,2.6,0,0,1-2.789-2.344" transform="translate(-0.326 -3.72)" fill="#4a314f"/>
    </g>
  </g>
</svg>
