<svg xmlns="http://www.w3.org/2000/svg" viewBox="0 0 185 92.189">
  <defs>
    <clipPath id="clip-path">
      <rect id="Rectangle_11820" data-name="Rectangle 11820" width="185" height="92.189" fill="none"/>
    </clipPath>
  </defs>
  <g id="Group_18194" data-name="Group 18194" transform="translate(0 0)">
    <g id="Group_18193" data-name="Group 18193" transform="translate(0 0)" clip-path="url(#clip-path)">
      <path id="Path_22133" data-name="Path 22133" d="M27.328,3.406c.588-.043,1.059.354,1.585.234.686-.157,1.5-1.019,2.108-1.4A9.539,9.539,0,0,1,35.816.627a7.809,7.809,0,0,1,7.7,6.327c1.643,7.118-4.305,14.076-8.688,18.933-1.283,1.422-2.717,2.764-3.871,4.29-1.49,1.97-1.449,3.97-4.127,4.385q.286-3.9.579-7.8c.086-1.157-.191-1.425.729-1.668s1.634.422,2.644.022c2.068-.822,3.89-3.724,5.226-5.339a26.811,26.811,0,0,0,3.407-5.438c1.545-3.207,2.57-8.946-2.093-10.254A5.71,5.71,0,0,0,31.6,6.406c-1.056,1.794-.311,4.321-1.628,5.952-.351.437-1.988,1.8-2.644,1.539-.52-.209-1.563-3.37-1.726-3.936a7.648,7.648,0,0,1,1.73-6.555" transform="translate(52.788 1.289)" fill="#e9d2de"/>
      <path id="Path_22134" data-name="Path 22134" d="M42.55,19.144,19.725,29.269a1.665,1.665,0,0,1-2.191-.843l-1.206-2.717a1.667,1.667,0,0,1,.846-2.191L40,13.39a1.662,1.662,0,0,1,2.188.846l1.206,2.717a1.664,1.664,0,0,1-.843,2.191" transform="translate(33.627 27.521)" fill="#e9d2de"/>
      <path id="Path_22135" data-name="Path 22135" d="M36.945,13.295l-1.391.619L5.585,27.208S15.7,50.018,38.954,54.327c4.056-1.8,9.589-4.256,12.141-5.386l1.388-.619c2.551-1.129,8.085-3.585,12.141-5.386C77.035,22.81,66.916,0,66.916,0Z" transform="translate(11.603 -0.001)" fill="#fff"/>
      <path id="Path_22136" data-name="Path 22136" d="M36.945,13.295l-1.391.619L5.585,27.208S15.7,50.018,38.954,54.327c4.056-1.8,9.589-4.256,12.141-5.386l1.388-.619c2.551-1.129,8.085-3.585,12.141-5.386C77.035,22.81,66.916,0,66.916,0Z" transform="translate(11.603 -0.001)" fill="#fff"/>
      <path id="Path_22137" data-name="Path 22137" d="M7.7,23.111a61.3,61.3,0,0,0,5.029,7.758L55.665,11.82A68.476,68.476,0,0,0,53.39,2.84Z" transform="translate(15.995 5.899)" fill="#ffc31d"/>
      <path id="Path_22138" data-name="Path 22138" d="M7.624,14.011l4.465-1.982A42.885,42.885,0,0,1,10.2,8.176L5.584,10.223S15.7,33.036,38.953,37.341c.656-.289,1.351-.6,2.062-.914-11.02-2.61-18.874-10.051-23.9-16.64l-4.065,1.8a57.44,57.44,0,0,1-5.429-7.58" transform="translate(11.601 16.984)" fill="#e9d2de"/>
      <path id="Path_22139" data-name="Path 22139" d="M6.247,11.41a57.44,57.44,0,0,0,5.429,7.58l4.065-1.8a62.1,62.1,0,0,1-5.029-7.758Z" transform="translate(12.978 19.585)" fill="#eea70a"/>
      <path id="Path_22140" data-name="Path 22140" d="M22.062,4.712s.659,1.5,1.49,4.028L34.12,4.053A57.95,57.95,0,0,1,36.1,13.165L25.826,17.72c1.474,8.146,1.837,18.89-2.97,28.559,2.447-1.083,5.226-2.317,7.534-3.342C42.8,22.81,32.685,0,32.685,0Z" transform="translate(45.833 -0.001)" fill="#e9d2de"/>
      <path id="Path_22141" data-name="Path 22141" d="M33.117,1.317,22.546,6.007a68.348,68.348,0,0,1,2.274,8.98l10.27-4.558a57.722,57.722,0,0,0-1.973-9.112" transform="translate(46.839 2.735)" fill="#eea70a"/>
      <path id="Path_22142" data-name="Path 22142" d="M47.582,17.917c-.557.2-.825.751-1.357.856a9.239,9.239,0,0,1-2.49-.422,9.567,9.567,0,0,0-5.041.468,7.812,7.812,0,0,0-4.472,8.906c1.385,7.171,9.642,11.119,15.621,13.784,1.748.779,3.6,1.422,5.275,2.348,2.163,1.2,2.936,3.044,5.555,2.339q-1.846-3.453-3.7-6.9c-.548-1.025-.4-1.382-1.342-1.231s-1.323,1.049-2.41,1.093C51,39.244,48.16,37.33,46.286,36.4a26.723,26.723,0,0,1-5.318-3.591c-2.714-2.3-5.98-7.134-2.247-10.22a5.711,5.711,0,0,1,6.177-.2c1.69,1.213,2.037,3.825,3.9,4.782.5.259,2.548.843,3.041.335.391-.4.065-3.715-.018-4.3a7.651,7.651,0,0,0-4.238-5.29" transform="translate(70.766 37.221)" fill="#e9d2de"/>
      <path id="Path_22143" data-name="Path 22143" d="M46.276,34.112H71.246a1.663,1.663,0,0,0,1.659-1.659V29.478a1.661,1.661,0,0,0-1.659-1.659H46.276a1.661,1.661,0,0,0-1.659,1.659v2.976a1.663,1.663,0,0,0,1.659,1.659" transform="translate(92.691 57.792)" fill="#e9d2de"/>
      <path id="Path_22144" data-name="Path 22144" d="M71.1,16.311h34.308s0,24.955-19.505,38.321H57.82C38.312,41.266,38.312,16.311,38.312,16.311Z" transform="translate(79.593 33.885)" fill="#fff"/>
      <path id="Path_22145" data-name="Path 22145" d="M71.1,16.311h34.308s0,24.955-19.505,38.321H57.82C38.312,41.266,38.312,16.311,38.312,16.311Z" transform="translate(79.593 33.885)" fill="#fff"/>
      <path id="Path_22146" data-name="Path 22146" d="M92.164,17.7a61.8,61.8,0,0,1-1.449,9.131H43.742A68.548,68.548,0,0,1,42.176,17.7Z" transform="translate(87.62 36.779)" fill="#ffc31d"/>
      <path id="Path_22147" data-name="Path 22147" d="M74.478,20.6h-4.89a42.782,42.782,0,0,0,.166-4.287H74.8s0,24.955-19.505,38.318H53.043c9.017-6.854,13.178-16.84,15.1-24.9h4.447A57.882,57.882,0,0,0,74.478,20.6" transform="translate(110.196 33.885)" fill="#e9d2de"/>
      <path id="Path_22148" data-name="Path 22148" d="M64.288,17.7a57.88,57.88,0,0,1-1.893,9.131H57.948A61.8,61.8,0,0,0,59.4,17.7Z" transform="translate(120.386 36.779)" fill="#eea70a"/>
      <path id="Path_22149" data-name="Path 22149" d="M49.933,16.311s0,1.634.271,4.287H38.638a57.519,57.519,0,0,0,1.9,9.131H51.767c1.951,8.045,5.98,18.013,14.295,24.9H57.817C38.312,41.266,38.312,16.311,38.312,16.311Z" transform="translate(79.593 33.885)" fill="#e9d2de"/>
      <path id="Path_22150" data-name="Path 22150" d="M38.419,17.7H49.984a67.974,67.974,0,0,0,1.563,9.131H40.312A57.879,57.879,0,0,1,38.419,17.7" transform="translate(79.815 36.779)" fill="#eea70a"/>
      <path id="Path_22151" data-name="Path 22151" d="M16.832,8.527c-.588-.043-1.059.354-1.585.234-.686-.157-1.5-1.022-2.108-1.4A9.539,9.539,0,0,0,8.345,5.748a7.809,7.809,0,0,0-7.7,6.327C-1,19.193,4.95,26.148,9.333,31.008c1.283,1.422,2.717,2.764,3.871,4.287,1.49,1.973,1.449,3.973,4.127,4.388q-.286-3.9-.579-7.8c-.086-1.157.191-1.425-.729-1.668s-1.634.422-2.644.022c-2.068-.822-3.89-3.724-5.226-5.339a26.811,26.811,0,0,1-3.407-5.438C3.2,16.248,2.177,10.509,6.84,9.2a5.71,5.71,0,0,1,5.724,2.327c1.056,1.794.311,4.321,1.628,5.952.351.437,1.988,1.8,2.64,1.539.523-.209,1.566-3.37,1.73-3.936a7.646,7.646,0,0,0-1.73-6.555" transform="translate(0.759 11.928)" fill="#e9d2de"/>
      <path id="Path_22152" data-name="Path 22152" d="M7.662,24.264,30.487,34.389a1.665,1.665,0,0,0,2.191-.843l1.206-2.72a1.664,1.664,0,0,0-.846-2.188L10.213,18.51a1.662,1.662,0,0,0-2.188.846L6.818,22.073a1.664,1.664,0,0,0,.843,2.191" transform="translate(13.868 38.158)" fill="#e9d2de"/>
      <path id="Path_22153" data-name="Path 22153" d="M38.832,18.416l1.391.619L70.192,32.329S60.073,55.139,36.823,59.448c-4.056-1.8-9.589-4.256-12.141-5.386l-1.388-.619c-2.551-1.129-8.085-3.585-12.141-5.386C-1.258,27.931,8.86,5.121,8.86,5.121Z" transform="translate(10.331 10.638)" fill="#fff"/>
      <path id="Path_22154" data-name="Path 22154" d="M38.832,18.416l1.391.619L70.192,32.329S60.073,55.139,36.823,59.448c-4.056-1.8-9.589-4.256-12.141-5.386l-1.388-.619c-2.551-1.129-8.085-3.585-12.141-5.386C-1.258,27.931,8.86,5.121,8.86,5.121Z" transform="translate(10.331 10.638)" fill="#fff"/>
      <path id="Path_22155" data-name="Path 22155" d="M56.43,28.232A61.647,61.647,0,0,1,51.4,35.991L8.464,16.941a68.477,68.477,0,0,1,2.274-8.98Z" transform="translate(17.584 16.538)" fill="#ffc31d"/>
      <path id="Path_22156" data-name="Path 22156" d="M48.046,19.131l-4.472-1.982A42.885,42.885,0,0,0,45.467,13.3l4.616,2.047S39.964,38.156,16.714,42.461c-.656-.289-1.351-.6-2.062-.914,11.024-2.61,18.877-10.051,23.9-16.64l4.062,1.8a57.566,57.566,0,0,0,5.435-7.58" transform="translate(30.439 27.621)" fill="#e9d2de"/>
      <path id="Path_22157" data-name="Path 22157" d="M31.914,16.53a57.566,57.566,0,0,1-5.435,7.58l-4.062-1.8a61.672,61.672,0,0,0,5.026-7.758Z" transform="translate(46.571 30.222)" fill="#eea70a"/>
      <path id="Path_22158" data-name="Path 22158" d="M19.484,9.832s-.662,1.5-1.493,4.032L7.42,9.173a58.113,58.113,0,0,0-1.97,9.112l10.27,4.558c-1.477,8.143-1.84,18.89,2.967,28.556l-7.534-3.342C-1.258,27.93,8.86,5.12,8.86,5.12Z" transform="translate(10.331 10.635)" fill="#e9d2de"/>
      <path id="Path_22159" data-name="Path 22159" d="M7.1,6.437l10.571,4.69a68.349,68.349,0,0,0-2.274,8.98L5.127,15.553A58.041,58.041,0,0,1,7.1,6.437" transform="translate(10.651 13.372)" fill="#eea70a"/>
      <path id="Path_22160" data-name="Path 22160" d="M13.516,17.917c-.557.2-.825.751-1.354.856a9.241,9.241,0,0,1-2.493-.422,9.573,9.573,0,0,0-5.041.468A7.81,7.81,0,0,0,.16,27.725C1.541,34.9,9.8,38.844,15.778,41.509c1.748.779,3.6,1.422,5.278,2.348,2.16,1.2,2.933,3.044,5.552,2.339q-1.846-3.453-3.7-6.9c-.548-1.025-.4-1.382-1.342-1.231s-1.323,1.049-2.41,1.093c-2.222.086-5.066-1.828-6.94-2.761A26.723,26.723,0,0,1,6.9,32.806c-2.714-2.3-5.98-7.134-2.247-10.22a5.711,5.711,0,0,1,6.177-.2c1.69,1.213,2.037,3.825,3.9,4.782.5.259,2.551.843,3.041.335.394-.4.065-3.715-.018-4.3a7.635,7.635,0,0,0-4.238-5.29" transform="translate(0 37.221)" fill="#e9d2de"/>
      <path id="Path_22161" data-name="Path 22161" d="M12.213,34.112H37.183a1.663,1.663,0,0,0,1.659-1.659V29.478a1.661,1.661,0,0,0-1.659-1.659H12.213a1.661,1.661,0,0,0-1.659,1.659v2.976a1.663,1.663,0,0,0,1.659,1.659" transform="translate(21.926 57.792)" fill="#e9d2de"/>
      <path id="Path_22162" data-name="Path 22162" d="M37.036,16.311H71.343s0,24.955-19.505,38.321H23.756C4.248,41.266,4.248,16.311,4.248,16.311Z" transform="translate(8.825 33.885)" fill="#fff"/>
      <path id="Path_22163" data-name="Path 22163" d="M37.036,16.311H71.343s0,24.955-19.505,38.321H23.756C4.248,41.266,4.248,16.311,4.248,16.311Z" transform="translate(8.825 33.885)" fill="#fff"/>
      <path id="Path_22164" data-name="Path 22164" d="M58.1,17.7a61.8,61.8,0,0,1-1.449,9.131H9.678A68.547,68.547,0,0,1,8.112,17.7Z" transform="translate(16.853 36.779)" fill="#ffc31d"/>
      <path id="Path_22165" data-name="Path 22165" d="M40.414,20.6h-4.89c.215-2.653.169-4.287.169-4.287H40.74s0,24.955-19.505,38.318H18.979c9.017-6.854,13.178-16.84,15.1-24.9h4.447A57.879,57.879,0,0,0,40.414,20.6" transform="translate(39.429 33.885)" fill="#e9d2de"/>
      <path id="Path_22166" data-name="Path 22166" d="M30.224,17.7a57.88,57.88,0,0,1-1.893,9.131H23.884A61.8,61.8,0,0,0,25.333,17.7Z" transform="translate(49.619 36.779)" fill="#eea70a"/>
      <path id="Path_22167" data-name="Path 22167" d="M15.87,16.311s0,1.634.271,4.287H4.575a57.81,57.81,0,0,0,1.893,9.131H17.7c1.951,8.045,5.98,18.013,14.292,24.9H23.754C4.249,41.266,4.249,16.311,4.249,16.311Z" transform="translate(8.827 33.885)" fill="#e9d2de"/>
      <path id="Path_22168" data-name="Path 22168" d="M4.355,17.7H15.92a67.972,67.972,0,0,0,1.563,9.131H6.248A57.879,57.879,0,0,1,4.355,17.7" transform="translate(9.047 36.779)" fill="#eea70a"/>
      <path id="Path_22169" data-name="Path 22169" d="M30.417,51.678l2.687-32.8h10.58l2.687,32.8s.185,1.293-.514,1.293H30.931c-.7,0-.514-1.293-.514-1.293" transform="translate(63.145 39.218)" fill="#45c6f3"/>
      <path id="Path_22170" data-name="Path 22170" d="M37.4,51.678l-2.687-32.8h5.373l5.416,32.8a.965.965,0,0,1-1.037,1.293h-7.58c.7,0,.514-1.293.514-1.293" transform="translate(72.116 39.218)" fill="#5adbff"/>
      <path id="Path_22171" data-name="Path 22171" d="M27.8,51.678l5.416-32.8h5.373L35.9,51.678s-.182,1.293.517,1.293H28.835A.966.966,0,0,1,27.8,51.678" transform="translate(57.658 39.218)" fill="#36a9d7"/>
      <path id="Path_22172" data-name="Path 22172" d="M27.8,51.678l5.416-32.8h.729l-5.419,32.8a.967.967,0,0,0,1.04,1.293h-.729A.966.966,0,0,1,27.8,51.678" transform="translate(57.658 39.218)" fill="#45c6f3"/>
      <rect id="Rectangle_11817" data-name="Rectangle 11817" width="21.373" height="5.213" transform="translate(90.872 52.88)" fill="#36a9d7"/>
      <rect id="Rectangle_11818" data-name="Rectangle 11818" width="4.69" height="5.213" transform="translate(91.558 52.88)" fill="#2c92bf"/>
      <rect id="Rectangle_11819" data-name="Rectangle 11819" width="5.416" height="5.213" transform="translate(106.829 52.88)" fill="#45c6f3"/>
      <path id="Path_22173" data-name="Path 22173" d="M30.145,24.085H51.783a.991.991,0,0,0,.988-.988V16.108a.992.992,0,0,0-.988-.991H30.145a.992.992,0,0,0-.988.991V23.1a.991.991,0,0,0,.988.988" transform="translate(60.573 31.404)" fill="#7d5d83"/>
      <path id="Path_22174" data-name="Path 22174" d="M30.145,15.117h17.1a.994.994,0,0,0-.991.988v6.989a.994.994,0,0,0,.991.991h-17.1a.992.992,0,0,1-.988-.991V16.1a.991.991,0,0,1,.988-.988" transform="translate(60.573 31.404)" fill="#5b3e60"/>
      <path id="Path_22175" data-name="Path 22175" d="M30.145,15.117h6.518a.991.991,0,0,0-.988.988v6.989a.992.992,0,0,0,.988.991H30.145a.992.992,0,0,1-.988-.991V16.1a.991.991,0,0,1,.988-.988" transform="translate(60.573 31.404)" fill="#4a314f"/>
    </g>
  </g>
</svg>
