<svg xmlns="http://www.w3.org/2000/svg" xmlns:xlink="http://www.w3.org/1999/xlink" x="0px" y="0px"
	 width="512px" height="512px" viewBox="0 0 512 512" style="enable-background:new 0 0 512 512;" xml:space="preserve">
<style type="text/css">
	.st0{clip-path:url(#SVGID_2_);}
	.st1{fill:#E9D2DE;}
	.st2{fill:#FFFFFF;}
	.st3{fill:#FFC31D;}
	.st4{fill:#EEA70A;}
	.st5{fill:#45C6F3;}
	.st6{fill:#5ADBFF;}
	.st7{fill:#36A9D7;}
	.st8{fill:#2C92BF;}
	.st9{fill:#7D5D83;}
	.st10{fill:#5B3E60;}
	.st11{fill:#4A314F;}
</style>
<g id="Group_18194" transform="translate(0 0)">
	<g>
		<defs>
			<rect id="SVGID_1_" x="14.6" y="244.6" width="481.4" height="239.9"/>
		</defs>
		<clipPath id="SVGID_2_">
			<use xlink:href="#SVGID_1_"  style="overflow:visible;"/>
		</clipPath>
		<g id="Group_18193" transform="translate(0 0)" class="st0">
			<path id="Path_22133" class="st1" d="M223,256.8c1.5-0.1,2.8,0.9,4.1,0.6c1.8-0.4,3.9-2.7,5.5-3.6c3.7-2.5,8-3.9,12.5-4.2
				c9.8,0,18.2,6.9,20,16.5c4.3,18.5-11.2,36.6-22.6,49.3c-3.3,3.7-7.1,7.2-10.1,11.2c-3.9,5.1-3.8,10.3-10.7,11.4
				c0.5-6.8,1-13.5,1.5-20.3c0.2-3-0.5-3.7,1.9-4.3s4.3,1.1,6.9,0.1c5.4-2.1,10.1-9.7,13.6-13.9c3.5-4.3,6.5-9.1,8.9-14.1
				c4-8.3,6.7-23.3-5.4-26.7c-5.7-1.1-11.5,1.3-14.9,6c-2.7,4.7-0.8,11.2-4.2,15.5c-0.9,1.1-5.2,4.7-6.9,4
				c-1.4-0.5-4.1-8.8-4.5-10.2C217.3,267.8,219,261.5,223,256.8"/>
			<path id="Path_22134" class="st1" d="M212.8,366l-59.4,26.3c-2.2,1-4.7,0-5.7-2.2l-3.1-7.1c-1-2.2,0-4.7,2.2-5.7l59.4-26.4
				c2.2-1,4.7,0,5.7,2.2l3.1,7.1C215.9,362.5,215,365.1,212.8,366"/>
			<path id="Path_22135" class="st2" d="M140.9,279.2l-3.6,1.6l-78,34.6c0,0,26.3,59.3,86.8,70.6c10.6-4.7,24.9-11.1,31.6-14
				l3.6-1.6c6.6-2.9,21-9.3,31.6-14c32.3-52.4,6-111.7,6-111.7L140.9,279.2z"/>
			<path id="Path_22136" class="st2" d="M140.9,279.2l-3.6,1.6l-78,34.6c0,0,26.3,59.3,86.8,70.6c10.6-4.7,24.9-11.1,31.6-14
				l3.6-1.6c6.6-2.9,21-9.3,31.6-14c32.3-52.4,6-111.7,6-111.7L140.9,279.2z"/>
			<path id="Path_22137" class="st3" d="M76.2,320.1c3.8,7,8.2,13.8,13.1,20.2L201,290.7c-1.4-7.9-3.4-15.7-5.9-23.4L76.2,320.1z"/>
			<path id="Path_22138" class="st1" d="M64.6,325.3l11.6-5.2c-1.8-3.3-3.4-6.6-4.9-10l-12,5.3c0,0,26.3,59.4,86.8,70.6
				c1.7-0.8,3.5-1.6,5.4-2.4c-28.7-6.8-49.1-26.2-62.2-43.3L78.7,345C73.5,338.8,68.8,332.2,64.6,325.3"/>
			<path id="Path_22139" class="st4" d="M64.6,325.3c4.2,6.9,8.9,13.5,14.1,19.7l10.6-4.7c-4.9-6.4-9.2-13.1-13.1-20.2L64.6,325.3z"
				/>
			<path id="Path_22140" class="st1" d="M191.2,256.9c0,0,1.7,3.9,3.9,10.5l27.5-12.2c2.4,7.8,4.1,15.7,5.2,23.7L201,290.7
				c3.8,21.2,4.8,49.1-7.7,74.3c6.4-2.8,13.6-6,19.6-8.7c32.3-52.4,6-111.7,6-111.7L191.2,256.9z"/>
			<path id="Path_22141" class="st4" d="M222.6,255.2l-27.5,12.2c2.5,7.6,4.5,15.5,5.9,23.4l26.7-11.9
				C226.7,270.8,225,262.9,222.6,255.2"/>
			<path id="Path_22142" class="st1" d="M322.5,388.1c-1.4,0.5-2.1,2-3.5,2.2c-2.2-0.1-4.4-0.4-6.5-1.1c-4.4-0.8-8.9-0.4-13.1,1.2
				c-8.9,3.9-13.8,13.7-11.6,23.2c3.6,18.7,25.1,28.9,40.6,35.9c4.5,2,9.4,3.7,13.7,6.1c5.6,3.1,7.6,7.9,14.5,6.1
				c-3.2-6-6.4-12-9.6-18c-1.4-2.7-1-3.6-3.5-3.2s-3.4,2.7-6.3,2.8c-5.8,0.2-13.2-4.8-18-7.2c-5-2.5-9.6-5.7-13.8-9.3
				c-7.1-6-15.6-18.6-5.8-26.6c4.8-3.3,11.1-3.5,16.1-0.5c4.4,3.2,5.3,10,10.1,12.4c1.3,0.7,6.6,2.2,7.9,0.9c1-1,0.2-9.7,0-11.2
				C332.2,395.8,328.1,390.7,322.5,388.1"/>
			<path id="Path_22143" class="st1" d="M376.2,483.7h65c2.4,0,4.3-1.9,4.3-4.3v-7.7c0-2.4-1.9-4.3-4.3-4.3h-65
				c-2.4,0-4.3,1.9-4.3,4.3v7.7C371.9,481.8,373.8,483.7,376.2,483.7"/>
			<path id="Path_22144" class="st2" d="M406.7,375.2h89.3c0,0,0,64.9-50.8,99.7h-73.1c-50.8-34.8-50.8-99.7-50.8-99.7H406.7z"/>
			<path id="Path_22145" class="st2" d="M406.7,375.2h89.3c0,0,0,64.9-50.8,99.7h-73.1c-50.8-34.8-50.8-99.7-50.8-99.7H406.7z"/>
			<path id="Path_22146" class="st3" d="M482.4,386.4c-0.7,8-1.9,15.9-3.8,23.8H356.4c-1.9-7.8-3.3-15.8-4.1-23.8H482.4z"/>
			<path id="Path_22147" class="st1" d="M495.1,386.4h-12.7c0.3-3.7,0.5-7.4,0.4-11.2h13.1c0,0,0,64.9-50.8,99.7h-5.9
				c23.5-17.8,34.3-43.8,39.3-64.8h11.6C492.4,402.4,494.1,394.4,495.1,386.4"/>
			<path id="Path_22148" class="st4" d="M495.1,386.4c-1,8-2.6,16-4.9,23.8h-11.6c1.9-7.8,3.1-15.8,3.8-23.8H495.1z"/>
			<path id="Path_22149" class="st1" d="M351.6,375.2c0,0,0,4.3,0.7,11.2h-30.1c1,8,2.7,16,4.9,23.8h29.2
				c5.1,20.9,15.6,46.9,37.2,64.8h-21.5c-50.8-34.8-50.8-99.7-50.8-99.7H351.6z"/>
			<path id="Path_22150" class="st4" d="M322.2,386.4h30.1c0.8,8,2.2,15.9,4.1,23.8h-29.2C324.9,402.3,323.2,394.4,322.2,386.4"/>
			<path id="Path_22151" class="st1" d="M60.4,297.8c-1.5-0.1-2.8,0.9-4.1,0.6c-1.8-0.4-3.9-2.7-5.5-3.6c-3.7-2.5-8-3.9-12.5-4.2
				c-9.8,0-18.2,6.9-20,16.5c-4.3,18.5,11.2,36.6,22.6,49.3c3.3,3.7,7.1,7.2,10.1,11.2c3.9,5.1,3.8,10.3,10.7,11.4
				c-0.5-6.8-1-13.5-1.5-20.3c-0.2-3,0.5-3.7-1.9-4.3s-4.3,1.1-6.9,0.1c-5.4-2.1-10.1-9.7-13.6-13.9c-3.5-4.3-6.5-9.1-8.9-14.1
				c-4-8.4-6.7-23.3,5.4-26.7c5.7-1.1,11.5,1.3,14.9,6.1c2.7,4.7,0.8,11.2,4.2,15.5c0.9,1.1,5.2,4.7,6.9,4c1.4-0.5,4.1-8.8,4.5-10.2
				C66.1,308.8,64.4,302.5,60.4,297.8"/>
			<path id="Path_22152" class="st1" d="M70.6,407l59.4,26.3c2.2,1,4.7,0,5.7-2.2l3.1-7.1c1-2.2,0-4.7-2.2-5.7l-59.4-26.4
				c-2.2-1-4.7,0-5.7,2.2l-3.1,7.1C67.4,403.5,68.4,406.1,70.6,407"/>
			<path id="Path_22153" class="st2" d="M142.5,320.2l3.6,1.6l78,34.6c0,0-26.3,59.3-86.8,70.6c-10.6-4.7-24.9-11.1-31.6-14
				l-3.6-1.6c-6.6-2.9-21-9.3-31.6-14c-32.3-52.4-6-111.7-6-111.7L142.5,320.2z"/>
			<path id="Path_22154" class="st2" d="M142.5,320.2l3.6,1.6l78,34.6c0,0-26.3,59.3-86.8,70.6c-10.6-4.7-24.9-11.1-31.6-14
				l-3.6-1.6c-6.6-2.9-21-9.3-31.6-14c-32.3-52.4-6-111.7-6-111.7L142.5,320.2z"/>
			<path id="Path_22155" class="st3" d="M207.2,361.1c-3.9,7-8.2,13.8-13.1,20.2L82.4,331.7c1.4-7.9,3.4-15.7,5.9-23.4L207.2,361.1z
				"/>
			<path id="Path_22156" class="st1" d="M218.8,366.3l-11.6-5.2c1.8-3.3,3.5-6.6,4.9-10l12,5.3c0,0-26.3,59.3-86.8,70.5
				c-1.7-0.8-3.5-1.6-5.4-2.4c28.7-6.8,49.1-26.2,62.2-43.3l10.6,4.7C209.9,379.8,214.6,373.2,218.8,366.3"/>
			<path id="Path_22157" class="st4" d="M218.8,366.3c-4.2,6.9-8.9,13.5-14.1,19.7l-10.6-4.7c4.9-6.4,9.2-13.1,13.1-20.2
				L218.8,366.3z"/>
			<path id="Path_22158" class="st1" d="M92.2,297.9c0,0-1.7,3.9-3.9,10.5l-27.5-12.2c-2.3,7.8-4.1,15.7-5.1,23.7l26.7,11.9
				c-3.8,21.2-4.8,49.1,7.7,74.3l-19.6-8.7c-32.3-52.4-6-111.7-6-111.7L92.2,297.9z"/>
			<path id="Path_22159" class="st4" d="M60.8,296.2l27.5,12.2c-2.5,7.6-4.5,15.5-5.9,23.4l-26.7-11.8
				C56.7,311.8,58.4,303.9,60.8,296.2"/>
			<path id="Path_22160" class="st1" d="M49.7,388.1c-1.4,0.5-2.1,2-3.5,2.2c-2.2-0.1-4.4-0.4-6.5-1.1c-4.4-0.8-8.9-0.4-13.1,1.2
				c-8.9,3.9-13.8,13.7-11.6,23.2c3.6,18.7,25.1,28.9,40.6,35.9c4.5,2,9.4,3.7,13.7,6.1c5.6,3.1,7.6,7.9,14.4,6.1
				c-3.2-6-6.4-12-9.6-18c-1.4-2.7-1-3.6-3.5-3.2s-3.4,2.7-6.3,2.8c-5.8,0.2-13.2-4.8-18.1-7.2c-5-2.5-9.6-5.7-13.8-9.3
				c-7.1-6-15.6-18.6-5.8-26.6c4.8-3.3,11.1-3.5,16.1-0.5c4.4,3.2,5.3,10,10.1,12.4c1.3,0.7,6.6,2.2,7.9,0.9c1-1,0.2-9.7,0-11.2
				C59.4,395.8,55.4,390.7,49.7,388.1"/>
			<path id="Path_22161" class="st1" d="M103.4,483.7h65c2.4,0,4.3-1.9,4.3-4.3v-7.7c0-2.4-1.9-4.3-4.3-4.3h-65
				c-2.4,0-4.3,1.9-4.3,4.3v7.7C99.1,481.8,101,483.7,103.4,483.7"/>
			<path id="Path_22162" class="st2" d="M133.9,375.2h89.3c0,0,0,64.9-50.8,99.7H99.4c-50.8-34.8-50.8-99.7-50.8-99.7H133.9z"/>
			<path id="Path_22163" class="st2" d="M133.9,375.2h89.3c0,0,0,64.9-50.8,99.7H99.4c-50.8-34.8-50.8-99.7-50.8-99.7H133.9z"/>
			<path id="Path_22164" class="st3" d="M209.6,386.4c-0.7,8-1.9,15.9-3.8,23.8H83.6c-1.9-7.8-3.3-15.8-4.1-23.8H209.6z"/>
			<path id="Path_22165" class="st1" d="M222.3,386.4h-12.7c0.6-6.9,0.4-11.2,0.4-11.2h13.1c0,0,0,64.9-50.8,99.7h-5.9
				c23.5-17.8,34.3-43.8,39.3-64.8h11.6C219.7,402.4,221.3,394.4,222.3,386.4"/>
			<path id="Path_22166" class="st4" d="M222.3,386.4c-1,8-2.6,16-4.9,23.8h-11.6c1.8-7.8,3.1-15.8,3.8-23.8H222.3z"/>
			<path id="Path_22167" class="st1" d="M78.8,375.2c0,0,0,4.3,0.7,11.2H49.5c1,8,2.6,16,4.9,23.8h29.2
				c5.1,20.9,15.6,46.9,37.2,64.8H99.4c-50.8-34.8-50.8-99.7-50.8-99.7H78.8z"/>
			<path id="Path_22168" class="st4" d="M49.5,386.4h30.1c0.8,8,2.2,15.9,4.1,23.8H54.4C52.1,402.3,50.5,394.4,49.5,386.4"/>
			<path id="Path_22169" class="st5" d="M258,481.1l7-85.3h27.5l7,85.3c0,0,0.5,3.4-1.3,3.4h-38.8C257.5,484.5,258,481.1,258,481.1"
				/>
			<path id="Path_22170" class="st6" d="M299.5,481.1l-7-85.3h14l14.1,85.3c0.5,1.3-0.2,2.7-1.5,3.2c-0.4,0.1-0.8,0.2-1.2,0.1h-19.7
				C300,484.5,299.5,481.1,299.5,481.1"/>
			<path id="Path_22171" class="st7" d="M236.9,481.1l14.1-85.3h14l-7,85.3c0,0-0.5,3.4,1.3,3.4h-19.7c-1.4,0.2-2.6-0.8-2.8-2.2
				C236.7,481.9,236.8,481.5,236.9,481.1"/>
			<path id="Path_22172" class="st5" d="M236.9,481.1l14.1-85.3h1.9l-14.1,85.3c-0.5,1.3,0.2,2.8,1.5,3.2c0.4,0.1,0.8,0.2,1.2,0.1
				h-1.9c-1.4,0.2-2.6-0.8-2.8-2.1C236.7,481.9,236.8,481.5,236.9,481.1"/>
			<rect id="Rectangle_11817" x="251" y="382.2" class="st7" width="55.6" height="13.6"/>
			<rect id="Rectangle_11818" x="252.8" y="382.2" class="st8" width="12.2" height="13.6"/>
			<rect id="Rectangle_11819" x="292.5" y="382.2" class="st5" width="14.1" height="13.6"/>
			<path id="Path_22173" class="st9" d="M250.6,389h56.3c1.4,0,2.6-1.2,2.6-2.6v-18.2c0-1.4-1.2-2.6-2.6-2.6h-56.3
				c-1.4,0-2.6,1.2-2.6,2.6v18.2C248.1,387.8,249.2,389,250.6,389"/>
			<path id="Path_22174" class="st10" d="M250.6,365.7h44.5c-1.4,0-2.6,1.2-2.6,2.6v18.2c0,1.4,1.2,2.6,2.6,2.6h-44.5
				c-1.4,0-2.6-1.2-2.6-2.6v-18.2C248.1,366.8,249.2,365.6,250.6,365.7"/>
			<path id="Path_22175" class="st11" d="M250.6,365.7h17c-1.4,0-2.6,1.2-2.6,2.6v18.2c0,1.4,1.2,2.6,2.6,2.6h-17
				c-1.4,0-2.6-1.2-2.6-2.6v-18.2C248.1,366.8,249.2,365.6,250.6,365.7"/>
		</g>
	</g>
</g>
</svg>
