<svg xmlns="http://www.w3.org/2000/svg" xmlns:xlink="http://www.w3.org/1999/xlink" x="0px" y="0px"
	 width="512px" height="512px" viewBox="0 0 512 512" style="enable-background:new 0 0 512 512;" xml:space="preserve">
<style type="text/css">
	.st0{clip-path:url(#SVGID_2_);}
	.st1{fill:#705177;}
	.st2{fill:#5B3E60;}
	.st3{fill:#4F3554;}
	.st4{fill:#7C5D84;}
	.st5{fill:#614468;}
	.st6{fill:#896791;}
	.st7{fill:#C1B9C0;}
	.st8{fill:#ADA3AC;}
	.st9{fill:#D8D2D8;}
	.st10{fill:#47304C;}
	.st11{fill:#E03264;}
	.st12{fill:#42BFEA;}
	.st13{fill:#339BC4;}
	.st14{fill:#3299C6;}
	.st15{fill:#2985B2;}
	.st16{fill:#4FD3F7;}
	.st17{fill:#39AED8;}
	.st18{fill:#FFFFFF;}
	.st19{fill:#EDE6ED;}
</style>
<g>
	<defs>
		<rect id="SVGID_1_" x="145.4" y="23.6" width="362.6" height="476.3"/>
	</defs>
	<clipPath id="SVGID_2_">
		<use xlink:href="#SVGID_1_"  style="overflow:visible;"/>
	</clipPath>
	<g id="Group_18068" class="st0">
		<path id="Path_21661" class="st1" d="M415.1,429.1c0,13.8-11.2,25-25,25s-25-11.2-25-25C365.2,415.3,415.1,415.3,415.1,429.1"/>
		<path id="Path_21662" class="st1" d="M345.1,433.3h-15.9c-0.9,0-1.5-0.7-1.5-1.5v-4.1c0-0.9,0.7-1.5,1.5-1.5h15.9
			c0.9,0,1.5,0.7,1.5,1.5v4.1C346.7,432.6,346,433.3,345.1,433.3"/>
		<path id="Path_21663" class="st1" d="M451.1,433.3h-15.9c-0.9,0-1.5-0.7-1.5-1.5v-4.1c0-0.9,0.7-1.5,1.5-1.5h15.9
			c0.9,0,1.5,0.7,1.5,1.5v4.1C452.7,432.6,452,433.3,451.1,433.3"/>
		<path id="Path_21664" class="st2" d="M478.6,462.6l-5.1-22.9c-1.6-5.2-5.8-6.9-11.2-7.9c0,0-2.7-0.6-9.6-1.3v1.3
			c0,0.9-0.7,1.5-1.5,1.5h-15.9c-0.9,0-1.5-0.7-1.5-1.5V429c-5.3-0.3-11.5-0.5-18.6-0.7c0,0.3,0.1,0.5,0.1,0.8c0,13.8-11.2,25-25,25
			c-13.8,0-25-11.2-25-25c0,0,0,0,0,0c0-0.3,0-0.5,0.1-0.8c-7.1,0.2-13.3,0.4-18.6,0.7v2.7c0,0.9-0.7,1.5-1.5,1.5h-15.9
			c-0.9,0-1.5-0.7-1.5-1.5v-1.3c-6.9,0.7-9.6,1.3-9.6,1.3c-5.4,1-9.6,2.7-11.2,7.9l-5.1,22.9c-1,4.8,1.8,7.1,4.6,7.1h167.6
			C476.8,469.7,479.6,467.4,478.6,462.6"/>
		<path id="Path_21665" class="st2" d="M401.5,419.8v-49.7c0-1.3-1.1-2.4-2.4-2.4h-18c-1.3,0-2.4,1.1-2.4,2.4v49.7
			C386.3,418.4,394,418.4,401.5,419.8"/>
		<path id="Path_21666" class="st3" d="M390.9,367.7h-9.7c-1.3,0-2.4,1.1-2.4,2.4v49.7c4-0.7,8-1.1,12.1-1L390.9,367.7z"/>
		<path id="Path_21667" class="st4" d="M399.1,367.7L399.1,367.7l0,51.8c0.8,0.1,1.6,0.2,2.4,0.4v-49.7
			C401.5,368.8,400.4,367.7,399.1,367.7"/>
		<rect id="Rectangle_11750" x="381.2" y="362.1" class="st1" width="17.9" height="5.6"/>
		<rect id="Rectangle_11751" x="381.2" y="362.1" class="st5" width="8.1" height="5.6"/>
		<rect id="Rectangle_11752" x="396.1" y="362.1" class="st6" width="3" height="5.6"/>
		<path id="Path_21668" class="st2" d="M399.4,362.1h-18.5c-1.2,0-2.1-0.9-2.1-2.1v-18.6c0-1.2,0.9-2.1,2.1-2.1h18.5
			c1.2,0,2.1,0.9,2.1,2.1V360C401.5,361.2,400.6,362.1,399.4,362.1"/>
		<path id="Path_21669" class="st3" d="M390.9,339.4h-10c-1.2,0-2.1,0.9-2.1,2.1V360c0,1.2,0.9,2.1,2.1,2.1h10V339.4z"/>
		<path id="Path_21670" class="st4" d="M399.4,339.4h-0.3v22.7h0.3c1.2,0,2.1-0.9,2.1-2.1v-18.6
			C401.5,340.3,400.6,339.4,399.4,339.4"/>
		<rect id="Rectangle_11753" x="381.2" y="83.5" class="st1" width="17.9" height="255.9"/>
		<rect id="Rectangle_11754" x="396.1" y="83.5" class="st6" width="3" height="255.9"/>
		<rect id="Rectangle_11755" x="381.2" y="83.5" class="st5" width="8.1" height="255.9"/>
		<path id="Path_21671" class="st7" d="M461.5,27.4c-19.9-7.2-44.2-4.4-59.8,10.4c-12.4,11.8-18.1,28.8-19.5,45.7h16.5
			c0.6-12,5.2-23.4,13-32.5c11.5-12.2,30.4-13.5,45.4-7.8c28.7,11,38.5,47.4,33.1,75.1c-7.9,40.1-36.8,74.8-64.9,102.8
			c-24.9,24.8-52.5,46.7-85.5,59.6c-35.5,13.8-75.7,15.8-102.2-15.6c-6.8-8.1-18.4,3.6-11.6,11.6c58.9,69.9,159.3,6.9,208.7-41.7
			c32.7-32.1,67.4-73.9,72.8-121.2C511.3,79.4,496.1,39.9,461.5,27.4"/>
		<path id="Path_21672" class="st8" d="M346.2,278.1c-2.1,0.9-4.3,1.8-6.4,2.7c-35.5,13.8-75.7,15.8-102.2-15.6
			c-6.8-8.1-18.4,3.6-11.6,11.6c33.9,40.3,81.6,36.4,125.4,16.6C350.7,291.4,347.5,281.1,346.2,278.1"/>
		<path id="Path_21673" class="st9" d="M393,83.5h5.7c1.1-11.9,4.8-23.7,13-32.5c1.4-1.5,2.9-2.8,4.5-4c-4,1.8-7.6,4.3-10.6,7.5
			C398.5,62.7,394.1,72.8,393,83.5"/>
		<path id="Path_21674" class="st9" d="M461.5,27.4c-17.5-6.3-38.3-5-53.8,5.5c15-7,32.1-7.7,47.6-2c34.6,12.5,49.8,52,45.9,86.4
			c-5.4,47.3-40,89.1-72.8,121.2c-17.8,17.4-37.5,32.6-58.7,45.5c23.6-13.5,45.4-30,64.9-49c32.7-32.1,67.4-73.9,72.8-121.2
			C511.3,79.4,496.1,39.9,461.5,27.4"/>
		<path id="Path_21675" class="st9" d="M231.4,268.6c26.5,31.4,66.7,29.5,102.2,15.6c10.3-4,20.3-9,29.8-14.7
			c-7.6,4.2-15.5,8-23.6,11.1c-35.5,13.8-75.7,15.8-102.2-15.6c-2.5-3.1-7-3.6-10.1-1.1c-0.7,0.5-1.2,1.2-1.7,1.9
			C228,265.8,230.1,266.9,231.4,268.6"/>
		<path id="Path_21676" class="st8" d="M399,81.4h-16.5c-0.1,0.7-0.2,1.5-0.2,2.2h16.5C398.8,82.8,398.9,82.1,399,81.4"/>
		<path id="Path_21677" class="st2" d="M162,446.7c0-15.9,2.2-29.8,5.5-37.3h-0.3c-5.3,0-9.6,16.7-9.6,37.3
			c0,20.6,4.3,37.3,9.6,37.3h0.3C164.2,476.4,162,462.5,162,446.7"/>
		<path id="Path_21678" class="st2" d="M375,446.7c0-15.9-2.2-29.8-5.5-37.3h0.3c5.3,0,9.6,16.7,9.6,37.3c0,20.6-4.3,37.3-9.6,37.3
			h-0.3C372.8,476.4,375,462.5,375,446.7"/>
		<path id="Path_21679" class="st2" d="M201,355.5c5.2-22.7,14.9-53.6,35.6-70.7c18.5-15,45-15,63.5,0c20.7,17.2,30.4,48,35.6,70.7
			c0.7,3.3,1.4,6.5,1.9,9.8c7.8-0.7,15.6-1.9,23.3-3.6c0.6,6.9,1,13.9,1.4,20.8c-0.8-20.9-3.2-41.8-7.1-62.3
			c-0.9-4.7-2-9.4-3.1-14.1c-3.9-16.2-9.5-31.9-16.6-47c-6.4-13.6-13.9-29.3-28.4-36.8c-1.1-0.6-2.3-1.1-3.5-1.6
			c-11.3-4-23.2-5.9-35.2-5.7c-12-0.3-24,1.6-35.3,5.7c-19,7.2-28,29.7-35.3,46.2c-13.3,29.9-19.3,62.3-22,94.8
			c7.7,1.7,15.5,2.9,23.3,3.6C199.6,362,200.3,358.8,201,355.5"/>
		<path id="Path_21680" class="st10" d="M361.6,370.5c0.1,0.9,0.1,1.8,0.2,2.7C361.7,372.3,361.7,371.4,361.6,370.5"/>
		<path id="Path_21681" class="st10" d="M361.1,363.5c0.2,2.3,0.4,4.7,0.5,7C361.4,368.2,361.3,365.8,361.1,363.5"/>
		<path id="Path_21682" class="st10" d="M360.9,361.7L360.9,361.7c0,0.6,0.1,1.2,0.1,1.7C361,362.9,361,362.3,360.9,361.7"/>
		<path id="Path_21683" class="st10" d="M302.3,220.8c1.2,0.5,2.3,1,3.4,1.6c13.9,7.5,21.1,23.3,27.3,36.9c6.8,15.2,12.2,31,16,47.2
			c1.1,4.7,2.1,9.4,3,14.1c2.5,13.8,4.4,27.7,5.4,41.7l0,0v0.1c2.3-0.5,3.5-0.7,3.6-0.8c-1.1-13.9-3-27.8-5.6-41.5
			c-0.9-4.7-2-9.4-3.1-14.1c-4-16.2-9.5-31.9-16.6-47c-6.4-13.6-13.9-29.3-28.4-36.8c-1.1-0.6-2.3-1.1-3.5-1.6
			c-11.1-3.9-22.9-5.8-34.6-5.7C280.3,215,291.6,216.9,302.3,220.8"/>
		<path id="Path_21684" class="st10" d="M179.4,362.4c2.6-32.6,8.4-65.1,21.2-95.2c7-16.5,15.7-39.1,33.9-46.4
			c10.8-4.1,22.3-6.1,33.9-5.8l0,0c-12-0.3-24,1.6-35.3,5.7c-19,7.2-28,29.7-35.3,46.2c-13.3,29.9-19.3,62.3-22,94.8
			c0,0,1.7,0.4,5.4,1.1C180,362.6,179.4,362.4,179.4,362.4"/>
		<path id="Path_21685" class="st10" d="M361.8,373.2c0.2,3.1,0.4,6.2,0.5,9.3C362.2,379.4,362,376.3,361.8,373.2"/>
		<path id="Path_21686" class="st10" d="M357.4,362.5L357.4,362.5c0-0.1-0.5,0.1-1.5,0.3C356.4,362.7,356.9,362.6,357.4,362.5"/>
		<path id="Path_21687" class="st1" d="M300.1,284.8c-18.5-15-45-15-63.5,0c-20.7,17.2-30.4,48.1-35.6,70.7
			c-0.7,3.3-1.4,6.5-1.9,9.8c23,2.3,46.2,3.3,69.3,3.1c23.1,0.2,46.3-0.9,69.3-3.1c-0.6-3.3-1.2-6.6-1.9-9.8
			C330.5,332.8,320.8,301.9,300.1,284.8"/>
		<path id="Path_21688" class="st11" d="M176.7,361.8h-1.9H176.7z"/>
		<path id="Path_21689" class="st2" d="M210.3,497.6c0,1.2,1,2.2,2.2,2.2h16.1c1.2,0,2.2-1,2.2-2.2v-2.3l-20.5-2.8L210.3,497.6z"/>
		<path id="Path_21690" class="st2" d="M305.9,495.4v2.3c0,1.2,1,2.2,2.2,2.2h16.1c1.2,0,2.2-1,2.2-2.2v-5L305.9,495.4z"/>
		<path id="Path_21691" class="st12" d="M363,403.3c-0.1-6.9-0.4-13.7-0.7-20.7v0c-0.3-6.9-0.8-13.9-1.4-20.8
			c-7.7,1.7-15.5,2.9-23.3,3.6c2.6,14.6,2.9,29.4,0.8,44.1c-3.1,20.5-6.4,42.5-33.8,51c-11.8,3.3-24,4.8-36.3,4.5
			c-12.2,0.3-24.5-1.2-36.3-4.5c-27.4-8.5-30.7-30.5-33.8-51c-2.1-14.6-1.8-29.5,0.8-44.1c-7.8-0.7-15.6-1.9-23.3-3.6l0,0
			c-0.3,3.3-0.5,6.6-0.7,9.9l-0.1,1.2c-0.2,2.9-0.3,5.8-0.5,8.7c0,0.6-0.1,1.2-0.1,1.9c-0.1,2.7-0.2,5.4-0.3,8.1
			c0,0.7-0.1,1.4-0.1,2c-0.1,3.2-0.2,6.5-0.3,9.7c-0.5,22.8,3.6,45.6,12.1,66.7c3,7.4,5.6,15,13.1,19.4c9,5.3,21.7,5.6,32.1,6.5
			c24.7,2,49.5,2,74.2,0l0.4,0c10.3-0.9,23-1.2,32.1-6.5c7.5-4.4,10.2-11.9,13.1-19.4c3.4-8.5,6.2-17.3,8.2-26.3
			C362,430.4,363.3,416.8,363,403.3"/>
		<path id="Path_21692" class="st13" d="M363,403.3c-0.1-6.9-0.4-13.7-0.7-20.7v0c-0.3-6.9-0.8-13.9-1.4-20.8c0,0-1,0.3-3.2,0.7
			c0.5,6.3,1,12.7,1.3,19v0c0.3,6.5,0.5,13.1,0.7,19.6c0.5,21.6-3.5,43.1-11.7,63.2c-2.9,7-5.4,14.2-12.7,18.3
			c-8.7,5-21,5.3-30.9,6.2l-0.4,0c-23.8,1.9-47.8,1.9-71.6,0c-10-0.8-22.2-1.2-30.9-6.2c-7.3-4.2-9.8-11.3-12.7-18.3
			c-8.2-20-12.2-41.5-11.7-63.2c0.1-3.1,0.2-6.1,0.3-9.2c0-0.6,0-1.3,0.1-1.9c0.1-2.5,0.2-5.1,0.3-7.6c0-0.6,0.1-1.2,0.1-1.7
			c0.1-2.7,0.3-5.5,0.5-8.2c0-0.4,0-0.8,0.1-1.1c0.2-2.9,0.4-5.8,0.7-8.7c-2.2-0.4-3.2-0.7-3.2-0.7l0,0c-0.3,3.3-0.5,6.6-0.7,9.9
			l-0.1,1.2c-0.2,2.9-0.3,5.8-0.5,8.7c0,0.6-0.1,1.2-0.1,1.9c-0.1,2.7-0.2,5.4-0.3,8.1c0,0.7-0.1,1.4-0.1,2
			c-0.1,3.2-0.2,6.5-0.3,9.7c-0.5,22.8,3.6,45.6,12.1,66.7c3,7.4,5.6,15,13.1,19.4c9,5.3,21.7,5.6,32.1,6.5c24.7,2,49.5,2,74.2,0
			l0.4,0c10.3-0.9,23-1.2,32.1-6.5c7.5-4.4,10.2-11.9,13.1-19.4c3.4-8.5,6.2-17.3,8.2-26.3C362,430.4,363.3,416.8,363,403.3"/>
		<path id="Path_21693" class="st14" d="M199.1,365.3c-2.6,14.6-2.9,29.4-0.8,44.1c3.1,20.5,6.4,42.6,33.8,51
			c11.8,3.3,24,4.8,36.3,4.5c12.2,0.3,24.5-1.2,36.3-4.5c27.4-8.5,30.7-30.5,33.8-51c2.1-14.6,1.8-29.5-0.8-44.1
			c-23,2.3-46.2,3.3-69.3,3.1C245.2,368.6,222.1,367.6,199.1,365.3"/>
		<path id="Path_21694" class="st15" d="M338.4,408.1c-3.1,19.9-6.4,41.3-33.8,49.5c-11.8,3.2-24,4.7-36.3,4.4
			c-12.2,0.3-24.5-1.1-36.3-4.4c-27.4-8.2-30.7-29.6-33.8-49.5c-0.8-5.3-1.3-10.6-1.4-16c0.1,5.8,0.5,11.6,1.4,17.3
			c3.1,20.5,6.4,42.5,33.8,51c11.8,3.3,24,4.8,36.3,4.5c12.2,0.3,24.5-1.2,36.3-4.5c27.4-8.5,30.7-30.5,33.8-51
			c0.9-5.7,1.3-11.5,1.4-17.3C339.7,397.4,339.2,402.8,338.4,408.1"/>
		<path id="Path_21695" class="st12" d="M199,489.3c-7.5-4.4-10.2-11.9-13.1-19.4c-8.5-21.2-12.7-43.9-12.1-66.7h-1
			c-6.2,0-11.2,19.5-11.2,43.5s5,43.5,11.2,43.5h27.8C200,489.9,199.5,489.6,199,489.3"/>
		<path id="Path_21696" class="st12" d="M364,403.2h-1c0.3,13.6-1,27.2-4,40.4c-2,9-4.7,17.8-8.2,26.3c-3,7.4-5.6,15-13.1,19.4
			c-0.5,0.3-1,0.5-1.5,0.8H364c6.2,0,11.2-19.5,11.2-43.5S370.2,403.2,364,403.2"/>
		<path id="Path_21697" class="st16" d="M174.4,422.3c-0.6-6.4-0.8-12.7-0.7-19.1h-1c-3.9,0-7.3,7.6-9.3,19.1H174.4z"/>
		<path id="Path_21698" class="st16" d="M362.3,422.3h10.9c-2-11.5-5.4-19.1-9.3-19.1h-1C363.2,409.6,362.9,416,362.3,422.3"/>
		<path id="Path_21699" class="st17" d="M189.1,477.8h-24.2c2,7.6,4.8,12.3,7.8,12.3h27.8c-0.5-0.3-1-0.5-1.5-0.8
			C194.6,486.6,191.1,482.5,189.1,477.8"/>
		<path id="Path_21700" class="st17" d="M347.6,477.8c-2,4.8-5.4,8.8-9.9,11.5c-0.5,0.3-1,0.5-1.5,0.8H364c3,0,5.8-4.7,7.8-12.3
			L347.6,477.8z"/>
		<path id="Path_21701" class="st2" d="M288,303.5c0,10.8-8.8,19.6-19.6,19.6s-19.6-8.8-19.6-19.6c0-10.8,8.8-19.6,19.6-19.6
			S288,292.7,288,303.5"/>
		<path id="Path_21702" class="st10" d="M280.5,303.5c0,6.7-5.4,12.1-12.1,12.1s-12.1-5.4-12.1-12.1c0-6.7,5.4-12.1,12.1-12.1
			c0,0,0,0,0,0C275.1,291.4,280.5,296.8,280.5,303.5"/>
		<path id="Path_21703" class="st12" d="M301.7,417.8c0,18.4-14.9,33.4-33.4,33.4c-18.4,0-33.4-14.9-33.4-33.4
			c0-18.4,14.9-33.4,33.4-33.4C286.8,384.4,301.7,399.4,301.7,417.8C301.7,417.8,301.7,417.8,301.7,417.8"/>
		<path id="Path_21704" class="st18" d="M290.7,450.4c-0.3,0-0.6-0.1-0.8-0.4c-0.3-0.4-0.2-1,0.2-1.3c0,0,0,0,0,0l0.2-0.1
			c0.4-0.3,1-0.2,1.3,0.2c0.3,0.4,0.2,1-0.2,1.3l-0.1,0C291.1,450.3,290.9,450.4,290.7,450.4 M296.6,445.2c-0.5,0-1-0.4-1-0.9
			c0-0.2,0.1-0.4,0.2-0.6c0.4-0.4,1-0.5,1.4-0.1c0.4,0.3,0.5,0.9,0.2,1.2c0,0,0,0,0,0l-0.1,0.1C297.2,445.1,296.9,445.2,296.6,445.2
			 M301.4,438.9c-0.2,0-0.3,0-0.5-0.1c-0.5-0.2-0.6-0.8-0.4-1.3c0,0,0,0,0,0l0.1-0.2c0.3-0.5,0.9-0.6,1.3-0.3
			c0.4,0.3,0.6,0.8,0.3,1.3l0,0.1C302.1,438.7,301.7,438.9,301.4,438.9 M304.8,431.7c-0.1,0-0.2,0-0.3,0c-0.5-0.1-0.8-0.6-0.6-1.1
			c0,0,0,0,0,0l0.1-0.2c0.2-0.5,0.7-0.8,1.2-0.6c0.5,0.2,0.8,0.7,0.6,1.2l0,0v0C305.6,431.5,305.2,431.7,304.8,431.7 M306.7,424.1
			c0,0-0.1,0-0.1,0c-0.5-0.1-0.9-0.6-0.8-1.1c0,0,0,0,0,0c0.1-0.5,0.5-1,1.1-0.9c0.5,0,0.9,0.4,0.8,0.9c0,0,0,0,0,0.1l0,0.2
			C307.6,423.8,307.2,424.1,306.7,424.1 M229.7,418.7c-0.5,0-0.9-0.3-1-0.8c0,0,0,0,0-0.1v-0.2c0-0.5,0.4-0.9,0.8-1c0,0,0.1,0,0.1,0
			c0.5,0,1,0.4,1,1c0,0,0,0,0,0C230.6,418.2,230.2,418.6,229.7,418.7 M307,416.2c-0.5,0-0.9-0.4-1-0.9c0-0.5,0.4-1,0.9-1.1
			c0.5-0.1,0.9,0.2,1,0.7c0,0,0,0,0,0.1v0.2C308,415.7,307.6,416.2,307,416.2L307,416.2 M230.4,410.9c-0.1,0-0.1,0-0.2,0
			c-0.5-0.1-0.9-0.6-0.8-1.1c0,0,0,0,0,0l0-0.2c0.1-0.5,0.6-0.9,1.1-0.7c0.5,0.1,0.9,0.6,0.7,1.1l0,0.2
			C231.3,410.6,230.9,410.9,230.4,410.9 M305.7,408.4c-0.4,0-0.8-0.3-0.9-0.7l-0.1-0.2c-0.2-0.5,0.1-1.1,0.6-1.2
			c0.5-0.2,1.1,0.1,1.2,0.6c0,0,0,0.1,0,0.1l-0.9,0.3l1-0.1c0.1,0.5-0.1,1-0.7,1.2c0,0,0,0,0,0C305.9,408.4,305.8,408.4,305.7,408.4
			 M232.8,403.2c-0.1,0-0.2,0-0.3-0.1c-0.5-0.2-0.7-0.7-0.6-1.1c0,0,0,0,0-0.1l0.1-0.2c0.2-0.5,0.8-0.7,1.3-0.5
			c0.5,0.2,0.7,0.8,0.5,1.3c0,0,0,0.1,0,0.1C233.6,403,233.2,403.2,232.8,403.2 M302.8,401.1c-0.4,0-0.7-0.2-0.9-0.5l-0.1-0.2
			c-0.2-0.5-0.1-1.1,0.4-1.3c0.5-0.2,1.1-0.1,1.3,0.4l-0.9,0.4l0.9-0.3c0.2,0.5,0.1,1.1-0.4,1.3C303.1,401,302.9,401.1,302.8,401.1
			 M236.7,396.4c-0.2,0-0.4-0.1-0.5-0.2c-0.4-0.2-0.6-0.8-0.3-1.2c0,0,0,0,0,0l0.1-0.1c0.3-0.4,0.9-0.5,1.4-0.2
			c0.4,0.3,0.5,0.9,0.2,1.3c0,0,0,0,0,0C237.4,396.2,237.1,396.3,236.7,396.4 M298.5,394.5c-0.3,0-0.6-0.1-0.7-0.3l-0.1-0.2
			c-0.3-0.4-0.3-1,0.1-1.4c0.4-0.3,1-0.3,1.4,0.1l-0.8,0.6l0.9-0.5c0.3,0.4,0.3,1-0.1,1.4C298.9,394.4,298.7,394.5,298.5,394.5
			 M241.9,390.5c-0.5,0-1-0.4-1-1c0-0.3,0.1-0.5,0.3-0.7l0.1-0.1c0.4-0.4,1-0.4,1.4,0c0.4,0.4,0.4,0.9,0,1.3c0,0,0,0,0,0l-0.1,0.1
			C242.4,390.4,242.2,390.5,241.9,390.5 M292.9,388.8c-0.2,0-0.4-0.1-0.6-0.2c-0.4-0.3-0.5-1-0.2-1.4c0.3-0.4,0.8-0.5,1.2-0.2
			c0,0,0,0,0.1,0l0.2,0.1c0.4,0.3,0.5,0.9,0.1,1.4C293.4,388.7,293.2,388.8,292.9,388.8 M248.2,385.7c-0.5,0-1-0.4-1-1
			c0-0.3,0.2-0.7,0.5-0.8l0.5,0.8l-0.3-0.9c0.4-0.3,1-0.2,1.3,0.3c0.3,0.4,0.2,1-0.3,1.3c0,0,0,0,0,0l-0.2,0.1
			C248.6,385.7,248.4,385.7,248.2,385.7 M286.3,384.5c-0.1,0-0.3,0-0.4-0.1c-0.5-0.2-0.7-0.8-0.5-1.3c0.2-0.5,0.7-0.7,1.2-0.5
			c0,0,0,0,0.1,0l0.1,0.1c0.5,0.2,0.7,0.8,0.4,1.3C286.9,384.2,286.6,384.5,286.3,384.5 M255.5,382.2c-0.4,0-0.8-0.2-1-0.6
			c-0.2-0.4,0-1,0.4-1.2c0,0,0,0,0.1,0l0.2-0.1c0.5-0.2,1.1,0,1.3,0.5c0.2,0.5,0,1.1-0.5,1.3c0,0-0.1,0-0.1,0
			C255.7,382.2,255.6,382.2,255.5,382.2 M278.9,381.5c-0.1,0-0.2,0-0.3,0c-0.5-0.1-0.9-0.7-0.8-1.2c0.1-0.5,0.6-0.8,1-0.7
			c0,0,0,0,0,0l0.2,0.1c0.5,0.2,0.8,0.7,0.7,1.2C279.7,381.2,279.3,381.5,278.9,381.5 M263,380.4c-0.5,0-1-0.5-0.9-1
			c0-0.5,0.4-0.9,0.8-0.9l0.2,0c0.5-0.1,1,0.3,1.1,0.8c0.1,0.5-0.3,1-0.8,1.1l-0.2,0C263.1,380.4,263.1,380.4,263,380.4
			 M271.1,380.2L271.1,380.2h-0.3c-0.5,0-0.9-0.5-0.9-1c0-0.5,0.5-0.9,1-0.9l-0.1,1l0.2-1c0.5,0,0.9,0.5,0.9,1
			C272,379.8,271.6,380.2,271.1,380.2"/>
		<path id="Path_21705" class="st2" d="M290.4,417.8c0,12.2-9.9,22.1-22.1,22.1c-12.2,0-22.1-9.9-22.1-22.1
			c0-12.2,9.9-22.1,22.1-22.1S290.4,405.6,290.4,417.8L290.4,417.8"/>
		<path id="Path_21706" class="st1" d="M284.6,417.8c0,9-7.3,16.2-16.2,16.2c-9,0-16.2-7.3-16.2-16.2c0-9,7.3-16.2,16.2-16.2l0,0
			C277.3,401.6,284.6,408.8,284.6,417.8"/>
		<path id="Path_21707" class="st18" d="M276.1,248.6c0.2,3.9-2.8,7.2-6.6,7.4c-3.9,0.2-7.2-2.8-7.4-6.6c-0.2-3.9,2.8-7.2,6.6-7.4
			c0.1,0,0.3,0,0.4,0C272.8,241.9,276,244.8,276.1,248.6"/>
		<path id="Path_21708" class="st18" d="M289,245.7h-11.1c1,1.8,1,4,0,5.8H289c1.6,0.1,2.9-1.2,3-2.8c0.1-1.6-1.2-2.9-2.8-3
			C289.2,245.7,289.1,245.7,289,245.7"/>
		<path id="Path_21709" class="st18" d="M259.4,248.6c0-1,0.3-2,0.7-2.9h-11.1c-1.6-0.1-3,1.1-3.1,2.7c-0.1,1.6,1.1,3,2.7,3.1
			c0.1,0,0.3,0,0.4,0h11.1C259.7,250.6,259.5,249.6,259.4,248.6"/>
		<path id="Path_21710" class="st18" d="M270.2,414.9L270.2,414.9c-0.9-0.9-0.9-2.3,0-3.2l3.7-3.7c0.8-0.9,2.3-1,3.2-0.1
			c0.9,0.8,1,2.3,0.1,3.2c0,0-0.1,0.1-0.1,0.1l-3.7,3.7C272.5,415.8,271.1,415.8,270.2,414.9"/>
		<path id="Path_21711" class="st7" d="M262,227.6c-13.2-18.7-34.9-26.9-57.4-24.2c-23,2.5-43,16.7-53,37.5
			c-9.5,20.4-8.7,45.5,6.1,63.3c6.2,7.3,14.5,12.6,23.8,15.2c0.3-1.5,2.3-11.3,3.6-16c-8-2.5-14.7-8.1-18.7-15.4
			c-11-20.7-1.9-47.3,17-60c18-12.1,45-12.6,60.7,3.6c17.6,18.2,16.2,48.5,16.1,71.9c0,10.6,16.4,10.6,16.4,0
			C276.7,278.4,277.1,249.1,262,227.6"/>
		<path id="Path_21712" class="st9" d="M166.5,288.1c-10.4-19.5-2.9-44.3,13.8-57.7c-0.7,0.4-1.5,0.9-2.2,1.4
			c-18.8,13.1-28,40.6-17,61.9c4,7.8,14.4,14.5,22.3,17.2c0.7-2.5,1-4.1,1.8-7.4C177.2,300.9,170.5,295.4,166.5,288.1"/>
		<path id="Path_21713" class="st9" d="M262,227.6c-13.2-18.7-34.9-26.9-57.4-24.2c-10.5,1.3-20.6,4.9-29.5,10.7
			c7.5-4.1,15.7-6.7,24.2-7.7c22.3-3.3,44.6,6.4,57.4,25c15.1,22.1,14.7,52.4,14.7,78.3c0,0.5-0.1,0.9-0.1,1.4
			c3.3-0.9,5.6-4,5.5-7.5C276.7,278.4,277.1,249.1,262,227.6"/>
		<path id="Path_21714" class="st2" d="M310.1,357.1h-83.5c-3.2,0-5.8-2.6-5.8-5.8v-12.6c0-3.2,2.6-5.8,5.8-5.8h83.5
			c3.2,0,5.8,2.6,5.8,5.8v12.6C315.9,354.4,313.3,357,310.1,357.1"/>
		<path id="Path_21715" class="st19" d="M262,227.6c-13.2-18.7-34.9-26.9-57.4-24.2c-8.1,1-16,3.4-23.2,7.1
			c6.7-3.3,13.9-5.4,21.2-6.3c22.4-3.3,44.7,6.4,57.4,25.1c15.1,22.2,14.7,52.6,14.7,78.6c0,0.4,0,0.7-0.1,1.1
			c1.4-1.5,2.1-3.4,2.1-5.4C276.7,278.4,277.1,249.1,262,227.6"/>
		<path id="Path_21716" class="st19" d="M461.5,27.4c-15.7-5.8-33.2-5-48.3,2.3c4.4-1.8,9.1-3,13.8-3.7c10.9-1.8,22.1-0.8,32.5,3
			c35.1,12.8,50.5,52.9,46.5,88c-1.2,9.9-3.5,19.5-6.8,28.9c4.1-10.3,6.8-21.1,8.1-32.1C511.3,79.4,496.1,39.9,461.5,27.4"/>
	</g>
</g>
</svg>
