<svg xmlns="http://www.w3.org/2000/svg" viewBox="0 0 117.128 153.835">
  <defs>
    <clipPath id="clip-path">
      <rect id="Rectangle_11756" data-name="Rectangle 11756" width="117.128" height="153.835" fill="none"/>
    </clipPath>
  </defs>
  <g id="Group_18068" data-name="Group 18068" clip-path="url(#clip-path)">
    <path id="Path_21661" data-name="Path 21661" d="M111.845,175.439a8.071,8.071,0,0,1-16.143,0c0-4.457,16.143-4.457,16.143,0" transform="translate(-24.712 -44.438)" fill="#705177"/>
    <path id="Path_21662" data-name="Path 21662" d="M85.008,177.6H79.86a.5.5,0,0,1-.5-.5V175.77a.5.5,0,0,1,.5-.5h5.148a.5.5,0,0,1,.5.5V177.1a.5.5,0,0,1-.5.5" transform="translate(-20.493 -45.258)" fill="#705177"/>
    <path id="Path_21663" data-name="Path 21663" d="M131.168,177.6H126.02a.5.5,0,0,1-.5-.5V175.77a.5.5,0,0,1,.5-.5h5.148a.5.5,0,0,1,.5.5V177.1a.5.5,0,0,1-.5.5" transform="translate(-32.412 -45.258)" fill="#705177"/>
    <path id="Path_21664" data-name="Path 21664" d="M125.19,187.314l-1.657-7.407c-.521-1.669-1.874-2.233-3.63-2.547,0,0-.87-.191-3.1-.421v.416a.5.5,0,0,1-.5.5h-5.148a.5.5,0,0,1-.5-.5v-.868c-1.711-.089-3.7-.168-6.006-.227a1.682,1.682,0,0,1,.029.253,8.071,8.071,0,1,1-16.142,0,1.782,1.782,0,0,1,.029-.253c-2.307.059-4.294.138-6.006.227v.868a.5.5,0,0,1-.5.5H76.917a.5.5,0,0,1-.5-.5v-.416c-2.229.23-3.1.421-3.1.421-1.756.314-3.11.878-3.63,2.547l-1.658,7.407c-.32,1.554.586,2.309,1.5,2.309h54.15c.917,0,1.824-.755,1.5-2.309" transform="translate(-17.55 -45.514)" fill="#5b3e60"/>
    <path id="Path_21665" data-name="Path 21665" d="M108.976,166.68V150.616a.772.772,0,0,0-.769-.769h-5.8a.772.772,0,0,0-.769.769V166.68a20.686,20.686,0,0,1,7.341,0" transform="translate(-26.244 -38.693)" fill="#5b3e60"/>
    <path id="Path_21666" data-name="Path 21666" d="M105.543,149.847H102.4a.772.772,0,0,0-.77.769V166.68a19.931,19.931,0,0,1,3.908-.323Z" transform="translate(-26.244 -38.693)" fill="#4f3554"/>
    <path id="Path_21667" data-name="Path 21667" d="M110.491,149.847h-.008v16.717c.261.037.527.068.777.116V150.616a.771.771,0,0,0-.769-.769" transform="translate(-28.529 -38.693)" fill="#7c5d84"/>
    <rect id="Rectangle_11750" data-name="Rectangle 11750" width="5.795" height="1.796" transform="translate(76.168 109.358)" fill="#705177"/>
    <rect id="Rectangle_11751" data-name="Rectangle 11751" width="2.608" height="1.796" transform="translate(76.168 109.358)" fill="#614468"/>
    <rect id="Rectangle_11752" data-name="Rectangle 11752" width="0.977" height="1.796" transform="translate(80.986 109.358)" fill="#896791"/>
    <path id="Path_21668" data-name="Path 21668" d="M108.3,144.87H102.31a.677.677,0,0,1-.675-.675V138.2a.677.677,0,0,1,.675-.675H108.3a.677.677,0,0,1,.675.675v5.991a.677.677,0,0,1-.675.675" transform="translate(-26.244 -35.512)" fill="#5b3e60"/>
    <path id="Path_21669" data-name="Path 21669" d="M105.543,137.529H102.31a.677.677,0,0,0-.675.675v5.991a.677.677,0,0,0,.675.675h3.233Z" transform="translate(-26.244 -35.512)" fill="#4f3554"/>
    <path id="Path_21670" data-name="Path 21670" d="M110.585,137.529h-.1v7.341h.1a.677.677,0,0,0,.675-.675V138.2a.677.677,0,0,0-.675-.675" transform="translate(-28.529 -35.512)" fill="#7c5d84"/>
    <rect id="Rectangle_11753" data-name="Rectangle 11753" width="5.795" height="82.649" transform="translate(76.168 19.367)" fill="#705177"/>
    <rect id="Rectangle_11754" data-name="Rectangle 11754" width="0.977" height="82.649" transform="translate(80.986 19.367)" fill="#896791"/>
    <rect id="Rectangle_11755" data-name="Rectangle 11755" width="2.608" height="82.649" transform="translate(76.168 19.367)" fill="#614468"/>
    <path id="Path_21671" data-name="Path 21671" d="M110.941,1.235C104.509-1.1,96.679-.2,91.616,4.607c-4.009,3.808-5.84,9.3-6.287,14.761h5.325a17.383,17.383,0,0,1,4.2-10.492c3.7-3.931,9.812-4.376,14.672-2.52,9.26,3.538,12.444,15.324,10.676,24.253-2.564,12.951-11.871,24.156-20.969,33.216C91.189,71.839,82.289,78.908,71.6,83.069c-11.456,4.462-24.447,5.1-33-5.053-2.2-2.616-5.945,1.156-3.756,3.756,19.03,22.587,51.443,2.219,67.417-13.473,10.562-10.375,21.768-23.863,23.5-39.143,1.26-11.136-3.654-23.868-14.821-27.921" transform="translate(-8.827 0)" fill="#c1b9c0"/>
    <path id="Path_21672" data-name="Path 21672" d="M73.685,109.061q-1.03.447-2.081.859c-11.456,4.462-24.445,5.1-33-5.053-2.2-2.617-5.945,1.156-3.755,3.755,10.964,13.012,26.37,11.766,40.515,5.373-.227-.617-1.264-3.952-1.677-4.934" transform="translate(-8.827 -26.85)" fill="#ada3ac"/>
    <path id="Path_21673" data-name="Path 21673" d="M107.831,22.012h1.84c.359-3.842,1.536-7.66,4.2-10.492a10.6,10.6,0,0,1,1.454-1.281,10.8,10.8,0,0,0-3.432,2.426,16.706,16.706,0,0,0-4.065,9.346" transform="translate(-27.844 -2.644)" fill="#d8d2d8"/>
    <path id="Path_21674" data-name="Path 21674" d="M127.347,1.236C121.7-.814,114.968-.371,109.984,3.028a19.971,19.971,0,0,1,15.385-.646c11.167,4.052,16.081,16.784,14.821,27.921-1.729,15.279-12.936,28.766-23.5,39.142A103.635,103.635,0,0,1,97.716,84.127,102.641,102.641,0,0,0,118.67,68.3c10.561-10.375,21.768-23.863,23.5-39.143,1.26-11.136-3.654-23.868-14.821-27.921" transform="translate(-25.232 -0.001)" fill="#d8d2d8"/>
    <path id="Path_21675" data-name="Path 21675" d="M36.833,106.012c8.556,10.154,21.545,9.515,33,5.053a63.053,63.053,0,0,0,9.612-4.75,61.9,61.9,0,0,1-7.634,3.6c-11.456,4.462-24.445,5.1-33-5.053a2.329,2.329,0,0,0-3.819.264,2.226,2.226,0,0,1,1.84.881" transform="translate(-9.036 -26.85)" fill="#d8d2d8"/>
    <path id="Path_21676" data-name="Path 21676" d="M108.543,25.162H103.2c-.024.234-.05.469-.069.7h5.325c.022-.234.057-.468.085-.7" transform="translate(-26.631 -6.497)" fill="#ada3ac"/>
    <path id="Path_21677" data-name="Path 21677" d="M6.719,180.039c0-5.127.708-9.61,1.765-12.059H8.4c-1.714,0-3.105,5.4-3.105,12.059S6.684,192.1,8.4,192.1h.087c-1.057-2.449-1.765-6.932-1.765-12.059" transform="translate(-1.367 -43.375)" fill="#5b3e60"/>
    <path id="Path_21678" data-name="Path 21678" d="M99.353,180.039c0-5.127-.708-9.61-1.765-12.059h.086c1.715,0,3.105,5.4,3.105,12.059S99.389,192.1,97.674,192.1h-.086c1.056-2.449,1.765-6.932,1.765-12.059" transform="translate(-25.199 -43.375)" fill="#5b3e60"/>
    <path id="Path_21679" data-name="Path 21679" d="M21.38,128.75c1.685-7.33,4.816-17.3,11.5-22.846a16.285,16.285,0,0,1,20.521,0c6.685,5.545,9.817,15.517,11.5,22.846.241,1.05.441,2.107.62,3.166a60,60,0,0,0,7.52-1.153c.192,2.242.335,4.485.444,6.722a139.283,139.283,0,0,0-2.278-20.137q-.448-2.284-1.005-4.546A80.08,80.08,0,0,0,64.832,97.62c-2.081-4.379-4.494-9.471-9.171-11.878a11.085,11.085,0,0,0-1.13-.506A33.088,33.088,0,0,0,43.161,83.38a31.091,31.091,0,0,0-11.409,1.856c-6.124,2.332-9.049,9.6-11.409,14.915-4.292,9.671-6.224,20.118-7.109,30.612a59.928,59.928,0,0,0,7.525,1.153c.18-1.059.38-2.116.621-3.166" transform="translate(-3.417 -21.529)" fill="#5b3e60"/>
    <path id="Path_21680" data-name="Path 21680" d="M94.152,151.08c.02.291.041.581.059.872-.019-.291-.039-.581-.059-.872" transform="translate(-24.312 -39.011)" fill="#47304c"/>
    <path id="Path_21681" data-name="Path 21681" d="M93.922,148.02q.093,1.135.171,2.269-.077-1.134-.171-2.269" transform="translate(-24.252 -38.221)" fill="#47304c"/>
    <path id="Path_21682" data-name="Path 21682" d="M93.862,147.258h0c.016.188.032.376.047.565-.015-.188-.026-.377-.042-.565" transform="translate(-24.236 -38.025)" fill="#47304c"/>
    <path id="Path_21683" data-name="Path 21683" d="M64.575,85.247a10.254,10.254,0,0,1,1.086.508c4.5,2.419,6.814,7.534,8.815,11.933a82.97,82.97,0,0,1,5.164,15.253q.536,2.27.967,4.567a130.78,130.78,0,0,1,1.759,13.479h0l0,.025c.759-.146,1.13-.24,1.148-.245A124.738,124.738,0,0,0,81.69,117.35q-.45-2.284-1.006-4.546a80.148,80.148,0,0,0-5.372-15.182c-2.082-4.38-4.5-9.47-9.172-11.878a11.176,11.176,0,0,0-1.13-.506,32.868,32.868,0,0,0-11.192-1.852,30.361,30.361,0,0,1,10.757,1.86" transform="translate(-13.897 -21.532)" fill="#47304c"/>
    <path id="Path_21684" data-name="Path 21684" d="M14.407,130.984c.851-10.543,2.708-21.039,6.833-30.755,2.269-5.343,5.079-12.641,10.965-14.984A28.711,28.711,0,0,1,43.163,83.38h0a31.1,31.1,0,0,0-11.409,1.856c-6.124,2.332-9.048,9.6-11.409,14.915-4.292,9.671-6.224,20.119-7.11,30.612,0,0,.559.144,1.749.356-.385-.085-.576-.135-.576-.135" transform="translate(-3.417 -21.529)" fill="#47304c"/>
    <path id="Path_21685" data-name="Path 21685" d="M94.232,152.254q.1,1.509.171,3.016-.072-1.507-.171-3.016" transform="translate(-24.332 -39.315)" fill="#47304c"/>
    <path id="Path_21686" data-name="Path 21686" d="M92.132,147.583l0-.024c-.011,0-.174.046-.493.116.181-.033.346-.063.5-.092" transform="translate(-23.662 -38.102)" fill="#47304c"/>
    <path id="Path_21687" data-name="Path 21687" d="M56.022,112.479a16.284,16.284,0,0,0-20.521,0C28.816,118.024,25.684,128,24,135.325c-.241,1.05-.441,2.107-.62,3.166A211.625,211.625,0,0,0,45.762,139.5a211.591,211.591,0,0,0,22.383-1.013c-.18-1.06-.38-2.116-.621-3.166-1.685-7.33-4.816-17.3-11.5-22.846" transform="translate(-6.037 -28.104)" fill="#705177"/>
    <path id="Path_21688" data-name="Path 21688" d="M13.438,147.261h-.625l.625,0Z" transform="translate(-3.309 -38.025)" fill="#e03264"/>
    <path id="Path_21689" data-name="Path 21689" d="M28.245,205.87a.706.706,0,0,0,.7.7h5.2a.706.706,0,0,0,.7-.7v-.735l-6.612-.891Z" transform="translate(-7.293 -52.739)" fill="#5b3e60"/>
    <path id="Path_21690" data-name="Path 21690" d="M69.9,205.135v.735a.706.706,0,0,0,.7.7h5.2a.705.705,0,0,0,.7-.7v-1.626Z" transform="translate(-18.05 -52.739)" fill="#5b3e60"/>
    <path id="Path_21691" data-name="Path 21691" d="M73.478,160.671q-.071-3.324-.226-6.676v-.014c-.108-2.237-.251-4.48-.444-6.722a59.936,59.936,0,0,1-7.52,1.153,45,45,0,0,1,.251,14.236c-1,6.623-2.055,13.744-10.918,16.482a39.313,39.313,0,0,1-11.716,1.449,39.308,39.308,0,0,1-11.715-1.449c-8.863-2.738-9.916-9.858-10.918-16.482a45,45,0,0,1,.25-14.235A60.1,60.1,0,0,1,13,147.259v0q-.136,1.6-.239,3.2l-.024.389q-.089,1.4-.157,2.8c-.01.2-.02.4-.03.6q-.06,1.305-.105,2.607c-.007.22-.017.441-.024.662q-.051,1.572-.086,3.138a54.431,54.431,0,0,0,3.921,21.56c.964,2.394,1.812,4.831,4.244,6.252,2.917,1.7,7.017,1.815,10.353,2.1a149.455,149.455,0,0,0,23.982.01l.126-.01c3.336-.289,7.437-.4,10.353-2.1,2.433-1.421,3.281-3.858,4.244-6.252a54.261,54.261,0,0,0,2.636-8.5,54.73,54.73,0,0,0,1.286-13.043" transform="translate(-3.181 -38.025)" fill="#42bfea"/>
    <path id="Path_21692" data-name="Path 21692" d="M73.478,160.67q-.071-3.324-.226-6.676v-.014c-.108-2.237-.251-4.48-.444-6.722,0,0-.336.086-1.038.223q.264,3.072.411,6.141v.013c.1,2.114.173,4.223.219,6.321a50.729,50.729,0,0,1-3.783,20.4c-.93,2.265-1.748,4.573-4.095,5.919-2.814,1.612-6.77,1.718-9.987,1.991l-.122.01a146.883,146.883,0,0,1-23.135-.01c-3.218-.273-7.175-.379-9.987-1.991-2.347-1.346-3.165-3.653-4.095-5.919a50.7,50.7,0,0,1-3.783-20.413q.032-1.482.083-2.972c.007-.208.016-.418.024-.626q.045-1.233.1-2.469.013-.283.028-.565.067-1.322.151-2.646c.008-.123.016-.246.024-.369q.093-1.406.213-2.813c-.7-.137-1.038-.223-1.038-.223v0q-.136,1.6-.239,3.2l-.024.389q-.089,1.4-.157,2.8c-.01.2-.02.4-.03.6q-.06,1.305-.105,2.607c-.007.221-.017.441-.024.662q-.051,1.572-.086,3.138a54.431,54.431,0,0,0,3.921,21.561c.964,2.393,1.812,4.83,4.244,6.251,2.917,1.7,7.017,1.815,10.353,2.1a149.459,149.459,0,0,0,23.982.01l.126-.01c3.336-.289,7.437-.4,10.353-2.1,2.433-1.421,3.281-3.858,4.244-6.251a54.308,54.308,0,0,0,2.636-8.5,54.741,54.741,0,0,0,1.286-13.044" transform="translate(-3.181 -38.025)" fill="#339bc4"/>
    <path id="Path_21693" data-name="Path 21693" d="M23.134,148.813a44.978,44.978,0,0,0-.25,14.235c1,6.623,2.054,13.745,10.917,16.482a39.312,39.312,0,0,0,11.716,1.449,39.307,39.307,0,0,0,11.715-1.449c8.864-2.737,9.916-9.858,10.918-16.482a44.977,44.977,0,0,0-.25-14.235,211.582,211.582,0,0,1-22.383,1.013,211.406,211.406,0,0,1-22.383-1.013" transform="translate(-5.792 -38.426)" fill="#3299c6"/>
    <path id="Path_21694" data-name="Path 21694" d="M68.152,165.641c-1,6.429-2.055,13.342-10.918,16a40.45,40.45,0,0,1-11.715,1.407A40.455,40.455,0,0,1,33.8,181.64c-8.863-2.657-9.916-9.57-10.917-16a38.432,38.432,0,0,1-.445-5.169,40.923,40.923,0,0,0,.445,5.586c1,6.623,2.054,13.744,10.917,16.482a39.314,39.314,0,0,0,11.716,1.45,39.309,39.309,0,0,0,11.715-1.45c8.863-2.737,9.916-9.858,10.918-16.482a40.805,40.805,0,0,0,.444-5.586,38.434,38.434,0,0,1-.444,5.169" transform="translate(-5.795 -41.437)" fill="#2985b2"/>
    <path id="Path_21695" data-name="Path 21695" d="M19.133,193.128c-2.433-1.421-3.281-3.858-4.244-6.252a54.431,54.431,0,0,1-3.921-21.561h-.322c-2,0-3.614,6.284-3.614,14.035s1.618,14.035,3.614,14.035h8.967c-.162-.082-.324-.167-.48-.258" transform="translate(-1.816 -42.687)" fill="#42bfea"/>
    <path id="Path_21696" data-name="Path 21696" d="M92.08,165.316h-.322a54.764,54.764,0,0,1-1.285,13.061,54.287,54.287,0,0,1-2.636,8.5c-.964,2.393-1.812,4.83-4.244,6.252-.157.09-.317.175-.48.257H92.08c2,0,3.614-6.284,3.614-14.035s-1.618-14.035-3.614-14.035" transform="translate(-21.461 -42.687)" fill="#42bfea"/>
    <path id="Path_21697" data-name="Path 21697" d="M11.4,171.491a54.82,54.82,0,0,1-.217-6.175h-.323c-1.245,0-2.344,2.449-2.994,6.175Z" transform="translate(-2.031 -42.687)" fill="#4fd3f7"/>
    <path id="Path_21698" data-name="Path 21698" d="M94.475,171.491h3.533c-.65-3.726-1.748-6.175-2.994-6.175h-.323a54.823,54.823,0,0,1-.217,6.175" transform="translate(-24.395 -42.687)" fill="#4fd3f7"/>
    <path id="Path_21699" data-name="Path 21699" d="M16.331,197.783H8.5c.651,2.465,1.54,3.986,2.521,3.986h8.967c-.162-.082-.323-.167-.48-.258a8.053,8.053,0,0,1-3.182-3.728" transform="translate(-2.196 -51.071)" fill="#39aed8"/>
    <path id="Path_21700" data-name="Path 21700" d="M86.774,197.783a8.053,8.053,0,0,1-3.182,3.728c-.157.091-.317.176-.48.258H92.08c.981,0,1.871-1.521,2.521-3.986Z" transform="translate(-21.461 -51.071)" fill="#39aed8"/>
    <path id="Path_21701" data-name="Path 21701" d="M57.686,119.708a6.34,6.34,0,1,1-6.34-6.34,6.34,6.34,0,0,1,6.34,6.34" transform="translate(-11.621 -29.274)" fill="#5b3e60"/>
    <path id="Path_21702" data-name="Path 21702" d="M56.107,120.551a3.919,3.919,0,1,1-3.919-3.919,3.919,3.919,0,0,1,3.919,3.919" transform="translate(-12.464 -30.116)" fill="#47304c"/>
    <path id="Path_21703" data-name="Path 21703" d="M60.578,167.909A10.777,10.777,0,1,1,49.8,157.132a10.776,10.776,0,0,1,10.777,10.777" transform="translate(-10.077 -40.574)" fill="#42bfea"/>
    <path id="Path_21704" data-name="Path 21704" d="M56.29,177.738a.306.306,0,0,1-.253-.123.3.3,0,0,1,.054-.423l.053-.038a.312.312,0,1,1,.363.508l-.02.014a.347.347,0,0,1-.2.062m1.92-1.673a.307.307,0,0,1-.234-.507.34.34,0,0,1,.463-.042.287.287,0,0,1,.039.418l-.022.024a.34.34,0,0,1-.247.107m1.547-2.036a.288.288,0,0,1-.149-.04.3.3,0,0,1-.118-.411l.033-.056a.313.313,0,0,1,.536.323l-.013.022a.344.344,0,0,1-.289.162m1.1-2.31a.28.28,0,0,1-.089-.015.292.292,0,0,1-.2-.372l.022-.063a.312.312,0,0,1,.589.208l0,.013a.348.348,0,0,1-.315.229m.616-2.458a.271.271,0,0,1-.042,0,.312.312,0,0,1-.269-.351.342.342,0,0,1,.355-.3.287.287,0,0,1,.272.32l-.008.063a.312.312,0,0,1-.309.271m-24.891-1.77a.289.289,0,0,1-.312-.283v-.067a.292.292,0,0,1,.317-.308.312.312,0,0,1,.308.317.339.339,0,0,1-.313.341m24.983-.786a.311.311,0,0,1-.311-.294.34.34,0,0,1,.289-.361.285.285,0,0,1,.33.257l0,.067a.313.313,0,0,1-.293.331h-.019m-24.724-1.729a.3.3,0,0,1-.064-.007.311.311,0,0,1-.242-.369l.012-.062a.312.312,0,1,1,.611.128l-.013.062a.312.312,0,0,1-.3.248m24.3-.791a.313.313,0,0,1-.3-.225l-.019-.066a.312.312,0,1,1,.6-.164l-.3.082.317-.027a.312.312,0,0,1-.212.387.325.325,0,0,1-.088.013m-23.533-1.676a.273.273,0,0,1-.108-.021.289.289,0,0,1-.175-.384l.028-.062a.312.312,0,1,1,.568.257.354.354,0,0,1-.314.211m22.6-.7a.312.312,0,0,1-.277-.167l-.03-.057a.312.312,0,1,1,.555-.287l-.277.143.306-.09a.314.314,0,0,1-.132.422.321.321,0,0,1-.145.036m-21.343-1.527a.278.278,0,0,1-.162-.05.287.287,0,0,1-.094-.408l.03-.042a.317.317,0,0,1,.439-.079.306.306,0,0,1,.078.429.364.364,0,0,1-.29.15m19.947-.614a.315.315,0,0,1-.241-.113l-.041-.05a.312.312,0,0,1,.485-.394l-.243.2.28-.151a.313.313,0,0,1-.24.512m-18.267-1.28a.312.312,0,0,1-.214-.54l.024-.023a.325.325,0,0,1,.452.005.3.3,0,0,1,0,.43l-.046.042a.309.309,0,0,1-.214.085m16.465-.536a.309.309,0,0,1-.2-.07.341.341,0,0,1-.07-.459.287.287,0,0,1,.415-.065l.049.039a.313.313,0,0,1-.2.555m-14.43-1.012a.312.312,0,0,1-.162-.58l.162.268-.112-.3a.312.312,0,1,1,.329.53l-.056.035a.31.31,0,0,1-.161.045m12.293-.4a.3.3,0,0,1-.137-.034.341.341,0,0,1-.162-.435.287.287,0,0,1,.392-.15l.04.021a.32.32,0,0,1,.142.425.312.312,0,0,1-.274.173m-9.938-.719a.326.326,0,0,1-.314-.2.287.287,0,0,1,.159-.387l.063-.022a.312.312,0,1,1,.2.59.341.341,0,0,1-.112.019m7.57-.228a.325.325,0,0,1-.088-.013.341.341,0,0,1-.243-.393.289.289,0,0,1,.353-.225l.065.018a.313.313,0,0,1-.088.613m-5.135-.358a.313.313,0,0,1-.041-.622l.056-.007a.312.312,0,1,1,.093.618l-.067.009a.253.253,0,0,1-.041,0m2.617-.085h-.019l-.067,0a.312.312,0,1,1,.046-.623l-.023.312.08-.308a.313.313,0,0,1-.018.625" transform="translate(-9.366 -39.873)" fill="#fff"/>
    <path id="Path_21705" data-name="Path 21705" d="M58.2,169.178a7.13,7.13,0,1,1-7.13-7.13,7.13,7.13,0,0,1,7.13,7.13" transform="translate(-11.346 -41.844)" fill="#5b3e60"/>
    <path id="Path_21706" data-name="Path 21706" d="M56.968,169.836a5.241,5.241,0,1,1-5.241-5.241,5.241,5.241,0,0,1,5.241,5.241" transform="translate(-12.004 -42.501)" fill="#705177"/>
    <path id="Path_21707" data-name="Path 21707" d="M55.328,97.249A2.274,2.274,0,1,1,53.058,95.1a2.211,2.211,0,0,1,2.271,2.147" transform="translate(-13.114 -24.557)" fill="#fff"/>
    <path id="Path_21708" data-name="Path 21708" d="M61.288,96.739H57.717a1.979,1.979,0,0,1,0,1.866h3.571a.934.934,0,1,0,0-1.866" transform="translate(-14.904 -24.98)" fill="#fff"/>
    <path id="Path_21709" data-name="Path 21709" d="M48.159,97.672a2.035,2.035,0,0,1,.234-.933H44.822a.935.935,0,1,0,0,1.866h3.572a2.035,2.035,0,0,1-.234-.933" transform="translate(-11.319 -24.98)" fill="#fff"/>
    <path id="Path_21710" data-name="Path 21710" d="M54.287,169.561h0a.732.732,0,0,1,0-1.031l1.185-1.185a.729.729,0,1,1,1.03,1.03l-1.185,1.185a.732.732,0,0,1-1.031,0" transform="translate(-13.963 -43.157)" fill="#fff"/>
    <path id="Path_21711" data-name="Path 21711" d="M37.656,86.084c-4.254-6.045-11.278-8.7-18.53-7.824A21.558,21.558,0,0,0,2.019,90.372c-3.069,6.6-2.811,14.71,1.961,20.458a15.546,15.546,0,0,0,7.7,4.909c.113-.476.743-3.65,1.178-5.163A10.56,10.56,0,0,1,6.809,105.6C3.241,98.92,6.2,90.307,12.29,86.211c5.8-3.906,14.537-4.067,19.6,1.156,5.689,5.874,5.219,15.671,5.208,23.222-.005,3.417,5.305,3.423,5.31,0,.012-8.108.13-17.571-4.749-24.5" transform="translate(0 -20.166)" fill="#c1b9c0"/>
    <path id="Path_21712" data-name="Path 21712" d="M8.045,108.682c-3.362-6.292-.924-14.3,4.463-18.632-.235.145-.473.286-.7.443-6.088,4.227-9.05,13.115-5.482,20,1.3,2.508,4.657,4.68,7.191,5.548.214-.794.317-1.316.58-2.38a10.561,10.561,0,0,1-6.053-4.982" transform="translate(-1.236 -23.252)" fill="#d8d2d8"/>
    <path id="Path_21713" data-name="Path 21713" d="M41,86.084c-4.254-6.045-11.278-8.7-18.53-7.824a22.406,22.406,0,0,0-9.526,3.446,22.032,22.032,0,0,1,7.807-2.5A19.043,19.043,0,0,1,39.28,87.276c4.879,7.154,4.761,16.919,4.749,25.287a3.1,3.1,0,0,1-.045.451,2.422,2.422,0,0,0,1.762-2.425c.012-8.108.13-17.571-4.749-24.5" transform="translate(-3.342 -20.166)" fill="#d8d2d8"/>
    <path id="Path_21714" data-name="Path 21714" d="M61.686,142.5H34.73a1.88,1.88,0,0,1-1.874-1.874V136.56a1.88,1.88,0,0,1,1.874-1.874H61.686a1.88,1.88,0,0,1,1.874,1.874v4.061a1.88,1.88,0,0,1-1.874,1.874" transform="translate(-8.484 -34.778)" fill="#5b3e60"/>
    <path id="Path_21715" data-name="Path 21715" d="M41.7,86.084c-4.254-6.045-11.278-8.7-18.53-7.824a22.434,22.434,0,0,0-7.5,2.282A21.872,21.872,0,0,1,22.526,78.5a19.009,19.009,0,0,1,18.53,8.11c4.879,7.186,4.761,16.994,4.749,25.4a3.15,3.15,0,0,1-.026.342,2.459,2.459,0,0,0,.674-1.76c.012-8.108.13-17.571-4.749-24.5" transform="translate(-4.047 -20.166)" fill="#ede6ed"/>
    <path id="Path_21716" data-name="Path 21716" d="M132.234,1.236a19.935,19.935,0,0,0-15.589.748,18.8,18.8,0,0,1,4.466-1.19,20.875,20.875,0,0,1,10.49.973c11.328,4.126,16.313,17.089,15.034,28.429a41.58,41.58,0,0,1-2.21,9.322,41.416,41.416,0,0,0,2.63-10.361c1.26-11.136-3.654-23.868-14.821-27.921" transform="translate(-30.12 -0.001)" fill="#ede6ed"/>
  </g>
</svg>
