<?xml version="1.0" encoding="utf-8"?>
<!-- Generator: Adobe Illustrator 24.0.3, SVG Export Plug-In . SVG Version: 6.00 Build 0)  -->
<svg version="1.1" id="Layer_1" xmlns="http://www.w3.org/2000/svg" xmlns:xlink="http://www.w3.org/1999/xlink" x="0px" y="0px"
	 width="175.8px" height="90.6px" viewBox="0 0 175.8 90.6" style="enable-background:new 0 0 175.8 90.6;" xml:space="preserve">
<style type="text/css">
	.st0{clip-path:url(#SVGID_2_);}
	.st1{fill:#5B3E60;}
	.st2{fill:#4A314F;}
	.st3{fill:#E94982;}
	.st4{fill:#D33C75;}
	.st5{fill:#BF2E6A;}
	.st6{fill:#FFFFFF;}
	.st7{fill:#E2D3D9;}
	.st8{fill:#45C6F3;}
	.st9{fill:#36A9D7;}
</style>
<g id="Group_18166" transform="translate(0 0)">
	<g>
		<defs>
			<rect id="SVGID_1_" width="175.8" height="90.6"/>
		</defs>
		<clipPath id="SVGID_2_">
			<use xlink:href="#SVGID_1_"  style="overflow:visible;"/>
		</clipPath>
		<g id="Group_18077" transform="translate(0 0)" class="st0">
			<path id="Path_21828" class="st1" d="M133,12.4l-2.9-1.1c-0.8-0.3-1.1-1.2-0.8-1.9l3.2-8.4c0.3-0.8,1.2-1.1,1.9-0.9l2.9,1.1
				c0.8,0.3,1.1,1.2,0.8,1.9l-3.2,8.4C134.6,12.3,133.7,12.7,133,12.4"/>
			<path id="Path_21829" class="st1" d="M135.3,14.7l-8.5-3.3c-0.8-0.3-1.1-1.2-0.8-1.9l1.2-3.1c0.3-0.8,1.2-1.1,1.9-0.9l8.5,3.3
				c0.8,0.3,1.1,1.2,0.8,1.9l-1.2,3.1C136.9,14.6,136.1,15,135.3,14.7"/>
			<rect id="Rectangle_11773" x="28.9" y="85.5" class="st2" width="101.9" height="3.3"/>
			<path id="Path_21830" class="st1" d="M133.3,90.6H1.8c-1,0-1.8-0.8-1.8-1.8S0.8,87,1.8,87h131.5c1,0,1.8,0.8,1.8,1.8
				S134.3,90.6,133.3,90.6"/>
			<path id="Path_21831" class="st3" d="M153.2,15.7C150.4,13,139,13,139,13c-3.5-1.4-7-3-10.6-4.2c-30.8-10.1-60.2,6-82.6,26.3
				c-8.2,7.5-34.2,38.2-39.6,48.6c-0.3,0.6-0.1,1.4,0.5,1.7c0.2,0.1,0.5,0.2,0.8,0.1h122.6c9.9,0,44.1-12.7,45.6-16.1
				S155.9,18.5,153.2,15.7 M78,41.4c-0.4-0.5-0.8-1-1-1.7c-1.3-3.6,0.5-6.8,3.3-9.1c10.8-8.9,41.8-11.3,47.1-3.2
				c9,13.6-14.4,17.9-32.1,17.6c-3.4,0-6.8-0.3-10.1-0.8C82.8,43.7,79.7,43.3,78,41.4"/>
			<path id="Path_21832" class="st4" d="M170.5,53.1c-6.1-15.2-15.6-35.6-17.4-37.4c-0.6-0.5-1.2-0.9-1.9-1.1
				c1.9,2.8,10.2,25.2,14.9,40.6C167.6,54.5,169.1,53.8,170.5,53.1"/>
			<path id="Path_21833" class="st5" d="M7.5,84.3h122.6c9.9,0,44.1-12.7,45.6-16.1c-0.4-2.6-4.3-12.9-7.1-19.6
				c-12.2,8.6-78.8,34-159.8,30.8c-0.9,1.4-1.8,2.8-2.6,4.3C6.5,84.1,7,84.3,7.5,84.3"/>
			<path id="Path_21834" class="st6" d="M7.5,84.3h122.6c9.9,0,44.1-12.7,45.6-16.1c-0.4-2.6-3.7-11.3-6.4-18
				c-10.9,6.4-30.4,14-56.5,19.9c-23,5.1-46.4,8.1-69.9,9.1c-10.9,0.5-22.2,0.6-34,0.2c-0.9,1.4-1.8,2.8-2.6,4.3
				C6.5,84.1,7,84.3,7.5,84.3"/>
			<path id="Path_21835" class="st7" d="M169.3,50.2c-1.3,0.8-4.1,2.2-4.1,2.2l1.9,3.9c0,0,8.2,12.7,8.6,11.9
				C175.3,65.6,172,56.3,169.3,50.2"/>
			<path id="Path_21836" class="st8" d="M8.1,80.6c-0.7,1.2-1.4,2.2-1.8,3.1c-0.3,0.6-0.1,1.4,0.5,1.7c0.2,0.1,0.5,0.2,0.8,0.1
				h122.6c9.9,0,44.1-12.7,45.6-16.1c0.5-1.2-1.6-7.4-4.7-15.2C148.6,67.5,87.3,83.4,8.1,80.6"/>
			<path id="Path_21837" class="st9" d="M171,54.2c-1.2,0.7-2.5,1.4-3.9,2.1c2.4,7.3,4.1,13.4,4.3,16c2.4-1.2,4-2.3,4.3-2.9
				C176.2,68.3,174.1,62,171,54.2"/>
			<path id="Path_21838" class="st6" d="M36.8,63.4c5.4-0.8,9.3-6.2,13-9.9c5.1-5.2,9.4-11.7,14.7-16.6c12.4-11.5,28-19,44.8-21.5
				c4.2-0.6,8.5-0.9,12.4-2.7c3.2-1.5,4.2-2.1,4.4-4.7c-29.8-7.8-58.2,8.3-79.9,28.9c-3.9,3.7-14.6,13-22.5,22.9
				C27.4,62.8,32.1,64.1,36.8,63.4"/>
			<path id="Path_21839" class="st9" d="M36.1,60.6c5.2-0.2,9.7-5.6,13.3-9.1c5-4.9,9.5-11.5,14.6-16.1c12.2-11,27.4-18.1,43.6-20.5
				c4.1-0.6,8.4-0.9,12.2-2.5c3.2-1.4,4.1-2.3,4.3-4.8c-29.2-7.4-57,8.2-78.3,27.6c-3.9,3.5-12.3,13-20.1,22.3
				C28.6,59.7,32.3,60.9,36.1,60.6"/>
			<path id="Path_21840" class="st8" d="M36.6,60c5.3-0.7,9.1-5.8,12.7-9.3c5-4.9,9.2-11,14.4-15.6C76,24.1,91.3,17.1,107.6,14.8
				c4.1-0.6,8.4-0.9,12.2-2.5c3.2-1.4,4.1-2.3,4.3-4.8c-29.2-7.4-57,8.2-78.3,27.6c-3.9,3.5-11.7,12.2-19.5,21.5
				C29.3,59,34,60.4,36.6,60"/>
			<path id="Path_21841" class="st9" d="M76.2,13.9c-3.4,1.7-6.8,3.6-10,5.6C68.1,23,78.5,17.2,76.2,13.9"/>
			<path id="Path_21842" class="st4" d="M132.2,27.4c-2.5-3.7-10.3-5.2-19.2-4.8c-1.3-0.1-2.7-0.1-4.1,0c7.2,0.2,13.3,1.7,15.4,4.9
				C132.7,40,113,44.6,95.9,44.9c1.3,0,2.5,0,3.8,0c0.1,0,0.2,0,0.3,0C117.8,45.3,141.2,40.9,132.2,27.4"/>
			<path id="Path_21843" class="st4" d="M83.1,43.7v-0.9c0-0.4,0.3-0.7,0.6-0.8h18.8c0.4,0,0.7,0.4,0.6,0.8v2.1
				c0,0-3.4,1.8-10.3,1.8C86,46.7,83.1,43.7,83.1,43.7"/>
			<path id="Path_21844" class="st5" d="M102.5,42.1h-9.3v4.7c3.2,0.1,6.3-0.4,9.3-1.5V42.1z"/>
			<path id="Path_21845" class="st5" d="M103.2,43.1v-0.3c0-0.4-0.3-0.7-0.6-0.8H83.7c-0.4,0-0.7,0.4-0.6,0.8v0.3H103.2z"/>
			<path id="Path_21846" class="st1" d="M103.2,42.7h-20c-0.7,0-1.2-0.5-1.2-1.2v-0.1c0-0.7,0.5-1.2,1.2-1.2h20
				c0.7,0,1.2,0.5,1.2,1.2v0.1C104.4,42.1,103.8,42.7,103.2,42.7"/>
			<path id="Path_21847" class="st5" d="M21.1,69.7c2.3-2.7,2.9-6.2,1.5-8.5c-3.2,3.9-6.2,7.8-8.9,11.3C16.1,73.1,19,72,21.1,69.7"
				/>
			<path id="Path_21848" class="st8" d="M21.4,66.3l0,0.1c-0.4,1.6-1.5,3-3,3.8c-1.3,0.7-2.6,0.9-3.2,0.4c-1-0.8-1.2-2.2-0.4-3.2
				l3-3.9c0.8-1,2.2-1.2,3.2-0.4C21.9,63.8,21.6,65.4,21.4,66.3"/>
			<path id="Path_21849" class="st9" d="M21,63.2c-0.3-0.2-0.6-0.4-0.9-0.4c0.8,0.7,0.6,2.2,0.4,3.1l0,0.1c-0.4,1.6-1.5,3-3,3.8
				c-0.7,0.4-1.5,0.7-2.4,0.7c0.1,0.1,0.1,0.1,0.2,0.2c0.5,0.5,1.9,0.3,3.2-0.4c1.5-0.8,2.6-2.2,3-3.8l0-0.1
				C21.6,65.4,21.9,63.8,21,63.2"/>
			<path id="Path_21850" class="st4" d="M77.3,57.7c0,3.3-2.7,5.9-5.9,5.9c-3.3,0-5.9-2.7-5.9-5.9c0-3.3,2.7-5.9,5.9-5.9
				C74.6,51.8,77.3,54.5,77.3,57.7C77.3,57.7,77.3,57.7,77.3,57.7"/>
			<path id="Path_21851" class="st6" d="M75.5,57.7c0,2.3-1.9,4.2-4.2,4.2s-4.2-1.9-4.2-4.2c0-2.3,1.9-4.2,4.2-4.2
				C73.7,53.5,75.5,55.4,75.5,57.7C75.5,57.7,75.5,57.7,75.5,57.7"/>
			<path id="Path_21852" class="st6" d="M146.9,55.3l-10.9,3.5c-1,0.3-2.1-0.2-2.4-1.2c-0.3-1,0.2-2.1,1.2-2.4l0,0l10.9-3.5
				c1-0.3,2.1,0.2,2.4,1.2C148.5,53.9,147.9,55,146.9,55.3"/>
			<path id="Path_21853" class="st1" d="M73.9,16.8L69.9,19c-0.9,0.5-2.1,0.2-2.6-0.7l-1.5-2.6c-0.5-0.9-0.2-2.1,0.7-2.6l3.9-2.3
				c0.9-0.5,2.1-0.2,2.6,0.7l1.5,2.6C75.1,15.1,74.8,16.2,73.9,16.8"/>
			<path id="Path_21854" class="st6" d="M75.8,68h-8.9c-0.6,0-1.1-0.5-1.1-1.1v-0.1c0-0.6,0.5-1.1,1.1-1.1h8.9
				c0.6,0,1.1,0.5,1.1,1.1v0.1C76.9,67.5,76.4,68,75.8,68"/>
		</g>
	</g>
</g>
</svg>
