<svg xmlns="http://www.w3.org/2000/svg" xmlns:xlink="http://www.w3.org/1999/xlink" x="0px" y="0px"
	 width="512px" height="512px" viewBox="0 0 512 512" style="enable-background:new 0 0 512 512;" xml:space="preserve">
<style type="text/css">
	.st0{clip-path:url(#SVGID_2_);}
	.st1{fill:#5B3E60;}
	.st2{fill:#4A314F;}
	.st3{fill:#E94982;}
	.st4{fill:#D33C75;}
	.st5{fill:#BF2E6A;}
	.st6{fill:#FFFFFF;}
	.st7{fill:#E2D3D9;}
	.st8{fill:#45C6F3;}
	.st9{fill:#36A9D7;}
</style>
<g id="Group_18166" transform="translate(0 0)">
	<g>
		<defs>
			<rect id="SVGID_1_" x="47.9" y="253.9" width="420.1" height="216.6"/>
		</defs>
		<clipPath id="SVGID_2_">
			<use xlink:href="#SVGID_1_"  style="overflow:visible;"/>
		</clipPath>
		<g id="Group_18077" transform="translate(0 0)" class="st0">
			<path id="Path_21828" class="st1" d="M365.7,283.5l-6.9-2.7c-1.8-0.7-2.7-2.8-2-4.6l7.7-20c0.7-1.8,2.8-2.7,4.6-2l6.9,2.7
				c1.8,0.7,2.7,2.8,2,4.6l-7.7,20C369.6,283.3,367.6,284.2,365.7,283.5"/>
			<path id="Path_21829" class="st1" d="M371.2,289l-20.3-7.9c-1.8-0.7-2.7-2.8-2-4.6l2.9-7.4c0.7-1.8,2.8-2.7,4.6-2l20.2,7.9
				c1.8,0.7,2.7,2.8,2,4.6l-2.9,7.4C375.1,288.8,373.1,289.7,371.2,289"/>
			<rect id="Rectangle_11773" x="117" y="458.2" class="st2" width="243.5" height="7.9"/>
			<path id="Path_21830" class="st1" d="M366.5,470.5H52.2c-2.4,0-4.3-1.9-4.3-4.3c0-2.4,1.9-4.3,4.3-4.3h314.2
				c2.4,0,4.3,1.9,4.3,4.3C370.8,468.6,368.8,470.5,366.5,470.5"/>
			<path id="Path_21831" class="st3" d="M414,291.5c-6.6-6.6-34-6.5-34-6.5c-8.4-3.3-16.8-7.3-25.3-10.1
				c-73.6-24.2-144,14.3-197.3,62.9c-19.6,17.8-81.7,91.2-94.5,116.1c-0.8,1.5-0.2,3.2,1.3,4c0.6,0.3,1.2,0.4,1.8,0.3H359
				c23.7,0,105.4-30.3,108.9-38.4C471.4,411.6,420.5,298,414,291.5 M234.3,352.7c-1-1.2-1.8-2.5-2.4-4c-3-8.6,1.3-16.4,7.9-21.8
				c25.9-21.2,99.8-26.9,112.5-7.7c21.5,32.4-34.4,42.9-76.7,42c-8.1-0.1-16.1-0.8-24.1-2C245.7,358.3,238.4,357.3,234.3,352.7"/>
			<path id="Path_21832" class="st4" d="M455.5,380.9c-14.6-36.3-37.3-85.2-41.6-89.4c-1.3-1.2-2.9-2.1-4.6-2.7
				c4.6,6.7,24.3,60.2,35.6,97.1C448.4,384.2,452,382.5,455.5,380.9"/>
			<path id="Path_21833" class="st5" d="M65.9,455.2H359c23.7,0,105.4-30.3,108.9-38.4c-1-6.1-10.4-30.8-16.9-46.9
				c-29.2,20.6-188.4,81.3-381.9,73.6c-2.2,3.3-4.3,6.7-6.2,10.3C63.5,454.8,64.7,455.4,65.9,455.2"/>
			<path id="Path_21834" class="st6" d="M65.9,455.3H359c23.7,0,105.4-30.3,108.9-38.4c-1-6.1-8.8-26.9-15.3-43.1
				c-26.1,15.3-72.7,33.6-135.1,47.7c-55,12.2-110.9,19.5-167.2,21.7c-26,1.1-53.1,1.3-81.3,0.4c-2.2,3.3-4.3,6.7-6.2,10.3
				C63.5,454.8,64.7,455.4,65.9,455.3"/>
			<path id="Path_21835" class="st7" d="M452.6,373.8c-3.1,1.8-9.7,5.3-9.7,5.3l4.4,9.4c0,0,19.7,30.4,20.6,28.3
				C466.9,410.7,458.9,388.3,452.6,373.8"/>
			<path id="Path_21836" class="st8" d="M67.2,446.4c-1.8,2.8-3.3,5.3-4.4,7.5c-0.8,1.5-0.2,3.2,1.3,4c0.6,0.3,1.2,0.4,1.8,0.3H359
				c23.7,0,105.4-30.3,108.9-38.4c1.2-2.8-3.9-17.7-11.3-36.4C403.1,415.3,256.5,453.2,67.2,446.4"/>
			<path id="Path_21837" class="st9" d="M456.5,383.4c-2.8,1.7-5.9,3.4-9.2,5.1c5.7,17.6,9.7,31.9,10.4,38.3c5.7-2.9,9.5-5.4,10.2-7
				C469,417,464,402.1,456.5,383.4"/>
			<path id="Path_21838" class="st6" d="M136,405.4c12.8-1.8,22.3-14.8,31-23.7c12.2-12.5,22.4-27.9,35-39.7
				c29.7-27.5,67-45.4,107-51.3c9.9-1.5,20.4-2.2,29.7-6.4c7.7-3.5,10.1-4.9,10.6-11.2c-71.3-18.7-139.1,19.8-191,69
				c-9.4,8.9-34.9,31.2-53.9,54.8C113.4,404,124.8,407,136,405.4"/>
			<path id="Path_21839" class="st9" d="M134.1,398.7c12.4-0.5,23.2-13.5,31.7-21.8c12-11.8,22.6-27.5,35-38.5
				c29.1-26.2,65.4-43.3,104.2-49c9.7-1.4,20-2.1,29.1-6c7.6-3.3,9.7-5.5,10.3-11.4c-69.9-17.6-136.2,19.5-187,65.9
				c-9.2,8.4-29.5,31.1-48,53.3C116.3,396.6,125.2,399.3,134.1,398.7"/>
			<path id="Path_21840" class="st8" d="M135.5,397.3c12.6-1.7,21.9-14,30.4-22.3c12-11.8,21.9-26.3,34.3-37.4
				c29.5-26,65.9-42.8,104.9-48.3c9.7-1.4,20-2.1,29.1-6c7.6-3.3,9.7-5.5,10.3-11.4c-69.8-17.6-136.2,19.5-187,65.9
				c-9.2,8.4-28,29.2-46.5,51.4C117.9,394.8,129.1,398.1,135.5,397.3"/>
			<path id="Path_21841" class="st9" d="M230,287c-8.2,4-16.2,8.5-24,13.4C210.8,309,235.5,295.1,230,287"/>
			<path id="Path_21842" class="st4" d="M363.9,319.3c-5.9-8.8-24.7-12.4-45.8-11.6c-3.1-0.1-6.4-0.1-9.7-0.1
				c17.3,0.4,31.7,4.1,36.7,11.6c20.1,30.2-27.1,41.3-67.8,42c3,0,6.1,0,9.2,0c0.3,0,0.5,0,0.8,0
				C329.4,362.1,385.4,351.7,363.9,319.3"/>
			<path id="Path_21843" class="st4" d="M246.5,358.4v-2.1c-0.1-0.9,0.6-1.7,1.5-1.8h45c0.9,0.1,1.6,0.9,1.5,1.8v5
				c0,0-8.2,4.3-24.7,4.3S246.5,358.4,246.5,358.4"/>
			<path id="Path_21844" class="st5" d="M292.9,354.4h-22.2v11.1c7.6,0.1,15.1-1.1,22.2-3.6V354.4z"/>
			<path id="Path_21845" class="st5" d="M294.6,356.9v-0.6c0.1-0.9-0.6-1.7-1.5-1.8h-45c-0.9,0.1-1.6,0.9-1.5,1.8v0.6H294.6z"/>
			<path id="Path_21846" class="st1" d="M294.5,355.9h-47.7c-1.6,0-2.9-1.3-2.9-2.9v-0.1c0-1.6,1.3-2.9,2.9-2.9h47.7
				c1.6,0,2.9,1.3,2.9,2.9v0.1C297.4,354.6,296.1,355.9,294.5,355.9"/>
			<path id="Path_21847" class="st5" d="M98.4,420.4c5.6-6.4,6.8-14.7,3.5-20.3c-7.6,9.3-14.9,18.6-21.2,27
				C86.4,428.5,93.4,426.1,98.4,420.4"/>
			<path id="Path_21848" class="st8" d="M99.1,412.4l-0.1,0.3c-1,3.9-3.6,7.2-7.2,9.1c-3,1.7-6.3,2.2-7.6,1c-2.3-1.8-2.8-5.2-1-7.6
				l7.2-9.4c1.8-2.3,5.2-2.8,7.6-1C100.2,406.5,99.6,410.1,99.1,412.4"/>
			<path id="Path_21849" class="st9" d="M98.1,404.8c-0.7-0.5-1.4-0.9-2.3-1c2,1.7,1.5,5.2,0.9,7.5l-0.1,0.3c-1,3.9-3.6,7.2-7.2,9.1
				c-1.7,1-3.7,1.6-5.7,1.6c0.1,0.1,0.3,0.3,0.4,0.4c1.2,1.2,4.5,0.7,7.6-1c3.6-1.9,6.2-5.2,7.2-9.1l0.1-0.3
				C99.6,410.1,100.2,406.5,98.1,404.8"/>
			<path id="Path_21850" class="st4" d="M232.6,391.9c0,7.8-6.4,14.1-14.2,14.1c-7.8,0-14.1-6.4-14.1-14.2c0-7.8,6.4-14.1,14.1-14.1
				C226.2,377.7,232.6,384.1,232.6,391.9C232.6,391.9,232.6,391.9,232.6,391.9"/>
			<path id="Path_21851" class="st6" d="M228.4,391.9c0,5.5-4.5,10-10.1,10c-5.5,0-10-4.5-10-10.1c0-5.5,4.5-10,10-10
				C224,381.8,228.5,386.3,228.4,391.9C228.4,391.9,228.4,391.9,228.4,391.9"/>
			<path id="Path_21852" class="st6" d="M399,386l-26,8.3c-2.4,0.8-4.9-0.6-5.7-3s0.6-4.9,3-5.7l0,0l26-8.3c2.4-0.8,4.9,0.6,5.7,3
				C402.8,382.7,401.4,385.3,399,386"/>
			<path id="Path_21853" class="st1" d="M224.5,293.9l-9.4,5.4c-2.2,1.2-5,0.5-6.2-1.7l-3.5-6.2c-1.2-2.2-0.5-5,1.7-6.2l9.4-5.4
				c2.2-1.3,5-0.5,6.2,1.7l3.5,6.2C227.4,289.9,226.6,292.7,224.5,293.9"/>
			<path id="Path_21854" class="st6" d="M229,416.4h-21.2c-1.5,0-2.7-1.2-2.7-2.7v-0.1c0-1.5,1.2-2.7,2.7-2.7H229
				c1.5,0,2.7,1.2,2.7,2.7v0.1C231.7,415.1,230.5,416.3,229,416.4"/>
		</g>
	</g>
</g>
</svg>
