<svg xmlns="http://www.w3.org/2000/svg" xmlns:xlink="http://www.w3.org/1999/xlink" x="0px" y="0px"
	 width="512px" height="512px" viewBox="0 0 512 512" style="enable-background:new 0 0 512 512;" xml:space="preserve">
<style type="text/css">
	.st0{clip-path:url(#SVGID_2_);}
	.st1{fill:#DD970A;}
	.st2{fill:#5B3E60;}
	.st3{fill:#4A314F;}
	.st4{fill:#FFC31D;}
	.st5{fill:#EEA70A;}
	.st6{fill:#FFFFFF;}
	.st7{fill:#EDC264;}
	.st8{fill:#4197A5;}
	.st9{fill:#60CCD7;}
	.st10{fill:#52B1BE;}
	.st11{fill:#B22D69;}
	.st12{fill:#E94982;}
	.st13{fill:#CD3A77;}
</style>
<g id="Group_18197" transform="translate(0 0)">
	<g>
		<defs>
			<rect id="SVGID_1_" x="9" y="210" width="395.5" height="244.8"/>
		</defs>
		<clipPath id="SVGID_2_">
			<use xlink:href="#SVGID_1_"  style="overflow:visible;"/>
		</clipPath>
		<g id="Group_18196" transform="translate(0 0.001)" class="st0">
			<path id="Path_22176" class="st1" d="M247.9,444V217.1c-0.1-3.7,2.8-6.9,6.5-7.1c-0.1,0-0.1,0-0.2,0H38.6
				c-3.8,0.1-6.8,3.3-6.7,7.1V444H247.9z"/>
			<path id="Path_22177" class="st2" d="M368.5,239.2H16.8c-4.3,0-7.8-3.5-7.8-7.8v-7.7c0-4.3,3.5-7.8,7.8-7.8h351.7
				c4.3,0,7.8,3.5,7.8,7.8v7.7C376.3,235.7,372.8,239.2,368.5,239.2"/>
			<path id="Path_22178" class="st3" d="M371.4,233.3H13.9c-2.7,0-4.9-3.7-4.9-8.2v5.9c0,4.5,2.2,8.2,4.9,8.2h357.6
				c2.7,0,4.9-3.7,4.9-8.2v-5.9C376.3,229.6,374.1,233.3,371.4,233.3"/>
			<path id="Path_22179" class="st4" d="M48.4,217.4v237.4h216V217.4c0.2-3.9-2.8-7.2-6.7-7.4H42c-0.1,0-0.1,0-0.2,0
				C45.6,210.3,48.5,213.6,48.4,217.4"/>
			<path id="Path_22180" class="st5" d="M45.1,210c0.1,0,0.1,0,0.2,0H42c-0.1,0-0.1,0-0.2,0c3.8,0.3,6.7,3.6,6.5,7.4v237.4h3.3
				V217.4C51.8,213.6,48.9,210.3,45.1,210"/>
			<rect id="Rectangle_11821" x="51.6" y="403.5" class="st6" width="212.7" height="27.2"/>
			<rect id="Rectangle_11822" x="51.6" y="386.2" class="st6" width="212.7" height="7"/>
			<rect id="Rectangle_11823" x="31.9" y="393.4" class="st7" width="16.5" height="27.2"/>
			<rect id="Rectangle_11824" x="31.9" y="376.1" class="st7" width="16.5" height="7"/>
			<path id="Path_22181" class="st8" d="M366.3,349.2l-71.4,73.5c-1.2,1.2-2.9,1.9-4.6,1.9c-1.7,0-4.6-0.1-4.6-0.1l-71.4-75.4
				c-2.5-2.6-2.5-6.8,0-9.4l71.4-73.5c2.4-2.5,6.5-2.6,9-0.2c0.1,0.1,0.1,0.1,0.2,0.2l71.4,73.5
				C368.8,342.4,368.8,346.5,366.3,349.2"/>
			<path id="Path_22182" class="st9" d="M362.1,349.2l-71.4,73.5c-2.4,2.5-6.5,2.6-9,0.2c-0.1-0.1-0.1-0.1-0.2-0.2l-71.4-73.5
				c-2.5-2.6-2.5-6.8,0-9.4l71.4-73.5c2.4-2.5,6.5-2.6,9-0.2c0.1,0.1,0.1,0.1,0.2,0.2l71.4,73.5
				C364.7,342.4,364.7,346.5,362.1,349.2"/>
			<path id="Path_22183" class="st10" d="M340.2,347.8l-50.8,52.3c-1.7,1.8-4.6,1.9-6.4,0.1c0,0-0.1-0.1-0.1-0.1L232,347.8
				c-1.8-1.9-1.8-4.8,0-6.7l50.8-52.3c1.7-1.8,4.6-1.9,6.4-0.1c0,0,0.1,0.1,0.1,0.1l50.8,52.3C342,343,342,345.9,340.2,347.8"/>
			<path id="Path_22184" class="st8" d="M283.8,400.1L233,347.8c-1.8-1.9-1.8-4.8,0-6.7l50.8-52.3c0.7-0.7,1.7-1.2,2.8-1.3
				c-1.4-0.2-2.8,0.3-3.7,1.3L232,341.1c-1.8,1.9-1.8,4.8,0,6.7l50.8,52.3c1,1,2.4,1.5,3.7,1.3C285.5,401.3,284.6,400.9,283.8,400.1
				"/>
			<path id="Path_22185" class="st10" d="M285.4,257.2c-5.3,0.8-7.1,9.4-3.5,12.9c3.8,3.7,11.2,3.2,14-1.5c2.3-4.1,0.7-9.3-3.4-11.6
				c-1.1-0.6-2.3-0.9-3.5-1c-5.7-0.1-9.4,7.2-4.9,11.4c1.5,1.4,4,1.3,5.4-0.3c1.3-1.5,1.3-3.8-0.1-5.2c0.7,0.7,0,0.9,0,1.4
				c-0.4,0.1-0.5,0.2-0.3,0.3l0.2,0.1c0.1,0.5,0.6,0.6,0.1,1c-0.6,0.5-2.1-0.7-2.5-0.5c0.4-0.2,0.6,2.7,0.8,0.4
				c0.1-1.1,0.4-0.2-0.2-0.1c2-0.6,3.2-2.7,2.6-4.7C289.5,257.9,287.4,256.7,285.4,257.2"/>
			<path id="Path_22186" class="st10" d="M290.8,258.9c-3.2-4.2-5.4-9.1-6.5-14.2c-0.8-3.9-0.7-20.1,6.1-11.2
				c3.5,4.5-0.1,12.2-1.8,16.8c-1.7,4.3-2.9,8.9-3.6,13.5c-0.6,4.9,6.9,4.8,7.5,0c1.2-9.7,7.9-18.1,6.5-28.2
				c-0.9-6.6-5.9-14-13.2-13.2c-17.8,2.1-7.3,32.2-1.4,40.4C287.2,266.8,293.7,262.9,290.8,258.9"/>
			<path id="Path_22187" class="st3" d="M293.1,231.4c-0.1,3.3-2.9,5.9-6.2,5.8c-3.3-0.1-5.9-2.9-5.8-6.2c0.1-3.2,2.8-5.8,6-5.8
				C290.4,225.2,293.1,228,293.1,231.4"/>
			<path id="Path_22188" class="st11" d="M402.6,349.2l-71.4,73.5c-1.2,1.2-2.9,1.9-4.6,1.9c-1.7,0-4.6-0.1-4.6-0.1l-71.4-75.4
				c-2.5-2.6-2.5-6.8,0-9.4l71.4-73.5c2.4-2.5,6.5-2.6,9-0.2c0.1,0.1,0.1,0.1,0.2,0.2l71.4,73.5
				C405.1,342.4,405.1,346.5,402.6,349.2"/>
			<path id="Path_22189" class="st12" d="M398.4,349.2L327,422.7c-2.4,2.5-6.5,2.6-9,0.2c-0.1-0.1-0.1-0.1-0.2-0.2l-71.4-73.5
				c-2.5-2.6-2.5-6.8,0-9.4l71.4-73.5c2.4-2.5,6.5-2.6,9-0.2c0.1,0.1,0.1,0.1,0.2,0.2l71.4,73.5C401,342.4,401,346.5,398.4,349.2"/>
			<path id="Path_22190" class="st13" d="M376.5,347.8l-50.8,52.3c-1.7,1.8-4.6,1.9-6.4,0.1c0,0-0.1-0.1-0.1-0.1l-50.8-52.3
				c-1.8-1.9-1.8-4.8,0-6.7l50.8-52.3c1.7-1.8,4.6-1.9,6.4-0.1c0,0,0.1,0.1,0.1,0.1l50.8,52.3C378.3,343,378.3,345.9,376.5,347.8"/>
			<path id="Path_22191" class="st11" d="M320.1,400.1l-50.8-52.3c-1.8-1.9-1.8-4.8,0-6.7l50.8-52.3c0.7-0.7,1.7-1.2,2.8-1.3
				c-1.4-0.2-2.8,0.3-3.7,1.3l-50.8,52.3c-1.8,1.9-1.8,4.8,0,6.7l50.8,52.3c1,1,2.4,1.5,3.7,1.3
				C321.8,401.3,320.8,400.9,320.1,400.1"/>
			<path id="Path_22192" class="st13" d="M321.7,257.2c-5.3,0.8-7.1,9.4-3.5,12.9c3.8,3.5,9.8,3.2,13.3-0.6c0.3-0.3,0.5-0.6,0.7-0.9
				c2.3-4.1,0.7-9.3-3.4-11.6c-1.1-0.6-2.3-0.9-3.5-1c-5.7-0.1-9.4,7.2-4.9,11.4c1.5,1.4,4,1.3,5.4-0.3c1.3-1.5,1.3-3.8-0.1-5.2
				c0.7,0.7,0,0.9,0,1.4c-0.4,0.1-0.5,0.2-0.3,0.3l0.2,0.1c0.1,0.5,0.6,0.6,0.1,1c-0.6,0.5-2.1-0.7-2.5-0.5c0.4-0.2,0.6,2.7,0.8,0.4
				c0.1-1.1,0.4-0.2-0.2-0.1c2-0.6,3.2-2.7,2.6-4.7C325.8,257.9,323.7,256.7,321.7,257.2"/>
			<path id="Path_22193" class="st13" d="M327.1,258.9c-3.2-4.2-5.4-9.1-6.5-14.2c-0.8-3.9-0.7-20.1,6.1-11.2
				c3.5,4.5-0.1,12.2-1.8,16.8c-1.7,4.3-2.9,8.9-3.6,13.5c-0.6,4.9,6.9,4.8,7.5,0c1.2-9.7,7.9-18.1,6.5-28.2
				c-0.9-6.6-5.9-14-13.2-13.2c-17.8,2.1-7.3,32.2-1.4,40.4C323.5,266.8,330,262.9,327.1,258.9"/>
			<path id="Path_22194" class="st3" d="M329.4,231.4c-0.1,3.3-2.9,5.9-6.2,5.8c-3.3-0.1-5.9-2.9-5.8-6.2c0.1-3.2,2.8-5.8,6-5.8
				C326.7,225.2,329.4,228,329.4,231.4"/>
		</g>
	</g>
</g>
</svg>
