<svg xmlns="http://www.w3.org/2000/svg" xmlns:xlink="http://www.w3.org/1999/xlink" x="0px" y="0px"
	 width="512px" height="512px" viewBox="0 0 512 512" style="enable-background:new 0 0 512 512;" xml:space="preserve">
<style type="text/css">
	.st0{fill:#80AFBA;}
	.st1{fill:#6FA4AD;}
	.st2{fill:#578D93;}
	.st3{fill:#C4E3E8;}
	.st4{fill:#A3CAD3;}
	.st5{fill:#4FC7D3;}
	.st6{fill:#59DCE2;}
	.st7{fill:#48ACBC;}
	.st8{fill:#BFE3E8;}
	.st9{opacity:0.2;fill:#72A2A5;enable-background:new    ;}
	.st10{fill:#86AD99;}
	.st11{fill:#658E78;}
	.st12{fill:#137D8E;}
	.st13{fill:#72A2A5;}
	.st14{fill:#185B6B;}
	.st15{fill:#073B44;}
	.st16{fill:#B8D7E0;}
</style>
<path class="st0" d="M349.8,485.5c0,6.2-5,11.3-11.3,11.3H79.7c-6.2,0-11.3-5-11.3-11.3V159.1c0-6.2,5-11.3,11.3-11.3h253.2
	c6.2,0,11.3,5,11.3,11.3L349.8,485.5z"/>
<path class="st1" d="M334.6,147.3c6.2,0,15.2,5,15.2,11.3v327.5c0,6.2-2.2,10.7-8.4,10.7H82.5c-6.2,0-11.8-5-11.8-11.3"/>
<path class="st2" d="M349.8,361.2l-68.1-64.1L141.6,437.2l60.3,59.7h139.5c6.2,0,8.4-4.5,8.4-10.7V361.2z"/>
<circle class="st3" cx="209.1" cy="362.3" r="102.9"/>
<circle class="st4" cx="209.1" cy="362.3" r="88.4"/>
<circle class="st5" cx="209.1" cy="362.3" r="80.4"/>
<path class="st6" d="M128.7,362.3c0-44.4,36-80.4,80.4-80.4"/>
<path class="st7" d="M266,305.5c31.5,31.5,31.5,82.2,0,113.7s-82.2,31.5-113.7,0"/>
<path class="st3" d="M297.4,406.8c-24.7,0-45-20.3-45-45c0-24.7,20.3-45,45-45"/>
<path class="st1" d="M335.7,159.1H82.5c-6.2,0-14.1,5.6-14.1,11.8v66.9h275.8V171C344.2,164.8,341.9,159.1,335.7,159.1z"/>
<path class="st4" d="M335.7,147.9H82.5c-6.2,0-14.1,4.5-14.1,10.7v62.5h275.8v-62.5C344.2,152.4,341.9,147.9,335.7,147.9z"/>
<path class="st8" d="M349.8,158.6c0-6.2-9-11.3-15.2-11.3l-254.9,0.6c-6.2,0-11.3,5-11.3,11.3"/>
<path class="st0" d="M334.6,147.3l-58,73.7h73.2v-62.4C349.8,152.4,340.8,147.3,334.6,147.3z"/>
<path class="st9" d="M169.7,207c0,1.6-1.2,2.8-2.8,2.8H93.7c-1.6,0-2.8-1.2-2.8-2.8v-28.2c0-1.6,1.2-2.8,2.8-2.8h73.2
	c1.6,0,2.8,1.2,2.8,2.8L169.7,207L169.7,207z"/>
<path class="st10" d="M169.7,201.3c0,1.6-1.2,2.8-2.8,2.8H93.7c-1.6,0-2.8-1.2-2.8-2.8v-28.1c0-1.6,1.2-2.8,2.8-2.8h73.2
	c1.6,0,2.8,1.2,2.8,2.8L169.7,201.3L169.7,201.3z"/>
<path class="st11" d="M166.9,170.4c1.6,0,2.8,1.2,2.8,2.8v28.1c0,1.6-1.2,2.8-2.8,2.8H93.7c-1.6,0-2.8-1.2-2.8-2.8"/>
<path class="st12" d="M331.7,186.7c0,12.4-10.1,22.5-22.5,22.5c-12.4,0-22.5-10.1-22.5-22.5s10.1-23.7,22.5-23.7
	C321.6,162.5,331.7,174.4,331.7,186.7z"/>
<path class="st13" d="M331.7,186.7c0,12.4-10.1,32.6-22.5,32.6c-12.4,0-22.5-20.3-22.5-32.6c0-12.4,10.1-20.9,22.5-20.9
	C321.6,165.3,331.7,174.4,331.7,186.7z"/>
<circle class="st14" cx="309.2" cy="186.7" r="22.5"/>
<path class="st15" d="M325,171c8.4,8.4,8.4,23.1,0,31.5c-8.4,8.4-23.1,8.4-31.5,0"/>
<path class="st16" d="M322.2,175.5c0,1.2-0.6,1.6-1.6,1.6s-1.6-0.6-1.6-1.6s0.6-1.6,1.6-1.6S322.2,175,322.2,175.5z"/>
<g>
	<circle class="st4" cx="282.8" cy="343.2" r="4"/>
	<circle class="st4" cx="282.8" cy="361.2" r="4"/>
	<circle class="st4" cx="282.8" cy="379.2" r="4"/>
</g>
<g>
	<circle class="st14" cx="195" cy="185.6" r="9.6"/>
	<circle class="st14" cx="226.6" cy="185.6" r="9.6"/>
	<circle class="st14" cx="258.1" cy="185.6" r="9.6"/>
</g>
<g>
	<path class="st0" d="M125.3,455.2c0,1.2-1.2,2.2-2.2,2.2H93.7c-1.2,0-2.2-1.2-2.2-2.2l0,0c0-1.2,1.2-2.2,2.2-2.2H123
		C124.7,452.9,125.3,454,125.3,455.2L125.3,455.2z"/>
	<path class="st0" d="M125.3,468.1c0,1.2-1.2,2.2-2.2,2.2H93.7c-1.2,0-2.2-1.2-2.2-2.2l0,0c0-1.2,1.2-2.2,2.2-2.2H123
		C124.7,465.8,125.3,467,125.3,468.1L125.3,468.1z"/>
	<path class="st0" d="M125.3,481.1c0,1.2-1.2,2.2-2.2,2.2H93.7c-1.2,0-2.2-1.2-2.2-2.2l0,0c0-1.2,1.2-2.2,2.2-2.2H123
		C124.7,479.3,125.3,479.9,125.3,481.1L125.3,481.1z"/>
</g>
</svg>
