<svg xmlns="http://www.w3.org/2000/svg" viewBox="0 0 174.928 108.276">
  <defs>
    <clipPath id="clip-path">
      <rect id="Rectangle_11825" data-name="Rectangle 11825" width="174.928" height="108.276" fill="none"/>
    </clipPath>
  </defs>
  <g id="Group_18197" data-name="Group 18197" transform="translate(0 0)">
    <g id="Group_18196" data-name="Group 18196" transform="translate(0 0.001)" clip-path="url(#clip-path)">
      <path id="Path_22176" data-name="Path 22176" d="M103.119,103.51V3.137A3.062,3.062,0,0,1,106.01.008c-.024,0-.047-.008-.069-.008H10.529A3.062,3.062,0,0,0,7.57,3.137V103.51Z" transform="translate(2.544 -0.001)" fill="#dd970a"/>
      <path id="Path_22177" data-name="Path 22177" d="M159.009,12.271H3.443A3.454,3.454,0,0,1,0,8.827V5.4A3.454,3.454,0,0,1,3.443,1.954H159.009A3.454,3.454,0,0,1,162.453,5.4V8.827a3.454,3.454,0,0,1-3.444,3.444" transform="translate(0 0.656)" fill="#5b3e60"/>
      <path id="Path_22178" data-name="Path 22178" d="M160.3,8.634H2.152C.969,8.634,0,7,0,5.008V7.62c0,1.993.969,3.625,2.152,3.625H160.3c1.184,0,2.151-1.631,2.151-3.625V5.008c0,1.995-.967,3.626-2.151,3.626" transform="translate(0 1.682)" fill="#4a314f"/>
      <path id="Path_22179" data-name="Path 22179" d="M13.757,3.281v105h95.549v-105A3.142,3.142,0,0,0,106.346,0H10.935c-.023,0-.045.008-.069.008a3.147,3.147,0,0,1,2.891,3.273" transform="translate(3.652 -0.001)" fill="#ffc31d"/>
      <path id="Path_22180" data-name="Path 22180" d="M12.318.008c.024,0,.045-.008.069-.008H10.935c-.024,0-.045.008-.069.008a3.148,3.148,0,0,1,2.891,3.273v105H15.21v-105A3.148,3.148,0,0,0,12.318.008" transform="translate(3.652 -0.001)" fill="#eea70a"/>
      <rect id="Rectangle_11821" data-name="Rectangle 11821" width="94.096" height="12.031" transform="translate(18.861 85.581)" fill="#fff"/>
      <rect id="Rectangle_11822" data-name="Rectangle 11822" width="94.096" height="3.076" transform="translate(18.861 77.926)" fill="#fff"/>
      <rect id="Rectangle_11823" data-name="Rectangle 11823" width="7.295" height="12.031" transform="translate(10.114 81.115)" fill="#edc264"/>
      <rect id="Rectangle_11824" data-name="Rectangle 11824" width="7.295" height="3.076" transform="translate(10.114 73.459)" fill="#edc264"/>
      <path id="Path_22181" data-name="Path 22181" d="M135.413,55.515,103.819,88.043a2.817,2.817,0,0,1-2.025.86c-.735,0-2.027-.041-2.027-.041L68.173,55.515a3.022,3.022,0,0,1,0-4.173L99.767,18.817a2.815,2.815,0,0,1,4.052,0l31.594,32.526a3.022,3.022,0,0,1,0,4.173" transform="translate(22.63 6.034)" fill="#4197a5"/>
      <path id="Path_22182" data-name="Path 22182" d="M134.03,55.515,102.436,88.043a2.817,2.817,0,0,1-4.052,0L66.79,55.515a3.022,3.022,0,0,1,0-4.173L98.384,18.817a2.815,2.815,0,0,1,4.052,0L134.03,51.343a3.022,3.022,0,0,1,0,4.173" transform="translate(22.165 6.034)" fill="#60ccd7"/>
      <path id="Path_22183" data-name="Path 22183" d="M121.839,52.342,99.353,75.492a2,2,0,0,1-2.883,0L73.984,52.342a2.148,2.148,0,0,1,0-2.969L96.47,26.223a2,2,0,0,1,2.883,0l22.486,23.15a2.148,2.148,0,0,1,0,2.969" transform="translate(24.663 8.606)" fill="#52b1be"/>
      <path id="Path_22184" data-name="Path 22184" d="M96.882,75.485,74.4,52.335a2.151,2.151,0,0,1,0-2.969l22.486-23.15a1.976,1.976,0,0,1,1.236-.572,1.972,1.972,0,0,0-1.649.572L73.984,49.366a2.148,2.148,0,0,0,0,2.969L96.47,75.485a1.972,1.972,0,0,0,1.649.572,1.976,1.976,0,0,1-1.236-.572" transform="translate(24.663 8.613)" fill="#4197a5"/>
      <path id="Path_22185" data-name="Path 22185" d="M92.117,15.758c-2.342.338-3.146,4.166-1.55,5.712,1.685,1.633,4.967,1.4,6.19-.672A3.77,3.77,0,0,0,93.7,15.226c-2.5-.029-4.138,3.177-2.188,5.058a1.679,1.679,0,0,0,2.338-2.408c.315.3-.017.389-.019.641-.172.057-.216.095-.131.114l.077.051c.033.206.27.258.053.438-.262.218-.945-.289-1.1-.2.171-.1.285,1.2.354.162.033-.508.162-.075-.091-.039a1.721,1.721,0,0,0,1.156-2.095,1.693,1.693,0,0,0-2.035-1.189" transform="translate(30.157 5.116)" fill="#52b1be"/>
      <path id="Path_22186" data-name="Path 22186" d="M94.957,20.27a16.545,16.545,0,0,1-2.894-6.3c-.355-1.718-.33-8.891,2.691-4.965,1.538,2-.023,5.387-.778,7.43a26.472,26.472,0,0,0-1.6,5.964c-.278,2.166,3.033,2.144,3.308,0,.546-4.269,3.5-8.015,2.862-12.469-.413-2.9-2.621-6.2-5.843-5.827-7.867.921-3.216,14.238-.6,17.887,1.251,1.745,4.123.048,2.856-1.718" transform="translate(29.686 1.368)" fill="#52b1be"/>
      <path id="Path_22187" data-name="Path 22187" d="M95.376,7.764A2.657,2.657,0,1,1,92.72,5.029a2.7,2.7,0,0,1,2.656,2.735" transform="translate(30.267 1.689)" fill="#4a314f"/>
      <path id="Path_22188" data-name="Path 22188" d="M147.426,55.515,115.832,88.043a2.817,2.817,0,0,1-2.025.86c-.735,0-2.027-.041-2.027-.041L80.186,55.515a3.022,3.022,0,0,1,0-4.173L111.78,18.817a2.815,2.815,0,0,1,4.052,0l31.594,32.526a3.022,3.022,0,0,1,0,4.173" transform="translate(26.667 6.034)" fill="#b22d69"/>
      <path id="Path_22189" data-name="Path 22189" d="M146.042,55.515,114.448,88.043a2.817,2.817,0,0,1-4.052,0L78.8,55.515a3.022,3.022,0,0,1,0-4.173L110.4,18.817a2.815,2.815,0,0,1,4.052,0l31.594,32.526a3.022,3.022,0,0,1,0,4.173" transform="translate(26.202 6.034)" fill="#e94982"/>
      <path id="Path_22190" data-name="Path 22190" d="M133.851,52.342l-22.486,23.15a2,2,0,0,1-2.883,0L86,52.342a2.148,2.148,0,0,1,0-2.969l22.486-23.15a2,2,0,0,1,2.883,0l22.486,23.15a2.148,2.148,0,0,1,0,2.969" transform="translate(28.7 8.606)" fill="#cd3a77"/>
      <path id="Path_22191" data-name="Path 22191" d="M108.894,75.485,86.409,52.335a2.151,2.151,0,0,1,0-2.969l22.486-23.15a1.973,1.973,0,0,1,1.236-.572,1.976,1.976,0,0,0-1.65.572L86,49.366a2.148,2.148,0,0,0,0,2.969l22.485,23.15a1.976,1.976,0,0,0,1.65.572,1.973,1.973,0,0,1-1.236-.572" transform="translate(28.7 8.613)" fill="#b22d69"/>
      <path id="Path_22192" data-name="Path 22192" d="M104.13,15.758c-2.341.338-3.146,4.166-1.55,5.712a4.163,4.163,0,0,0,6.191-.672,3.772,3.772,0,0,0-3.058-5.571c-2.5-.029-4.138,3.177-2.188,5.058a1.679,1.679,0,0,0,2.338-2.408c.315.3-.017.389-.019.641-.172.057-.216.095-.131.114l.077.051c.033.206.27.258.053.438-.262.218-.945-.289-1.1-.2.171-.1.285,1.2.354.162.033-.508.162-.075-.091-.039a1.721,1.721,0,0,0,1.156-2.095,1.693,1.693,0,0,0-2.035-1.189" transform="translate(34.194 5.116)" fill="#cd3a77"/>
      <path id="Path_22193" data-name="Path 22193" d="M106.969,20.27a16.523,16.523,0,0,1-2.893-6.3c-.357-1.718-.331-8.891,2.689-4.965,1.538,2-.023,5.387-.778,7.43a26.472,26.472,0,0,0-1.6,5.964c-.278,2.166,3.033,2.144,3.308,0,.546-4.269,3.5-8.015,2.862-12.469-.413-2.9-2.621-6.2-5.843-5.827-7.867.921-3.216,14.238-.6,17.887,1.251,1.745,4.123.048,2.857-1.718" transform="translate(33.723 1.368)" fill="#cd3a77"/>
      <path id="Path_22194" data-name="Path 22194" d="M107.388,7.764a2.657,2.657,0,1,1-2.656-2.735,2.7,2.7,0,0,1,2.656,2.735" transform="translate(34.304 1.689)" fill="#4a314f"/>
    </g>
  </g>
</svg>
