<?xml version="1.0" encoding="utf-8"?>
<!-- Generator: Adobe Illustrator 24.0.3, SVG Export Plug-In . SVG Version: 6.00 Build 0)  -->
<svg version="1.1" id="Layer_1" xmlns="http://www.w3.org/2000/svg" xmlns:xlink="http://www.w3.org/1999/xlink" x="0px" y="0px"
	 width="496.8px" height="496.8px" viewBox="0 0 496.8 496.8" style="enable-background:new 0 0 496.8 496.8;" xml:space="preserve"
	>
<style type="text/css">
	.st0{fill:#80AFBA;}
	.st1{fill:#6FA4AD;}
	.st2{fill:#578D93;}
	.st3{fill:#C4E3E8;}
	.st4{fill:#A3CAD3;}
	.st5{fill:#4FC7D3;}
	.st6{fill:#59DCE2;}
	.st7{fill:#48ACBC;}
	.st8{fill:#BFE3E8;}
	.st9{opacity:0.2;fill:#72A2A5;enable-background:new    ;}
	.st10{fill:#86AD99;}
	.st11{fill:#658E78;}
	.st12{fill:#137D8E;}
	.st13{fill:#72A2A5;}
	.st14{fill:#185B6B;}
	.st15{fill:#073B44;}
	.st16{fill:#B8D7E0;}
</style>
<path class="st0" d="M408.4,480.8c0,8.8-7.2,16-16,16h-368c-8.8,0-16-7.2-16-16v-464c0-8.8,7.2-16,16-16h360c8.8,0,16,7.2,16,16
	L408.4,480.8z"/>
<path class="st1" d="M386.8,0c8.8,0,21.6,7.2,21.6,16v465.6c0,8.8-3.2,15.2-12,15.2h-368c-8.8,0-16.8-7.2-16.8-16"/>
<path class="st2" d="M408.4,304l-96.8-91.2L112.4,412l85.6,84.8h198.4c8.8,0,12-6.4,12-15.2V304z"/>
<circle class="st3" cx="208.4" cy="305.6" r="146.4"/>
<circle class="st4" cx="208.4" cy="305.6" r="125.6"/>
<circle class="st5" cx="208.4" cy="305.6" r="114.4"/>
<path class="st6" d="M94,305.6c0-63.2,51.2-114.4,114.4-114.4"/>
<path class="st7" d="M289.2,224.8c44.8,44.8,44.8,116.8,0,161.6s-116.8,44.8-161.6,0"/>
<path class="st3" d="M334,368.8c-35.2,0-64-28.8-64-64s28.8-64,64-64"/>
<path class="st1" d="M388.4,16.8h-360c-8.8,0-20,8-20,16.8v95.2h392V33.6C400.4,24.8,397.2,16.8,388.4,16.8z"/>
<path class="st4" d="M388.4,0.8h-360c-8.8,0-20,6.4-20,15.2v88.8h392V16C400.4,7.2,397.2,0.8,388.4,0.8z"/>
<path class="st8" d="M408.4,16c0-8.8-12.8-16-21.6-16L24.4,0.8c-8.8,0-16,7.2-16,16"/>
<path class="st0" d="M386.8,0l-82.4,104.8h104V16C408.4,7.2,395.6,0,386.8,0z"/>
<path class="st9" d="M152.4,84.8c0,2.4-1.6,4-4,4h-104c-2.4,0-4-1.6-4-4v-40c0-2.4,1.6-4,4-4h104c2.4,0,4,1.6,4,4V84.8z"/>
<path class="st10" d="M152.4,76.8c0,2.4-1.6,4-4,4h-104c-2.4,0-4-1.6-4-4v-40c0-2.4,1.6-4,4-4h104c2.4,0,4,1.6,4,4V76.8z"/>
<path class="st11" d="M148.4,32.8c2.4,0,4,1.6,4,4v40c0,2.4-1.6,4-4,4h-104c-2.4,0-4-1.6-4-4"/>
<path class="st12" d="M382.8,56c0,17.6-14.4,32-32,32s-32-14.4-32-32s14.4-33.6,32-33.6C368.4,21.6,382.8,38.4,382.8,56z"/>
<path class="st13" d="M382.8,56c0,17.6-14.4,46.4-32,46.4s-32-28.8-32-46.4s14.4-29.6,32-29.6C368.4,25.6,382.8,38.4,382.8,56z"/>
<circle class="st14" cx="350.8" cy="56" r="32"/>
<path class="st15" d="M373.2,33.6c12,12,12,32.8,0,44.8s-32.8,12-44.8,0"/>
<path class="st16" d="M369.2,40c0,1.6-0.8,2.4-2.4,2.4s-2.4-0.8-2.4-2.4c0-1.6,0.8-2.4,2.4-2.4S369.2,39.2,369.2,40z"/>
<g>
	<circle class="st4" cx="313.2" cy="278.4" r="5.6"/>
	<circle class="st4" cx="313.2" cy="304" r="5.6"/>
	<circle class="st4" cx="313.2" cy="329.6" r="5.6"/>
</g>
<g>
	<circle class="st14" cx="188.4" cy="54.4" r="13.6"/>
	<circle class="st14" cx="233.2" cy="54.4" r="13.6"/>
	<circle class="st14" cx="278" cy="54.4" r="13.6"/>
</g>
<g>
	<path class="st0" d="M89.2,437.6c0,1.6-1.6,3.2-3.2,3.2H44.4c-1.6,0-3.2-1.6-3.2-3.2l0,0c0-1.6,1.6-3.2,3.2-3.2H86
		C88.4,434.4,89.2,436,89.2,437.6L89.2,437.6z"/>
	<path class="st0" d="M89.2,456c0,1.6-1.6,3.2-3.2,3.2H44.4c-1.6,0-3.2-1.6-3.2-3.2l0,0c0-1.6,1.6-3.2,3.2-3.2H86
		C88.4,452.8,89.2,454.4,89.2,456L89.2,456z"/>
	<path class="st0" d="M89.2,474.4c0,1.6-1.6,3.2-3.2,3.2H44.4c-1.6,0-3.2-1.6-3.2-3.2l0,0c0-1.6,1.6-3.2,3.2-3.2H86
		C88.4,472,89.2,472.8,89.2,474.4L89.2,474.4z"/>
</g>
</svg>
