<svg xmlns="http://www.w3.org/2000/svg" viewBox="0 0 32 32">
  <defs>
    <linearGradient id="linear-gradient" x1="0.5" x2="0.5" y2="1" gradientUnits="objectBoundingBox">
      <stop offset="0" stop-color="#f0a"/>
      <stop offset="1" stop-color="#ff8228"/>
    </linearGradient>
  </defs>
  <path d="M15.815,0h.375a1.407,1.407,0,0,1,.878.86c1.347,2.9,2.712,5.782,4.06,8.677a.722.722,0,0,0,.62.468c3.044.453,6.086.927,9.13,1.381a1.256,1.256,0,0,1,1.123.8v.5a5.379,5.379,0,0,1-.456.624q-3.329,3.431-6.675,6.844a.74.74,0,0,0-.23.718q.8,4.823,1.579,9.648c.136.834-.012,1.118-.779,1.478h-.312c-.206-.1-.418-.187-.617-.3q-4.1-2.262-8.191-4.533a.569.569,0,0,0-.63,0q-2.642,1.477-5.3,2.932c-1.167.64-2.342,1.264-3.513,1.9H6.566c-.74-.349-.916-.661-.793-1.417q.79-4.838,1.587-9.676a.794.794,0,0,0-.242-.773Q3.748,16.7.4,13.254a1.051,1.051,0,0,1-.342-1.126,1.038,1.038,0,0,1,.935-.711c3.1-.469,6.193-.95,9.291-1.415a.677.677,0,0,0,.581-.429C12.214,6.666,13.584,3.767,14.936.86A1.4,1.4,0,0,1,15.815,0" transform="translate(0)" fill="url(#linear-gradient)"/>
</svg>
