<svg xmlns="http://www.w3.org/2000/svg" viewBox="0 0 38.585 42">
  <defs>
    <linearGradient id="linear-gradient" x1="0.5" x2="0.584" y2="1.581" gradientUnits="objectBoundingBox">
      <stop offset="0" stop-color="#f0a"/>
      <stop offset="1" stop-color="#ffb01f"/>
    </linearGradient>
  </defs>
  <g transform="translate(2136 225)">
    <path d="M5.8,0H32.78a5.8,5.8,0,0,1,5.8,5.8V32.78a5.8,5.8,0,0,1-5.8,5.8H5.8A5.8,5.8,0,0,1,0,32.78V5.8A5.8,5.8,0,0,1,5.8,0Z" transform="translate(-2136 -221.585)" fill="#fff"/>
    <path d="M163.219,173.937l10.719-10.719v4.914a5.8,5.8,0,0,1-5.8,5.8Z" transform="translate(-2271.352 -356.937)" fill="#f0a"/>
    <path d="M5.8,0H32.78a5.8,5.8,0,0,1,5.8,5.8v4.78H0V5.8A5.8,5.8,0,0,1,5.8,0Z" transform="translate(-2136 -221.585)" fill="url(#linear-gradient)"/>
    <path d="M1.024,0A1.024,1.024,0,0,1,2.049,1.024V7.683A1.024,1.024,0,1,1,0,7.683V1.024A1.024,1.024,0,0,1,1.024,0Z" transform="translate(-2129.171 -225)" fill="#fff"/>
    <path d="M1.024,0A1.024,1.024,0,0,1,2.049,1.024V7.683A1.024,1.024,0,1,1,0,7.683V1.024A1.024,1.024,0,0,1,1.024,0Z" transform="translate(-2106.293 -225)" fill="#fff"/>
    <path d="M7.256,9.907c2.842-2.892,5.418-5.514,8-8.134.394-.4.788-.8,1.2-1.184A1.641,1.641,0,0,1,18.912.525,1.613,1.613,0,0,1,19,2.99q-5.146,5.256-10.411,10.4a1.835,1.835,0,0,1-2.749-.148c-1.75-1.717-3.493-3.443-5.2-5.2A1.661,1.661,0,0,1,.593,5.46a1.654,1.654,0,0,1,2.57.134c1.32,1.348,2.6,2.735,4.093,4.312" transform="translate(-2126.44 -206.048)" fill="#ffb01f"/>
  </g>
</svg>
