<svg xmlns="http://www.w3.org/2000/svg" viewBox="0 0 32 32">
  <defs>
    <linearGradient id="linear-gradient" x1="0.239" y1="0.5" x2="0.746" y2="0.801" gradientUnits="objectBoundingBox">
      <stop offset="0" stop-color="#f9bd2c"/>
      <stop offset="1" stop-color="#ff8228"/>
    </linearGradient>
  </defs>
  <g transform="translate(4574 -322)">
    <path d="M6.369,0H25.686c.818.4.605,1.168.613,1.875h.368c1.382,0,2.764.018,4.145-.009a1.114,1.114,0,0,1,1.188.7V6.188c-.02.034-.053.066-.058.1a9.589,9.589,0,0,1-3.292,6.219,9.706,9.706,0,0,1-5.569,2.41.907.907,0,0,0-.707.392,9.383,9.383,0,0,1-2.673,2.41c-.281.166-.684.27-.807.515s.015.646.039.977c0,.031,0,.063.006.093a13.872,13.872,0,0,0,3.369,7.243,1.737,1.737,0,0,1,.173.288c-.062,0-.125.011-.187.011l-12.563-.01c-.062,0-.125-.008-.187-.012a1.846,1.846,0,0,1,.17-.287,13.822,13.822,0,0,0,3.432-8.17.357.357,0,0,0-.14-.289,9.425,9.425,0,0,1-3.526-2.967.518.518,0,0,0-.33-.176,9.615,9.615,0,0,1-2.936-.69A9.544,9.544,0,0,1,.132,6.6,27.332,27.332,0,0,1,0,2.958.952.952,0,0,1,1.074,1.88H5.387c.109,0,.218-.009.346-.015C5.68,1.126,5.514.379,6.369,0M8.133,12.923A25.352,25.352,0,0,1,5.8,3.767H1.9a8.308,8.308,0,0,0,2.03,6.705,8.1,8.1,0,0,0,4.2,2.451M23.9,12.874a8.082,8.082,0,0,0,6.182-9.1H26.2a25.351,25.351,0,0,1-2.3,9.1" transform="translate(-4574 322)" fill="url(#linear-gradient)"/>
    <path d="M105.377,321.919a2.442,2.442,0,0,1,.075.419c.007.943,0,1.887,0,2.866h.848a.944.944,0,0,1,.387,1.839.228.228,0,0,0-.047.04H91.14c-.068-.041-.135-.083-.2-.123a.932.932,0,0,1,.417-1.749c.31-.012.622,0,.981,0V324.9c0-.851-.005-1.7,0-2.553a2.091,2.091,0,0,1,.1-.443c.062,0,.124.012.187.012l12.563.009c.062,0,.125-.007.187-.011" transform="translate(-4656.896 26.918)" fill="#000e50"/>
  </g>
</svg>
