<svg xmlns="http://www.w3.org/2000/svg" viewBox="0 0 32 32">
  <g transform="translate(-1881 579)">
    <circle cx="16" cy="16" r="16" transform="translate(1881 -579)" fill="#ffc850"/>
    <g transform="translate(1888.323 -574.867)">
      <path d="M79.688,255.853c.226-.826.532-1.625.818-2.431a4.2,4.2,0,0,1,3.105-2.815,1.649,1.649,0,0,0,1.319-1,1.214,1.214,0,0,1,.2-.268c0,.447.007.893.006,1.34a.683.683,0,0,0,.144.481q1.3,1.483,2.608,2.965a.348.348,0,0,0,.582.021q1.4-1.345,2.81-2.678a.714.714,0,0,0,.238-.577c-.011-.458,0-.916,0-1.375a.973.973,0,0,1,.183.24,1.131,1.131,0,0,0,.972.719,7.876,7.876,0,0,1,1.975.751,2.593,2.593,0,0,1,1.139,1.188,20.054,20.054,0,0,1,1.251,3.432,10.7,10.7,0,0,1-2.353,1.271c-.086-.355-.176-.709-.256-1.065-.045-.2-.134-.365-.365-.3-.206.056-.217.228-.172.419.093.389.17.781.253,1.173a13.927,13.927,0,0,1-3.836.98,15.789,15.789,0,0,1-7.066-.725c-.291-.1-.575-.219-.863-.33.043-.316.091-.631.126-.947.022-.192.056-.422-.222-.449-.259-.025-.3.173-.326.384-.027.26-.073.518-.11.776a10.237,10.237,0,0,1-2.165-1.18" transform="translate(-79.688 -230.611)" fill="#14e5e5"/>
      <path d="M105.708,122.378c0,.458-.012.917,0,1.375a.715.715,0,0,1-.238.577q-1.41,1.333-2.81,2.678a.347.347,0,0,1-.582-.021q-1.3-1.485-2.608-2.965a.683.683,0,0,1-.144-.481c0-.447,0-.893-.006-1.34.135-.492.11-.584-.3-.891A5.2,5.2,0,0,1,96.9,117.8c-.025-.164.022-.381-.265-.444-1.622-.354-1.561-1.778-.886-2.759.129-.187.288-.352.434-.527.084.135.159.276.254.4a.419.419,0,0,0,.776-.151,3.43,3.43,0,0,0,.05-.818c.009-.216-.057-.472.036-.641a5.266,5.266,0,0,0,.516-2.315,1.344,1.344,0,0,1,.9-1.062,4.108,4.108,0,0,1,2.359.1,2.835,2.835,0,0,0,1.649.1,9.95,9.95,0,0,1,2.891-.269c1.252.094,1.572.157,1.837,1.322a17.016,17.016,0,0,1,.591,3.175c.009.28.039.613.376.7.366.094.42-.264.563-.48a2.318,2.318,0,0,1,.7,2.462,1.088,1.088,0,0,1-1.047.918c-.172.019-.225.1-.262.251-.1.421-.236.834-.337,1.256a4.175,4.175,0,0,1-2.047,2.631c-.319.193-.409.392-.286.719" transform="translate(-93.873 -103.471)" fill="#fff"/>
      <path d="M111.32,55.743c-.143.216-.2.574-.563.48-.338-.087-.367-.419-.376-.7a17.016,17.016,0,0,0-.591-3.175c-.264-1.166-.584-1.228-1.837-1.322a9.952,9.952,0,0,0-2.891.268,2.835,2.835,0,0,1-1.65-.1,4.108,4.108,0,0,0-2.359-.1,1.344,1.344,0,0,0-.9,1.062,5.262,5.262,0,0,1-.516,2.315c-.093.17-.026.425-.036.641a3.434,3.434,0,0,1-.05.818.419.419,0,0,1-.776.151c-.1-.127-.171-.268-.254-.4a9.347,9.347,0,0,1-.639-3.449,7.385,7.385,0,0,1,.471-2.617,2.018,2.018,0,0,1,1.2-1.24c.19-.062.158-.189.167-.319a2.654,2.654,0,0,1,1.8-2.543,8.107,8.107,0,0,1,1.523-.232,16.9,16.9,0,0,1,3.284-.181,4.658,4.658,0,0,1,3.292,1.474,7.711,7.711,0,0,1,1.523,2.015.53.53,0,0,0,.1.139,3.174,3.174,0,0,1,.828,2.857,10.293,10.293,0,0,0-.149,1.923,11.033,11.033,0,0,1-.53,1.942c-.018.1-.049.2-.073.3" transform="translate(-96.206 -45.072)" fill="#010100"/>
    </g>
  </g>
</svg>
