<svg version="1.1" id="Layer_1" xmlns="http://www.w3.org/2000/svg" xmlns:xlink="http://www.w3.org/1999/xlink" x="0px" y="0px"
	 width="480px" height="533.4px" viewBox="0 0 480 533.4" style="enable-background:new 0 0 480 533.4;" xml:space="preserve">
<style type="text/css">
	.st0{fill:url(#Rectangle-2_1_);}
	.st1{filter:url(#Rectangle);}
	.st2{clip-path:url(#SVGID_2_);}
	.st3{fill:#BF4D00;}
	.st4{fill:#FF7F00;}
	.st5{fill:#E25B00;}
	.st6{fill:#EDF8F9;}
	.st7{fill:#29B6F6;}
	.st8{fill:#0277BD;}
	.st9{fill:#FFFFFF;}
	.st10{fill:#FF9100;}
	.st11{fill:#540000;}
	.st12{fill:#FFF8E1;}
	.st13{fill:#EADCB9;}
	.st14{fill:#F06292;}
	.st15{fill:#FF78AC;}
</style>
<filter  filterUnits="userSpaceOnUse" height="480" id="Rectangle" width="480" x="0" y="0">
	<feOffset  dy="3" input="SourceAlpha"></feOffset>
	<feGaussianBlur  result="blur" stdDeviation="3"></feGaussianBlur>
	<feFlood  flood-opacity="0.161"></feFlood>
	<feComposite  in2="blur" operator="in"></feComposite>
	<feComposite  in="SourceGraphic" operator="over"></feComposite>
</filter>
<linearGradient id="Rectangle-2_1_" gradientUnits="userSpaceOnUse" x1="189.8492" y1="353.6907" x2="190.7912" y2="352.2077" gradientTransform="matrix(462 0 0 -462 -87581 163524.9375)">
	<stop  offset="0" style="stop-color:#FF8228"/>
	<stop  offset="0.38" style="stop-color:#FF00AA"/>
	<stop  offset="1" style="stop-color:#14E5E5"/>
</linearGradient>
<path id="Rectangle-2" class="st0" d="M56.5,59.1h362c27.6,0,50,22.4,50,50v362c0,27.6-22.4,50-50,50h-362c-27.6,0-50-22.4-50-50
	v-362C6.5,81.5,28.9,59.1,56.5,59.1z"/>
<g transform="matrix(1, 0, 0, 1, 0, 0)" class="st1">
</g>
<g id="Group_18147" transform="translate(0 0)">
	<g>
		<defs>
			<rect id="SVGID_1_" x="71.1" y="8.5" width="334.8" height="461.6"/>
		</defs>
		<clipPath id="SVGID_2_">
			<use xlink:href="#SVGID_1_"  style="overflow:visible;"/>
		</clipPath>
		<g id="Group_18031" transform="translate(0 0)" class="st2">
			<path id="Path_21580" class="st3" d="M378,296c-0.1,1.2-1.1,2-2.2,2s-2-1.1-2-2.2s1.1-2,2.2-2c0,0,0,0,0,0
				C377.1,293.8,378,294.8,378,296"/>
			<path id="Path_21581" class="st3" d="M371.5,282.3c-0.1,1-0.9,1.7-1.9,1.7c-1-0.1-1.7-0.9-1.7-1.9c0.1-1,0.9-1.7,1.9-1.7
				C370.8,280.4,371.5,281.3,371.5,282.3C371.5,282.3,371.5,282.3,371.5,282.3"/>
			<path id="Path_21582" class="st3" d="M216.7,309.9c-0.1,1.5-1.4,2.6-2.9,2.5c-1.5-0.1-2.6-1.4-2.5-2.9c0.1-1.5,1.4-2.6,2.9-2.5
				C215.7,307.2,216.8,308.4,216.7,309.9"/>
			<path id="Path_21583" class="st3" d="M229.7,238.5c0,0.7-0.6,1.2-1.3,1.2c-0.7-0.1-1.2-0.7-1.1-1.4c0.1-0.6,0.6-1.1,1.3-1.1
				C229.2,237.2,229.8,237.8,229.7,238.5"/>
			<path id="Path_21584" class="st3" d="M250.8,245.4c-0.1,1.5-1.4,2.7-3,2.6c-1.5-0.1-2.7-1.4-2.6-3c0.1-1.5,1.4-2.7,3-2.6
				C249.7,242.5,250.9,243.8,250.8,245.4"/>
			<path id="Path_21585" class="st3" d="M258.1,312.2c-0.1,1.3-1.2,2.3-2.5,2.2c-1.3-0.1-2.3-1.2-2.2-2.5s1.2-2.3,2.5-2.2
				c0,0,0,0,0,0C257.2,309.8,258.2,310.9,258.1,312.2"/>
			<path id="Path_21586" class="st3" d="M311.1,297.4c-0.1,1.6-1.4,2.8-3,2.7c-1.6-0.1-2.8-1.4-2.7-3c0.1-1.6,1.4-2.8,3-2.7
				c0,0,0,0,0,0C310,294.5,311.2,295.9,311.1,297.4"/>
			<path id="Path_21587" class="st3" d="M253.1,230.3c-0.1,1.3-1.2,2.3-2.5,2.2s-2.3-1.2-2.2-2.5c0.1-1.3,1.2-2.3,2.5-2.2
				c0,0,0,0,0,0C252.2,227.9,253.2,229,253.1,230.3"/>
			<path id="Path_21588" class="st3" d="M341.4,300.1c-0.1,1.6-1.5,2.9-3.2,2.8c-1.6-0.1-2.9-1.5-2.8-3.2s1.5-2.9,3.2-2.8
				c0,0,0,0,0,0C340.3,297,341.5,298.4,341.4,300.1C341.4,300.1,341.4,300.1,341.4,300.1"/>
			<path id="Path_21589" class="st3" d="M290.4,283.6c-0.1,2.1-1.9,3.6-3.9,3.5s-3.6-1.9-3.5-3.9c0.1-2.1,1.9-3.6,3.9-3.5
				c0,0,0,0,0,0C289,279.7,290.5,281.5,290.4,283.6"/>
			<path id="Path_21590" class="st3" d="M278.3,293.6c-0.1,1.3-1.2,2.3-2.6,2.3c-1.3-0.1-2.3-1.2-2.3-2.6c0.1-1.3,1.2-2.3,2.6-2.3
				c0,0,0,0,0,0C277.4,291.2,278.4,292.3,278.3,293.6"/>
			<path id="Path_21591" class="st3" d="M262.9,292.1c-0.1,1.1-1,2-2.1,1.9c-1.1-0.1-2-1-1.9-2.1s1-2,2.1-1.9c0,0,0,0,0,0
				C262.2,290.1,263,291,262.9,292.1C262.9,292.1,262.9,292.1,262.9,292.1"/>
			<path id="Path_21592" class="st3" d="M248,274.4c-0.1,1.4-1.3,2.5-2.7,2.4s-2.5-1.3-2.4-2.7s1.3-2.5,2.7-2.4c0,0,0,0,0,0
				C247,271.7,248.1,273,248,274.4"/>
			<path id="Path_21593" class="st3" d="M234.6,260.9c-0.1,1.5-1.4,2.7-3,2.6c-1.5-0.1-2.7-1.4-2.6-3c0.1-1.5,1.4-2.7,3-2.6
				C233.5,258.1,234.7,259.4,234.6,260.9"/>
			<path id="Path_21594" class="st3" d="M223.7,277c-0.1,1.4-1.3,2.4-2.6,2.3c-1.4-0.1-2.4-1.3-2.3-2.6c0.1-1.4,1.3-2.4,2.6-2.3
				C222.7,274.4,223.8,275.6,223.7,277C223.7,277,223.7,277,223.7,277"/>
			<path id="Path_21595" class="st3" d="M217.8,266.2c-0.1,2.1-1.9,3.7-4,3.5c-2.1-0.1-3.7-1.9-3.5-4c0.1-2.1,1.9-3.7,4-3.5
				C216.3,262.3,217.9,264.1,217.8,266.2C217.8,266.2,217.8,266.2,217.8,266.2"/>
			<path id="Path_21596" class="st3" d="M207.1,276.6c-0.1,1.7-1.5,2.9-3.2,2.8c-1.7-0.1-2.9-1.5-2.8-3.2c0.1-1.7,1.5-2.9,3.2-2.8
				C206,273.5,207.2,275,207.1,276.6C207.1,276.6,207.1,276.6,207.1,276.6"/>
			<path id="Path_21597" class="st3" d="M198.7,300.3c-0.1,0.8-0.8,1.4-1.6,1.4c-0.8-0.1-1.4-0.8-1.4-1.6c0.1-0.8,0.8-1.4,1.6-1.4
				c0,0,0,0,0,0C198.1,298.7,198.7,299.4,198.7,300.3C198.7,300.3,198.7,300.3,198.7,300.3"/>
			<path id="Path_21598" class="st3" d="M384.5,274.9c-0.1,1.8-1.7,3.2-3.5,3.1c-1.8-0.1-3.2-1.7-3.1-3.5c0.1-1.8,1.7-3.2,3.5-3.1
				c0,0,0,0,0,0C383.2,271.6,384.6,273.1,384.5,274.9C384.5,274.9,384.5,274.9,384.5,274.9"/>
			<path id="Path_21599" class="st3" d="M181,304.4c-0.1,1.6-1.4,2.8-2.9,2.7s-2.8-1.4-2.7-2.9c0,0,0-0.1,0-0.1
				c0.1-1.5,1.5-2.7,3-2.6C179.9,301.6,181,302.9,181,304.4"/>
			<path id="Path_21600" class="st3" d="M264.2,265.1c0,0.7-0.6,1.2-1.3,1.2c-0.7,0-1.2-0.6-1.2-1.3c0-0.7,0.6-1.2,1.3-1.2
				c0,0,0,0,0,0C263.7,263.8,264.2,264.4,264.2,265.1"/>
			<path id="Path_21601" class="st3" d="M154.8,288.7c-0.1,1.6-1.4,2.7-3,2.6s-2.7-1.4-2.6-3c0.1-1.6,1.4-2.7,3-2.6
				C153.7,285.8,154.9,287.2,154.8,288.7"/>
			<path id="Path_21602" class="st3" d="M144.5,289.7c-0.1,1.8-1.6,3.1-3.4,3s-3.1-1.6-3-3.4c0.1-1.8,1.6-3.1,3.4-3c0,0,0,0,0,0
				C143.3,286.4,144.6,287.9,144.5,289.7C144.5,289.7,144.5,289.7,144.5,289.7"/>
			<path id="Path_21603" class="st3" d="M136.3,295.5c0,0.7-0.6,1.2-1.3,1.1c0,0,0,0,0,0c-0.7,0-1.2-0.6-1.1-1.3c0,0,0,0,0,0
				c0-0.7,0.6-1.2,1.3-1.1c0,0,0,0,0,0C135.8,294.2,136.3,294.8,136.3,295.5C136.3,295.5,136.3,295.5,136.3,295.5"/>
			<path id="Path_21604" class="st3" d="M230,301.5c0,0.8-0.7,1.5-1.5,1.5c-0.8,0-1.5-0.7-1.5-1.5c0,0,0-0.1,0-0.1
				c0.1-0.8,0.8-1.4,1.7-1.3C229.4,300.1,230,300.7,230,301.5"/>
			<path id="Path_21605" class="st3" d="M92.7,273.5c-0.1,0.9-0.8,1.6-1.7,1.5c-0.9-0.1-1.6-0.8-1.5-1.7c0.1-0.9,0.8-1.6,1.7-1.5
				c0,0,0,0,0,0C92.1,271.8,92.7,272.6,92.7,273.5"/>
			<path id="Path_21606" class="st3" d="M103.3,293.5c-0.1,1.6-1.5,2.8-3.1,2.7s-2.8-1.5-2.7-3.1c0.1-1.6,1.5-2.8,3.1-2.7
				C102.2,290.5,103.4,291.9,103.3,293.5"/>
			<path id="Path_21607" class="st4" d="M191.1,127.5c-2.7,3-22.5-11.4-47.7-9c-25.3,1.2-42.8,18.3-45.9,15.8
				c-1.4-1.1,0.9-8,8.6-15.2c9.9-9.2,22.7-14.7,36.3-15.6c13.5-1.1,27,2.5,38.1,10.2C189.1,119.7,192.3,126.2,191.1,127.5"/>
			<path id="Path_21608" class="st5" d="M142.4,103.9c22.3-1.6,42.6,6.8,54.8,20.8c-11.2-15.2-31.9-24.7-54.9-23
				c-23,1.7-42.1,14-51,30.7C101.1,116.8,120,105.5,142.4,103.9"/>
			<path id="Path_21609" class="st4" d="M377.6,139.2c-3,2.6-20.8-14.2-46.2-15c-25.3-2-44.8,12.7-47.6,9.8
				c-1.3-1.3,1.9-7.8,10.4-13.9c11-7.9,24.4-11.7,38-10.8c13.5,0.7,26.4,6,36.5,15C376.6,131.2,379,138,377.6,139.2"/>
			<path id="Path_21610" class="st5" d="M332.2,109.6c22.4,1.2,41.4,12.2,51.7,27.7c-9.2-16.5-28.5-28.5-51.5-29.8
				c-23-1.3-43.6,8.5-54.5,23.9C289.7,117.1,309.8,108.3,332.2,109.6"/>
			<path id="Path_21611" class="st5" d="M316.7,30.7c-16.3-8.4-24.5,15.9-10.2,21.9c52.7,22.2,70.2,43.8,82.4,69.6
				C388.9,122.2,384.1,65.3,316.7,30.7"/>
			<path id="Path_21612" d="M316.3,24.4c-16.8-7.3-23.9,16.8-9.4,22.3c53.4,20.3,69,50.2,82,75.6C388.9,122.2,383.2,53.3,316.3,24.4
				"/>
			<path id="Path_21613" class="st5" d="M169.7,18.3c17.5-5.3,22.5,18.7,7.6,22.9c-54.8,15.8-72.7,30.4-87.8,54.6
				C89.4,95.8,96.6,40.3,169.7,18.3"/>
			<path id="Path_21614" d="M171.6,9.2c17.5-5.3,21.8,19.4,6.8,23.2C122.9,46.3,104,74.2,88.1,97.8C88.1,97.8,101.8,30.2,171.6,9.2"
				/>
			<path id="Path_21615" class="st5" d="M405.9,209.3c0,41.5-33.6,75.1-75.1,75.1s-75.1-33.6-75.1-75.1c0-41.5,33.6-75.1,75.1-75.1
				C372.3,134.2,405.9,167.8,405.9,209.3"/>
			<path id="Path_21616" class="st6" d="M399.3,212.5c0,37.8-30.6,68.5-68.5,68.5s-68.5-30.6-68.5-68.5S293,144,330.8,144
				c0,0,0,0,0,0C368.6,144,399.3,174.7,399.3,212.5L399.3,212.5"/>
			<path id="Path_21617" d="M341.3,217.7c0,16.7-13.5,30.2-30.2,30.2c-16.7,0-30.2-13.5-30.2-30.2s13.5-30.2,30.2-30.2l0,0
				C327.8,187.6,341.3,201.1,341.3,217.7"/>
			<path id="Path_21618" class="st7" d="M338.5,217.7c0,15.1-12.2,27.3-27.3,27.3c-15.1,0-27.3-12.2-27.3-27.3s12.2-27.3,27.3-27.3
				c0,0,0,0,0,0C326.2,190.5,338.4,202.7,338.5,217.7"/>
			<path id="Path_21619" class="st8" d="M336.2,217.8l-15.3,2l13.3,7.8l-14.8-4.2l9.4,12.1l-12.1-9.4l4.2,14.8l-7.8-13.3l-2,15.3
				l-2-15.3l-7.8,13.3l4.2-14.8l-12.1,9.4l9.4-12.1l-14.8,4.2l13.3-7.8l-15.3-2l15.3-2L288,208l14.8,4.2l-9.4-12.2l12.1,9.4
				l-4.2-14.8l7.8,13.3l2-15.3l2,15.3l7.8-13.3l-4.2,14.8l12.1-9.4l-9.4,12.2l14.8-4.2l-13.3,7.8L336.2,217.8z"/>
			<path id="Path_21620" d="M321.3,217.7c0,5.6-4.6,10.2-10.2,10.2s-10.2-4.6-10.2-10.2c0-5.6,4.6-10.2,10.2-10.2c0,0,0,0,0,0
				C316.8,207.6,321.3,212.1,321.3,217.7"/>
			<path id="Path_21621" class="st9" d="M297.7,167.7c0.8,5.2,3.9,10,15.4,10.7c21,1.3,39.1,19.8,40.5,41.2
				c1.7,26,42.7,14.8,39.4-18.2c-3.1-31.3-40.4-61.3-80-49.4C306.3,154,296.5,159.2,297.7,167.7"/>
			<path id="Path_21622" class="st9" d="M340.8,203.9c0,7.7-6.2,13.9-13.9,13.9s-13.9-6.2-13.9-13.9c0-7.7,6.2-13.9,13.9-13.9
				c0,0,0,0,0,0C334.6,189.9,340.8,196.2,340.8,203.9"/>
			<path id="Path_21623" class="st9" d="M309.2,230.1c0,4.6-3.7,8.2-8.2,8.2c-4.6,0-8.2-3.7-8.2-8.2s3.7-8.2,8.2-8.2l0,0
				C305.5,221.9,309.2,225.6,309.2,230.1"/>
			<path id="Path_21624" class="st5" d="M71.1,206.7c0,43.4,35.2,78.7,78.7,78.7s78.7-35.2,78.7-78.7S193.2,128,149.8,128
				c0,0,0,0,0,0C106.3,128,71.1,163.3,71.1,206.7C71.1,206.7,71.1,206.7,71.1,206.7"/>
			<path id="Path_21625" class="st6" d="M78,211.1c0,39.6,32.1,71.7,71.7,71.7s71.7-32.1,71.7-71.7s-32.1-71.7-71.7-71.7
				c0,0,0,0,0,0C110.2,139.3,78,171.4,78,211.1"/>
			<path id="Path_21626" d="M138.8,216.6c0,17.5,14.1,31.6,31.6,31.6c17.5,0,31.6-14.1,31.6-31.6c0-17.5-14.1-31.6-31.6-31.6
				c0,0,0,0,0,0C153,185,138.8,199.2,138.8,216.6"/>
			<path id="Path_21627" class="st7" d="M141.8,216.6c0,15.8,12.8,28.6,28.6,28.6s28.6-12.8,28.6-28.6c0-15.8-12.8-28.6-28.6-28.6
				c0,0,0,0,0,0C154.6,188,141.8,200.8,141.8,216.6C141.8,216.6,141.8,216.6,141.8,216.6"/>
			<path id="Path_21628" class="st8" d="M144.1,216.6l16,2.1l-13.9,8.1l15.5-4.4l-9.9,12.7l12.7-9.9l-4.4,15.5l8.1-13.9l2.1,16
				l2.1-16l8.1,13.9l-4.4-15.5l12.7,9.9l-9.9-12.7l15.5,4.4l-13.9-8.2l16-2.1l-16-2.1l13.9-8.1l-15.5,4.4L189,198l-12.7,9.9
				l4.4-15.5l-8.2,13.9l-2.1-16l-2.1,16l-8.1-13.9l4.4,15.5l-12.7-9.9l9.9,12.7l-15.5-4.4l13.9,8.1L144.1,216.6z"/>
			<path id="Path_21629" d="M159.7,216.6c0,5.9,4.8,10.7,10.7,10.7c5.9,0,10.7-4.8,10.7-10.7c0-5.9-4.8-10.7-10.7-10.7
				C164.5,205.9,159.8,210.7,159.7,216.6C159.7,216.6,159.7,216.6,159.7,216.6"/>
			<path id="Path_21630" class="st9" d="M184.5,164.1c-0.8,5.5-4.1,10.5-16.1,11.3c-22,1.4-41,20.7-42.4,43.1
				c-1.8,27.3-44.7,15.5-41.3-19.1c3.2-32.8,42.3-64.3,83.8-51.8C175.5,149.7,185.7,155.2,184.5,164.1"/>
			<path id="Path_21631" class="st9" d="M172.9,203.9c0,8.1,6.5,14.6,14.6,14.6c8.1,0,14.6-6.5,14.6-14.6s-6.5-14.6-14.6-14.6l0,0
				C179.4,189.3,172.9,195.8,172.9,203.9C172.9,203.8,172.9,203.9,172.9,203.9"/>
			<path id="Path_21632" class="st9" d="M169,230.1c0,4.6-3.7,8.2-8.2,8.2s-8.2-3.7-8.2-8.2s3.7-8.2,8.2-8.2l0,0
				C165.3,221.9,169,225.6,169,230.1"/>
			<path id="Path_21633" class="st10" d="M230.9,470c56.8,2.1,104.4-30.2,135-76.2c11.8-17.8,29.7-47.9,25-69c-4-17.6-30,3.5-38,7.8
				c-46.2,24.9-104.1,40.3-155.5,28.5c-29.3-6.7-57.3-21.4-82.1-37.6c-6.9-4.5-17.9-15.3-25.4-10.2c-15.5,10.5,5.4,59.3,13,72.9
				C128.7,433.1,176.6,468.1,230.9,470"/>
			<path id="Path_21634" class="st11" d="M230.7,461.3c57,1.7,106.9-28,139.2-73.8c12.4-17.6,29.4-51.1,25.7-68.9
				c-3.8-18.1-30.9,3.6-39.1,8c-47.7,25.4-107.3,40.3-160.3,28.6c-30.1-6.7-59.1-21.5-84.7-38c-7.2-4.6-18.4-15.6-26.2-10.4
				c-16.3,10.9,6.2,61.3,14.3,75C127,428,176.6,459.6,230.7,461.3"/>
			<path id="Path_21635" class="st12" d="M116.6,361.1c10.7,10.7,33.9,21.1,48.4,9.8c6.8-5.3,12.1-12.2,16.6-19.6
				c-22-7.4-42.3-17.5-62.3-29.2C108.1,335.6,104.2,348.7,116.6,361.1"/>
			<path id="Path_21636" class="st12" d="M212.3,382.8c12.3,7.8,41.8,5.9,56.3,1.9c6.1-1.7,8-6.7,9.8-12.2
				c1.9-5.9,2.6-12.1,1.8-18.2c-24,4.8-48.7,5.8-73,2.8C205.8,365.6,205,378.2,212.3,382.8"/>
			<path id="Path_21637" class="st12" d="M344.5,364.8c12.3-3.8,34.8-11.1,30.6-28.4c-1.4-6-4.5-11.2-8.5-16.1
				c-3.3,2.3-6.7,4.4-10.2,6.4c-14.6,7.5-29.8,14-45.3,19.5C317.5,360.7,327.8,369.9,344.5,364.8"/>
			<path id="Path_21638" class="st13" d="M119.4,322.1c-4.5,5.9-8.6,10.7-10,18.7c19.1-0.4,37.6,8.2,50.6,22
				c2.3,2.5,3.6,5.7,3.8,9.1c0.5-0.3,0.9-0.6,1.3-1c6.8-5.3,12.1-12.2,16.6-19.6C159.6,343.9,139.3,333.8,119.4,322.1"/>
			<path id="Path_21639" class="st13" d="M280.2,354.4c-24,4.8-48.7,5.8-73,2.8c-0.8,5-1.3,10.4-0.6,15.1l0.7-0.2
				c21-6.3,44.5-6.6,65,1.8c1.8,0.6,3.3,1.9,4.3,3.6c0.7-1.6,1.3-3.2,1.8-4.9C280.3,366.7,281,360.5,280.2,354.4"/>
			<path id="Path_21640" class="st13" d="M366.7,320.2c-4.3,2.5-39.9,20.5-55.5,25.8c2.4,5.4,4.5,9.3,8.5,13.3
				c0-1.2,0.1-2.4,0.4-3.6c0.6-1.9,2-3.5,3.7-4.5c17.1-8.7,32.5-15.9,51.9-11.8c-0.1-1.1-0.2-2.2-0.5-3.2
				C373.8,330.3,370.6,325.1,366.7,320.2"/>
			<path id="Path_21641" class="st14" d="M319.7,418.9c-41.4-32.7-143.5-42.3-163.2,20.3c22.4,14.9,48.1,21.8,74.2,22.7
				c36,1.1,70.8-9.2,99.6-32.8C327.1,425.4,323.5,422,319.7,418.9"/>
			<path id="Path_21642" class="st15" d="M255.1,437.4c-1.7,16-28.4,16.5-39.3,15c-10.7-1.5-36.9-8.8-35.3-24
				c1.6-14.6,28.7-14.8,39.3-13.6C231.1,415.9,256.7,422.1,255.1,437.4"/>
			<path id="Path_21643" class="st9" d="M130,266.7c0,5,6.9,9.1,15.4,9.1c8.5,0,15.4-4.1,15.4-9.1c0-5-6.9-9.1-15.4-9.1
				C136.9,257.6,130,261.7,130,266.7"/>
			<path id="Path_21644" class="st9" d="M337.2,265.6c0,4.8-6.6,8.7-14.7,8.7c-8.1,0-14.7-3.9-14.7-8.7c0-4.8,6.6-8.7,14.7-8.7
				C330.6,256.9,337.2,260.8,337.2,265.6"/>
		</g>
	</g>
</g>
</svg>
